Oswald-900.ufo
<glyph name="exclam" format="1">
  <advance width="507"/>
  <unicode hex="0021"/>
  <outline>
    <contour>
      <point x="68" y="0" type="line"/>
      <point x="414" y="0" type="line"/>
      <point x="414" y="340" type="line"/>
      <point x="68" y="340" type="line"/>
    </contour>
    <contour>
      <point x="180" y="446" type="line"/>
      <point x="309" y="446" type="line"/>
      <point x="445" y="1652" type="line"/>
      <point x="76" y="1652" type="line"/>
    </contour>
  </outline>
</glyph>
<glyph name="quotedbl" format="1">
  <advance width="786"/>
  <unicode hex="0022"/>
  <outline>
    <contour>
      <point x="120" y="1111" type="line"/>
      <point x="383" y="1111" type="line"/>
      <point x="372" y="1045"/>
      <point x="374" y="1907"/>
      <point x="362" y="1839" type="curve"/>
      <point x="13" y="1839" type="line"/>
    </contour>
    <contour>
      <point x="416" y="1111" type="line"/>
      <point x="649" y="1111" type="line"/>
      <point x="637" y="1045"/>
      <point x="784" y="1907"/>
      <point x="773" y="1839" type="curve"/>
      <point x="437" y="1839" type="line"/>
    </contour>
  </outline>
</glyph>
<glyph name="numbersign" format="1">
  <advance width="1207"/>
  <unicode hex="0023"/>
  <outline>
    <contour>
      <point x="212" y="0" type="line"/>
      <point x="446" y="0" type="line"/>
      <point x="492" y="597" type="line"/>
      <point x="620" y="597" type="line"/>
      <point x="575" y="0" type="line"/>
      <point x="808" y="0" type="line"/>
      <point x="855" y="597" type="line"/>
      <point x="1075" y="597" type="line"/>
      <point x="1075" y="909" type="line"/>
      <point x="893" y="909" type="line"/>
      <point x="887" y="968" type="line"/>
      <point x="1053" y="968" type="line"/>
      <point x="1053" y="1284" type="line"/>
      <point x="925" y="1284" type="line"/>
      <point x="970" y="1836" type="line"/>
      <point x="733" y="1836" type="line"/>
      <point x="690" y="1284" type="line"/>
      <point x="563" y="1284" type="line"/>
      <point x="608" y="1836" type="line"/>
      <point x="370" y="1836" type="line"/>
      <point x="327" y="1284" type="line"/>
      <point x="99" y="1284" type="line"/>
      <point x="99" y="968" type="line"/>
      <point x="288" y="968" type="line"/>
      <point x="294" y="909" type="line"/>
      <point x="121" y="909" type="line"/>
      <point x="121" y="597" type="line"/>
      <point x="258" y="597" type="line"/>
    </contour>
    <contour>
      <point x="524" y="968" type="line"/>
      <point x="650" y="968" type="line"/>
      <point x="657" y="909" type="line"/>
      <point x="530" y="909" type="line"/>
    </contour>
  </outline>
</glyph>
<glyph name="dollar" format="1">
  <advance width="1232"/>
  <unicode hex="0024"/>
  <outline>
    <contour>
      <point x="565" y="-83" type="line"/>
      <point x="665" y="-83" type="line"/>
      <point x="665" y="99" type="line"/>
      <point x="909" y="111"/>
      <point x="1120" y="286"/>
      <point x="1120" y="524" type="curve" smooth="yes"/>
      <point x="1120" y="822"/>
      <point x="1001" y="929"/>
      <point x="771" y="1099" type="curve"/>
      <point x="718" y="1134" type="line"/>
      <point x="634" y="1194"/>
      <point x="561" y="1249"/>
      <point x="561" y="1365" type="curve" smooth="yes"/>
      <point x="561" y="1382"/>
      <point x="558" y="1457"/>
      <point x="613" y="1457" type="curve" smooth="yes"/>
      <point x="691" y="1457"/>
      <point x="671" y="1379"/>
      <point x="653" y="1333" type="curve" smooth="yes"/>
      <point x="651" y="1299"/>
      <point x="646" y="1268"/>
      <point x="644" y="1251" type="curve"/>
      <point x="1125" y="1305" type="line"/>
      <point x="1126" y="1298"/>
      <point x="1128" y="1357"/>
      <point x="1129" y="1350" type="curve" smooth="yes"/>
      <point x="1147" y="1597"/>
      <point x="934" y="1794"/>
      <point x="665" y="1801" type="curve"/>
      <point x="665" y="2012" type="line"/>
      <point x="565" y="2012" type="line"/>
      <point x="565" y="1796" type="line"/>
      <point x="292" y="1764"/>
      <point x="110" y="1595"/>
      <point x="110" y="1310" type="curve" smooth="yes"/>
      <point x="110" y="1033"/>
      <point x="283" y="908"/>
      <point x="438" y="786" type="curve"/>
      <point x="469" y="759" type="line" smooth="yes"/>
      <point x="561" y="686"/>
      <point x="667" y="642"/>
      <point x="667" y="519" type="curve" smooth="yes"/>
      <point x="667" y="508"/>
      <point x="696" y="447"/>
      <point x="637" y="447" type="curve"/>
      <point x="527" y="445"/>
      <point x="556" y="601"/>
      <point x="569" y="655" type="curve" smooth="yes"/>
      <point x="570" y="648"/>
      <point x="571" y="711"/>
      <point x="571" y="704" type="curve"/>
      <point x="106" y="622" type="line"/>
      <point x="91" y="346"/>
      <point x="217" y="127"/>
      <point x="565" y="100" type="curve"/>
    </contour>
  </outline>
</glyph>
<glyph name="percent" format="1">
  <advance width="2386"/>
  <unicode hex="0025"/>
  <outline>
    <contour>
      <point x="565" y="1009" type="curve" smooth="yes"/>
      <point x="447" y="1009"/>
      <point x="442" y="1152"/>
      <point x="442" y="1341" type="curve" smooth="yes"/>
      <point x="442" y="1257" type="line" smooth="yes"/>
      <point x="442" y="1446"/>
      <point x="444" y="1568"/>
      <point x="565" y="1568" type="curve" smooth="yes"/>
      <point x="688" y="1568"/>
      <point x="687" y="1444"/>
      <point x="687" y="1254" type="curve" smooth="yes"/>
      <point x="687" y="1341" type="line" smooth="yes"/>
      <point x="687" y="1152"/>
      <point x="683" y="1009"/>
    </contour>
    <contour>
      <point x="565" y="754" type="curve" smooth="yes"/>
      <point x="900" y="754"/>
      <point x="1023" y="994"/>
      <point x="1023" y="1342" type="curve" smooth="yes"/>
      <point x="1023" y="1251" type="line" smooth="yes"/>
      <point x="1020" y="1606"/>
      <point x="903" y="1824"/>
      <point x="565" y="1824" type="curve" smooth="yes"/>
      <point x="225" y="1824"/>
      <point x="112" y="1604"/>
      <point x="110" y="1248" type="curve" smooth="yes"/>
      <point x="110" y="1342" type="line" smooth="yes"/>
      <point x="110" y="994"/>
      <point x="229" y="754"/>
    </contour>
    <contour>
      <point x="1795" y="267" type="curve" smooth="yes"/>
      <point x="1677" y="267"/>
      <point x="1672" y="410"/>
      <point x="1672" y="599" type="curve" smooth="yes"/>
      <point x="1672" y="508" type="line" smooth="yes"/>
      <point x="1672" y="701"/>
      <point x="1673" y="826"/>
      <point x="1795" y="826" type="curve" smooth="yes"/>
      <point x="1919" y="826"/>
      <point x="1917" y="700"/>
      <point x="1917" y="506" type="curve" smooth="yes"/>
      <point x="1917" y="599" type="line" smooth="yes"/>
      <point x="1917" y="410"/>
      <point x="1913" y="267"/>
    </contour>
    <contour>
      <point x="1795" y="12" type="curve" smooth="yes"/>
      <point x="2129" y="12"/>
      <point x="2253" y="252"/>
      <point x="2253" y="601" type="curve" smooth="yes"/>
      <point x="2253" y="511" type="line" smooth="yes"/>
      <point x="2250" y="866"/>
      <point x="2133" y="1082"/>
      <point x="1795" y="1082" type="curve" smooth="yes"/>
      <point x="1456" y="1082"/>
      <point x="1343" y="864"/>
      <point x="1340" y="511" type="curve" smooth="yes"/>
      <point x="1340" y="601" type="line" smooth="yes"/>
      <point x="1340" y="252"/>
      <point x="1459" y="12"/>
    </contour>
    <contour>
      <point x="779" y="0" type="line"/>
      <point x="982" y="0" type="line"/>
      <point x="1571" y="1885" type="line"/>
      <point x="1367" y="1885" type="line"/>
    </contour>
  </outline>
</glyph>
<glyph name="ampersand" format="1">
  <advance width="1105"/>
  <unicode hex="0026"/>
  <outline>
    <contour>
      <point x="419" y="-29" type="curve" smooth="yes"/>
      <point x="531" y="-29"/>
      <point x="640" y="15"/>
      <point x="712" y="104" type="curve"/>
      <point x="780" y="45"/>
      <point x="872" y="-42"/>
      <point x="972" y="-35" type="curve" smooth="yes"/>
      <point x="991" y="-33"/>
      <point x="1011" y="-29"/>
      <point x="1030" y="-24" type="curve"/>
      <point x="1030" y="292" type="line"/>
      <point x="980" y="298"/>
      <point x="928" y="323"/>
      <point x="904" y="353" type="curve"/>
      <point x="988" y="486"/>
      <point x="1016" y="564"/>
      <point x="1016" y="834" type="curve"/>
      <point x="709" y="834" type="line"/>
      <point x="709" y="767"/>
      <point x="727" y="678"/>
      <point x="716" y="603" type="curve"/>
      <point x="599" y="812" type="line"/>
      <point x="711" y="939"/>
      <point x="829" y="1083"/>
      <point x="829" y="1318" type="curve" smooth="yes"/>
      <point x="829" y="1548"/>
      <point x="667" y="1686"/>
      <point x="453" y="1686" type="curve" smooth="yes"/>
      <point x="234" y="1686"/>
      <point x="118" y="1515"/>
      <point x="118" y="1316" type="curve" smooth="yes"/>
      <point x="118" y="1175"/>
      <point x="219" y="926"/>
      <point x="244" y="840" type="curve"/>
      <point x="140" y="704"/>
      <point x="58" y="580"/>
      <point x="58" y="386" type="curve" smooth="yes"/>
      <point x="58" y="154"/>
      <point x="196" y="-29"/>
    </contour>
    <contour>
      <point x="427" y="249" type="curve" smooth="yes"/>
      <point x="412" y="249"/>
      <point x="408" y="334"/>
      <point x="408" y="412" type="curve" smooth="yes"/>
      <point x="408" y="477"/>
      <point x="399" y="532"/>
      <point x="389" y="523" type="curve"/>
      <point x="459" y="383"/>
      <point x="411" y="448"/>
      <point x="494" y="315" type="curve"/>
      <point x="484" y="290"/>
      <point x="467" y="249"/>
    </contour>
    <contour>
      <point x="482" y="1065" type="curve"/>
      <point x="475" y="1115"/>
      <point x="449" y="1230"/>
      <point x="449" y="1317" type="curve" smooth="yes"/>
      <point x="449" y="1351"/>
      <point x="444" y="1408"/>
      <point x="480" y="1408" type="curve" smooth="yes"/>
      <point x="526" y="1408"/>
      <point x="528" y="1332"/>
      <point x="528" y="1300" type="curve" smooth="yes"/>
      <point x="528" y="1215"/>
      <point x="504" y="1126"/>
    </contour>
  </outline>
</glyph>
<glyph name="quotesingle" format="1">
  <advance width="349"/>
  <unicode hex="0027"/>
  <outline>
    <contour>
      <point x="78" y="1110" type="line"/>
      <point x="283" y="1110" type="line"/>
      <point x="272" y="1043"/>
      <point x="375" y="1904"/>
      <point x="363" y="1836" type="curve"/>
      <point x="0" y="1836" type="line"/>
    </contour>
  </outline>
</glyph>
<glyph name="parenleft" format="1">
  <advance width="767"/>
  <unicode hex="0028"/>
  <outline>
    <contour>
      <point x="679" y="-64" type="curve"/>
      <point x="679" y="198" type="line"/>
      <point x="459" y="192"/>
      <point x="520" y="897"/>
      <point x="520" y="929" type="curve" smooth="yes"/>
      <point x="520" y="969"/>
      <point x="450" y="1704"/>
      <point x="679" y="1698" type="curve"/>
      <point x="679" y="1960" type="line"/>
      <point x="156" y="1963"/>
      <point x="174" y="1311"/>
      <point x="174" y="947" type="curve" smooth="yes"/>
      <point x="174" y="585"/>
      <point x="156" y="-68"/>
    </contour>
  </outline>
</glyph>
<glyph name="parenright" format="1">
  <advance width="762"/>
  <unicode hex="0029"/>
  <outline>
    <contour>
      <point x="150" y="-64" type="line"/>
      <point x="672" y="-68"/>
      <point x="657" y="586"/>
      <point x="657" y="947" type="curve" smooth="yes"/>
      <point x="657" y="1310"/>
      <point x="672" y="1963"/>
      <point x="150" y="1960" type="curve"/>
      <point x="150" y="1698" type="line"/>
      <point x="378" y="1704"/>
      <point x="309" y="968"/>
      <point x="309" y="929" type="curve" smooth="yes"/>
      <point x="309" y="898"/>
      <point x="370" y="192"/>
      <point x="150" y="198" type="curve"/>
    </contour>
  </outline>
</glyph>
<glyph name="asterisk" format="1">
  <advance width="980"/>
  <unicode hex="002A"/>
  <outline>
    <contour>
      <point x="406" y="835" type="line"/>
      <point x="509" y="1062" type="line"/>
      <point x="613" y="835" type="line"/>
      <point x="859" y="980" type="line"/>
      <point x="698" y="1201" type="line"/>
      <point x="936" y="1292" type="line"/>
      <point x="845" y="1539" type="line"/>
      <point x="636" y="1419" type="line"/>
      <point x="663" y="1668" type="line"/>
      <point x="355" y="1668" type="line"/>
      <point x="386" y="1421" type="line"/>
      <point x="176" y="1538" type="line"/>
      <point x="85" y="1294" type="line"/>
      <point x="320" y="1203" type="line"/>
      <point x="163" y="979" type="line"/>
    </contour>
  </outline>
</glyph>
<glyph name="plus" format="1">
  <advance width="812"/>
  <unicode hex="002B"/>
  <outline>
    <contour>
      <point x="261" y="391" type="line"/>
      <point x="527" y="391" type="line"/>
      <point x="527" y="586" type="line"/>
      <point x="724" y="586" type="line"/>
      <point x="724" y="857" type="line"/>
      <point x="527" y="857" type="line"/>
      <point x="527" y="1051" type="line"/>
      <point x="261" y="1051" type="line"/>
      <point x="261" y="857" type="line"/>
      <point x="65" y="857" type="line"/>
      <point x="65" y="586" type="line"/>
      <point x="261" y="586" type="line"/>
    </contour>
  </outline>
</glyph>
<glyph name="comma" format="1">
  <advance width="504"/>
  <unicode hex="002C"/>
  <outline>
    <contour>
      <point x="150" y="-239" type="line"/>
      <point x="495" y="-306"/>
      <point x="456" y="-14"/>
      <point x="456" y="378" type="curve"/>
      <point x="72" y="378" type="line"/>
      <point x="72" y="-1" type="line"/>
      <point x="174" y="-1" type="line"/>
      <point x="173" y="-102"/>
      <point x="167" y="-38"/>
      <point x="104" y="-24" type="curve"/>
    </contour>
  </outline>
</glyph>
<glyph name="hyphen" format="1">
  <advance width="384"/>
  <unicode hex="002D"/>
  <outline>
    <contour>
      <point x="-46" y="455" type="line"/>
      <point x="417" y="455" type="line"/>
      <point x="417" y="726" type="line"/>
      <point x="-46" y="726" type="line"/>
    </contour>
  </outline>
</glyph>
<glyph name="period" format="1">
  <advance width="577"/>
  <unicode hex="002E"/>
  <outline>
    <contour>
      <point x="92" y="0" type="line"/>
      <point x="479" y="0" type="line"/>
      <point x="479" y="378" type="line"/>
      <point x="92" y="378" type="line"/>
    </contour>
  </outline>
</glyph>
<glyph name="slash" format="1">
  <advance width="901"/>
  <unicode hex="002F"/>
  <outline>
    <contour>
      <point x="130" y="0" type="line"/>
      <point x="304" y="0" type="line"/>
      <point x="834" y="1696" type="line"/>
      <point x="659" y="1696" type="line"/>
    </contour>
  </outline>
</glyph>
<glyph name="zero" format="1">
  <advance width="1177"/>
  <unicode hex="0030"/>
  <outline>
    <contour>
      <point x="588" y="347" type="curve" smooth="yes"/>
      <point x="505" y="347"/>
      <point x="508" y="520"/>
      <point x="508" y="556" type="curve" smooth="yes"/>
      <point x="508" y="1276" type="line" smooth="yes"/>
      <point x="508" y="1317"/>
      <point x="492" y="1486"/>
      <point x="588" y="1486" type="curve" smooth="yes"/>
      <point x="681" y="1486"/>
      <point x="669" y="1317"/>
      <point x="669" y="1276" type="curve" smooth="yes"/>
      <point x="669" y="556" type="line" smooth="yes"/>
      <point x="669" y="519"/>
      <point x="673" y="347"/>
    </contour>
    <contour>
      <point x="588" y="-39" type="curve" smooth="yes"/>
      <point x="920" y="-39"/>
      <point x="1105" y="234"/>
      <point x="1105" y="541" type="curve" smooth="yes"/>
      <point x="1105" y="1291" type="line" smooth="yes"/>
      <point x="1105" y="1610"/>
      <point x="941" y="1873"/>
      <point x="588" y="1873" type="curve" smooth="yes"/>
      <point x="232" y="1873"/>
      <point x="69" y="1612"/>
      <point x="69" y="1291" type="curve" smooth="yes"/>
      <point x="69" y="541" type="line" smooth="yes"/>
      <point x="69" y="230"/>
      <point x="248" y="-39"/>
    </contour>
  </outline>
</glyph>
<glyph name="one" format="1">
  <advance width="665"/>
  <unicode hex="0031"/>
  <outline>
    <contour>
      <point x="199" y="0" type="line"/>
      <point x="585" y="0" type="line"/>
      <point x="585" y="1652" type="line"/>
      <point x="281" y="1652" type="line"/>
      <point x="224" y="1527"/>
      <point x="154" y="1544"/>
      <point x="40" y="1469" type="curve"/>
      <point x="40" y="1183" type="line"/>
      <point x="22" y="1179"/>
      <point x="222" y="1164"/>
      <point x="199" y="1148" type="curve"/>
    </contour>
  </outline>
</glyph>
<glyph name="two" format="1">
  <advance width="1127"/>
  <unicode hex="0032"/>
  <outline>
    <contour>
      <point x="59" y="0" type="line"/>
      <point x="1093" y="0" type="line"/>
      <point x="1093" y="444" type="line"/>
      <point x="553" y="444" type="line"/>
      <point x="692" y="630"/>
      <point x="703" y="542"/>
      <point x="870" y="778" type="curve"/>
      <point x="999" y="960"/>
      <point x="1084" y="1135"/>
      <point x="1084" y="1368" type="curve" smooth="yes"/>
      <point x="1084" y="1676"/>
      <point x="892" y="1875"/>
      <point x="563" y="1875" type="curve" smooth="yes"/>
      <point x="187" y="1875"/>
      <point x="56" y="1616"/>
      <point x="59" y="1292" type="curve"/>
      <point x="59" y="1140" type="line"/>
      <point x="489" y="1140" type="line"/>
      <point x="489" y="1190"/>
      <point x="453" y="1491"/>
      <point x="562" y="1491" type="curve" smooth="yes"/>
      <point x="626" y="1491"/>
      <point x="652" y="1392"/>
      <point x="652" y="1368" type="curve" smooth="yes"/>
      <point x="652" y="1224"/>
      <point x="569" y="1100"/>
      <point x="486" y="985" type="curve" smooth="yes"/>
      <point x="59" y="389" type="line"/>
    </contour>
  </outline>
</glyph>
<glyph name="three" format="1">
  <advance width="1165"/>
  <unicode hex="0033"/>
  <outline>
    <contour>
      <point x="599" y="-39" type="curve" smooth="yes"/>
      <point x="981" y="-39"/>
      <point x="1121" y="219"/>
      <point x="1121" y="560" type="curve" smooth="yes"/>
      <point x="1121" y="655"/>
      <point x="1112" y="859"/>
      <point x="963" y="983" type="curve"/>
      <point x="1084" y="1080"/>
      <point x="1121" y="1246"/>
      <point x="1121" y="1346" type="curve" smooth="yes"/>
      <point x="1121" y="1686"/>
      <point x="917" y="1876"/>
      <point x="591" y="1876" type="curve" smooth="yes"/>
      <point x="273" y="1876"/>
      <point x="70" y="1691"/>
      <point x="70" y="1346" type="curve" smooth="yes"/>
      <point x="70" y="1193" type="line"/>
      <point x="510" y="1193" type="line"/>
      <point x="505" y="1231"/>
      <point x="451" y="1491"/>
      <point x="593" y="1491" type="curve" smooth="yes"/>
      <point x="695" y="1491"/>
      <point x="684" y="1379"/>
      <point x="684" y="1346" type="curve" smooth="yes"/>
      <point x="684" y="1207"/>
      <point x="574" y="1201"/>
      <point x="441" y="1210" type="curve"/>
      <point x="441" y="763" type="line"/>
      <point x="598" y="776"/>
      <point x="684" y="699"/>
      <point x="684" y="561" type="curve" smooth="yes"/>
      <point x="684" y="552"/>
      <point x="725" y="348"/>
      <point x="593" y="348" type="curve" smooth="yes"/>
      <point x="453" y="348"/>
      <point x="507" y="629"/>
      <point x="510" y="653" type="curve"/>
      <point x="71" y="653" type="line"/>
      <point x="71" y="576" type="line" smooth="yes"/>
      <point x="78" y="214"/>
      <point x="182" y="-39"/>
    </contour>
  </outline>
</glyph>
<glyph name="four" format="1">
  <advance width="1221"/>
  <unicode hex="0034"/>
  <outline>
    <contour>
      <point x="593" y="0" type="line"/>
      <point x="1023" y="0" type="line"/>
      <point x="1023" y="405" type="line"/>
      <point x="1189" y="405" type="line"/>
      <point x="1189" y="759" type="line"/>
      <point x="1023" y="759" type="line"/>
      <point x="1023" y="1835" type="line"/>
      <point x="536" y="1835" type="line"/>
      <point x="77" y="765" type="line"/>
      <point x="77" y="405" type="line"/>
      <point x="593" y="405" type="line"/>
    </contour>
    <contour>
      <point x="451" y="759" type="line"/>
      <point x="593" y="1108" type="line"/>
      <point x="593" y="759" type="line"/>
    </contour>
  </outline>
</glyph>
<glyph name="five" format="1">
  <advance width="1188"/>
  <unicode hex="0035"/>
  <outline>
    <contour>
      <point x="599" y="-39" type="curve" smooth="yes"/>
      <point x="1055" y="-39"/>
      <point x="1119" y="346"/>
      <point x="1119" y="686" type="curve" smooth="yes"/>
      <point x="1119" y="961"/>
      <point x="1037" y="1244"/>
      <point x="672" y="1244" type="curve" smooth="yes"/>
      <point x="623" y="1244"/>
      <point x="593" y="1230"/>
      <point x="538" y="1208" type="curve"/>
      <point x="529" y="1397" type="line"/>
      <point x="1079" y="1397" type="line"/>
      <point x="1073" y="1836" type="line"/>
      <point x="129" y="1836" type="line"/>
      <point x="129" y="746" type="line"/>
      <point x="500" y="746" type="line"/>
      <point x="505" y="788"/>
      <point x="532" y="886"/>
      <point x="602" y="886" type="curve" smooth="yes"/>
      <point x="718" y="886"/>
      <point x="697" y="691"/>
      <point x="697" y="693" type="curve" smooth="yes"/>
      <point x="697" y="665"/>
      <point x="753" y="333"/>
      <point x="576" y="333" type="curve" smooth="yes"/>
      <point x="487" y="333"/>
      <point x="511" y="509"/>
      <point x="514" y="628" type="curve"/>
      <point x="83" y="633" type="line"/>
      <point x="83" y="287"/>
      <point x="171" y="-39"/>
    </contour>
  </outline>
</glyph>
<glyph name="six" format="1">
  <advance width="1053"/>
  <unicode hex="0036"/>
  <outline>
    <contour>
      <point x="543" y="-27" type="curve" smooth="yes"/>
      <point x="888" y="-27"/>
      <point x="1010" y="287"/>
      <point x="1010" y="573" type="curve" smooth="yes"/>
      <point x="1010" y="839"/>
      <point x="946" y="1085"/>
      <point x="631" y="1085" type="curve" smooth="yes"/>
      <point x="580" y="1085"/>
      <point x="516" y="1066"/>
      <point x="460" y="1023" type="curve"/>
      <point x="460" y="1028" type="line"/>
      <point x="458" y="1073"/>
      <point x="439" y="1340"/>
      <point x="548" y="1340" type="curve" smooth="yes"/>
      <point x="633" y="1340"/>
      <point x="605" y="1164"/>
      <point x="603" y="1148" type="curve"/>
      <point x="986" y="1148" type="line"/>
      <point x="986" y="1179" type="line" smooth="yes"/>
      <point x="986" y="1475"/>
      <point x="826" y="1688"/>
      <point x="543" y="1688" type="curve" smooth="yes"/>
      <point x="157" y="1688"/>
      <point x="68" y="1317"/>
      <point x="68" y="1042" type="curve" smooth="yes"/>
      <point x="68" y="518" type="line" smooth="yes"/>
      <point x="68" y="283"/>
      <point x="204" y="-27"/>
    </contour>
    <contour>
      <point x="543" y="313" type="curve" smooth="yes"/>
      <point x="451" y="313"/>
      <point x="463" y="506"/>
      <point x="463" y="487" type="curve" smooth="yes"/>
      <point x="463" y="666" type="line"/>
      <point x="483" y="715"/>
      <point x="499" y="757"/>
      <point x="538" y="757" type="curve" smooth="yes"/>
      <point x="647" y="757"/>
      <point x="617" y="578"/>
      <point x="617" y="562" type="curve" smooth="yes"/>
      <point x="617" y="561"/>
      <point x="656" y="313"/>
    </contour>
  </outline>
</glyph>
<glyph name="seven" format="1">
  <advance width="887"/>
  <unicode hex="0037"/>
  <outline>
    <contour>
      <point x="155" y="0" type="line"/>
      <point x="573" y="0" type="line"/>
      <point x="509" y="-331"/>
      <point x="937" y="1943"/>
      <point x="873" y="1612" type="curve"/>
      <point x="873" y="1833" type="line"/>
      <point x="41" y="1833" type="line"/>
      <point x="41" y="1457" type="line"/>
      <point x="460" y="1457" type="line"/>
    </contour>
  </outline>
</glyph>
<glyph name="eight" format="1">
  <advance width="1147"/>
  <unicode hex="0038"/>
  <outline>
    <contour>
      <point x="573" y="-33" type="curve" smooth="yes"/>
      <point x="965" y="-33"/>
      <point x="1095" y="206"/>
      <point x="1095" y="557" type="curve" smooth="yes"/>
      <point x="1095" y="656"/>
      <point x="1121" y="833"/>
      <point x="974" y="970" type="curve"/>
      <point x="1061" y="1099"/>
      <point x="1059" y="1250"/>
      <point x="1059" y="1346" type="curve" smooth="yes"/>
      <point x="1059" y="1667"/>
      <point x="896" y="1876"/>
      <point x="573" y="1876" type="curve" smooth="yes"/>
      <point x="252" y="1876"/>
      <point x="83" y="1670"/>
      <point x="83" y="1346" type="curve" smooth="yes"/>
      <point x="83" y="1250"/>
      <point x="84" y="1101"/>
      <point x="170" y="970" type="curve"/>
      <point x="22" y="833"/>
      <point x="52" y="655"/>
      <point x="52" y="557" type="curve" smooth="yes"/>
      <point x="52" y="208"/>
      <point x="185" y="-33"/>
    </contour>
    <contour>
      <point x="573" y="320" type="curve" smooth="yes"/>
      <point x="438" y="320"/>
      <point x="473" y="519"/>
      <point x="473" y="530" type="curve" smooth="yes"/>
      <point x="473" y="594"/>
      <point x="469" y="794"/>
      <point x="573" y="785" type="curve"/>
      <point x="679" y="794"/>
      <point x="673" y="594"/>
      <point x="673" y="530" type="curve" smooth="yes"/>
      <point x="673" y="521"/>
      <point x="710" y="320"/>
    </contour>
    <contour>
      <point x="573" y="1117" type="curve"/>
      <point x="492" y="1112"/>
      <point x="516" y="1360"/>
      <point x="516" y="1389" type="curve" smooth="yes"/>
      <point x="516" y="1387"/>
      <point x="501" y="1534"/>
      <point x="573" y="1534" type="curve" smooth="yes"/>
      <point x="648" y="1534"/>
      <point x="628" y="1384"/>
      <point x="628" y="1389" type="curve" smooth="yes"/>
      <point x="628" y="1361"/>
      <point x="655" y="1112"/>
    </contour>
  </outline>
</glyph>
<glyph name="nine" format="1">
  <advance width="1199"/>
  <unicode hex="0039"/>
  <outline>
    <contour>
      <point x="600" y="-30" type="curve" smooth="yes"/>
      <point x="1034" y="-30"/>
      <point x="1128" y="399"/>
      <point x="1128" y="736" type="curve" smooth="yes"/>
      <point x="1128" y="1205" type="line" smooth="yes"/>
      <point x="1128" y="1494"/>
      <point x="974" y="1875"/>
      <point x="600" y="1875" type="curve" smooth="yes"/>
      <point x="220" y="1875"/>
      <point x="81" y="1517"/>
      <point x="81" y="1201" type="curve" smooth="yes"/>
      <point x="81" y="907"/>
      <point x="156" y="632"/>
      <point x="515" y="632" type="curve" smooth="yes"/>
      <point x="569" y="632"/>
      <point x="634" y="648"/>
      <point x="695" y="685" type="curve"/>
      <point x="695" y="763" type="line" smooth="yes"/>
      <point x="695" y="747"/>
      <point x="747" y="348"/>
      <point x="594" y="348" type="curve" smooth="yes"/>
      <point x="487" y="348"/>
      <point x="519" y="547"/>
      <point x="522" y="562" type="curve"/>
      <point x="94" y="562" type="line"/>
      <point x="94" y="530" type="line" smooth="yes"/>
      <point x="106" y="200"/>
      <point x="272" y="-30"/>
    </contour>
    <contour>
      <point x="605" y="993" type="curve" smooth="yes"/>
      <point x="481" y="993"/>
      <point x="520" y="1212"/>
      <point x="520" y="1224" type="curve" smooth="yes"/>
      <point x="520" y="1229"/>
      <point x="482" y="1489"/>
      <point x="600" y="1489" type="curve" smooth="yes"/>
      <point x="704" y="1489"/>
      <point x="692" y="1274"/>
      <point x="692" y="1295" type="curve" smooth="yes"/>
      <point x="692" y="1090" type="line"/>
      <point x="670" y="1038"/>
      <point x="645" y="993"/>
    </contour>
  </outline>
</glyph>
<glyph name="colon" format="1">
  <advance width="558"/>
  <unicode hex="003A"/>
  <outline>
    <contour>
      <point x="88" y="96" type="line"/>
      <point x="468" y="96" type="line"/>
      <point x="468" y="471" type="line"/>
      <point x="88" y="471" type="line"/>
    </contour>
    <contour>
      <point x="88" y="934" type="line"/>
      <point x="468" y="934" type="line"/>
      <point x="468" y="1310" type="line"/>
      <point x="88" y="1310" type="line"/>
    </contour>
  </outline>
</glyph>
<glyph name="semicolon" format="1">
  <advance width="494"/>
  <unicode hex="003B"/>
  <outline>
    <contour>
      <point x="131" y="-123" type="line"/>
      <point x="441" y="-183"/>
      <point x="409" y="84"/>
      <point x="407" y="432" type="curve"/>
      <point x="60" y="432" type="line"/>
      <point x="60" y="91" type="line"/>
      <point x="152" y="91" type="line"/>
      <point x="151" y="0"/>
      <point x="147" y="57"/>
      <point x="89" y="70" type="curve"/>
    </contour>
    <contour>
      <point x="63" y="841" type="line"/>
      <point x="407" y="841" type="line"/>
      <point x="407" y="1179" type="line"/>
      <point x="63" y="1179" type="line"/>
    </contour>
  </outline>
</glyph>
<glyph name="less" format="1">
  <advance width="926"/>
  <unicode hex="003C"/>
  <outline>
    <contour>
      <point x="796" y="35" type="curve"/>
      <point x="796" y="382" type="line"/>
      <point x="672" y="470"/>
      <point x="491" y="599"/>
      <point x="367" y="691" type="curve"/>
      <point x="796" y="995" type="line"/>
      <point x="796" y="1345" type="line"/>
      <point x="73" y="839" type="line"/>
      <point x="73" y="539" type="line"/>
      <point x="10" y="583"/>
      <point x="796" y="35"/>
    </contour>
  </outline>
</glyph>
<glyph name="equal" format="1">
  <advance width="767"/>
  <unicode hex="003D"/>
  <outline>
    <contour>
      <point x="45" y="259" type="line"/>
      <point x="704" y="259" type="line"/>
      <point x="704" y="528" type="line"/>
      <point x="45" y="528" type="line"/>
    </contour>
    <contour>
      <point x="45" y="586" type="line"/>
      <point x="704" y="586" type="line"/>
      <point x="704" y="857" type="line"/>
      <point x="45" y="857" type="line"/>
    </contour>
  </outline>
</glyph>
<glyph name="greater" format="1">
  <advance width="926"/>
  <unicode hex="003E"/>
  <outline>
    <contour>
      <point x="121" y="35" type="line"/>
      <point x="844" y="539" type="line"/>
      <point x="844" y="839" type="line"/>
      <point x="908" y="795"/>
      <point x="121" y="1344"/>
      <point x="121" y="1344" type="curve"/>
      <point x="121" y="995" type="line"/>
      <point x="32" y="1059"/>
      <point x="639" y="628"/>
      <point x="550" y="691" type="curve"/>
      <point x="121" y="382" type="line"/>
    </contour>
  </outline>
</glyph>
<glyph name="question" format="1">
  <advance width="1021"/>
  <unicode hex="003F"/>
  <outline>
    <contour>
      <point x="241" y="492" type="line"/>
      <point x="663" y="492" type="line"/>
      <point x="663" y="771" type="line"/>
      <point x="871" y="886"/>
      <point x="997" y="1148"/>
      <point x="997" y="1410" type="curve" smooth="yes"/>
      <point x="997" y="1701"/>
      <point x="839" y="1874"/>
      <point x="502" y="1874" type="curve" smooth="yes"/>
      <point x="151" y="1874"/>
      <point x="52" y="1672"/>
      <point x="52" y="1444" type="curve" smooth="yes"/>
      <point x="52" y="1349"/>
      <point x="66" y="1311"/>
      <point x="93" y="1206" type="curve"/>
      <point x="487" y="1293" type="line"/>
      <point x="469" y="1349"/>
      <point x="459" y="1351"/>
      <point x="459" y="1409" type="curve" smooth="yes"/>
      <point x="458" y="1443"/>
      <point x="455" y="1505"/>
      <point x="502" y="1505" type="curve" smooth="yes"/>
      <point x="562" y="1505"/>
      <point x="573" y="1474"/>
      <point x="573" y="1439" type="curve" smooth="yes"/>
      <point x="573" y="1168"/>
      <point x="326" y="975"/>
      <point x="241" y="901" type="curve"/>
    </contour>
    <contour>
      <point x="252" y="0" type="line"/>
      <point x="652" y="0" type="line"/>
      <point x="652" y="387" type="line"/>
      <point x="252" y="387" type="line"/>
    </contour>
  </outline>
</glyph>
<glyph name="at" format="1">
  <advance width="1856"/>
  <unicode hex="0040"/>
  <outline>
    <contour>
      <point x="1004" y="-205" type="curve" smooth="yes"/>
      <point x="1155" y="-205"/>
      <point x="1317" y="-174"/>
      <point x="1457" y="-142" type="curve"/>
      <point x="1313" y="132" type="line"/>
      <point x="1207" y="93"/>
      <point x="1100" y="65"/>
      <point x="1006" y="65" type="curve" smooth="yes"/>
      <point x="477" y="65"/>
      <point x="434" y="420"/>
      <point x="434" y="759" type="curve" smooth="yes"/>
      <point x="434" y="947"/>
      <point x="481" y="1331"/>
      <point x="937" y="1331" type="curve" smooth="yes"/>
      <point x="1371" y="1331"/>
      <point x="1434" y="1024"/>
      <point x="1434" y="751" type="curve" smooth="yes"/>
      <point x="1434" y="784"/>
      <point x="1454" y="526"/>
      <point x="1342" y="526" type="curve" smooth="yes"/>
      <point x="1301" y="526"/>
      <point x="1308" y="575"/>
      <point x="1308" y="610" type="curve" smooth="yes"/>
      <point x="1308" y="1212" type="line"/>
      <point x="962" y="1212" type="line"/>
      <point x="962" y="1165" type="line"/>
      <point x="945" y="1207"/>
      <point x="902" y="1222"/>
      <point x="855" y="1222" type="curve" smooth="yes"/>
      <point x="538" y="1222"/>
      <point x="494" y="813"/>
      <point x="494" y="662" type="curve" smooth="yes"/>
      <point x="494" y="415"/>
      <point x="643" y="228"/>
      <point x="890" y="228" type="curve" smooth="yes"/>
      <point x="930" y="228"/>
      <point x="963" y="250"/>
      <point x="1050" y="328" type="curve"/>
      <point x="1135" y="253"/>
      <point x="1242" y="229"/>
      <point x="1347" y="229" type="curve" smooth="yes"/>
      <point x="1685" y="229"/>
      <point x="1780" y="541"/>
      <point x="1780" y="748" type="curve" smooth="yes"/>
      <point x="1780" y="1250"/>
      <point x="1505" y="1598"/>
      <point x="939" y="1598" type="curve" smooth="yes"/>
      <point x="375" y="1598"/>
      <point x="88" y="1230"/>
      <point x="88" y="757" type="curve" smooth="yes"/>
      <point x="88" y="168"/>
      <point x="293" y="-205"/>
    </contour>
    <contour>
      <point x="939" y="526" type="curve" smooth="yes"/>
      <point x="843" y="526"/>
      <point x="841" y="652"/>
      <point x="841" y="661" type="curve" smooth="yes"/>
      <point x="841" y="713"/>
      <point x="810" y="935"/>
      <point x="963" y="935" type="curve" smooth="yes"/>
      <point x="979" y="935"/>
      <point x="983" y="916"/>
      <point x="962" y="902" type="curve"/>
      <point x="962" y="530" type="line"/>
      <point x="946" y="517"/>
      <point x="932" y="526"/>
    </contour>
  </outline>
</glyph>
<glyph name="A" format="1">
  <advance width="1181"/>
  <unicode hex="0041"/>
  <outline>
    <contour>
      <point x="-8" y="0" type="line"/>
      <point x="445" y="0" type="line"/>
      <point x="507" y="357" type="line"/>
      <point x="671" y="357" type="line"/>
      <point x="739" y="0" type="line"/>
      <point x="1188" y="0" type="line"/>
      <point x="779" y="1835" type="line"/>
      <point x="403" y="1835" type="line"/>
    </contour>
    <contour>
      <point x="535" y="635" type="line"/>
      <point x="593" y="1151" type="line"/>
      <point x="644" y="635" type="line"/>
    </contour>
  </outline>
</glyph>
<glyph name="B" format="1">
  <advance width="1307"/>
  <unicode hex="0042"/>
  <outline>
    <contour>
      <point x="334" y="0" type="line"/>
      <point x="683" y="0" type="line" smooth="yes"/>
      <point x="1045" y="0"/>
      <point x="1269" y="126"/>
      <point x="1269" y="529" type="curve" smooth="yes"/>
      <point x="1269" y="789"/>
      <point x="1167" y="942"/>
      <point x="904" y="994" type="curve"/>
      <point x="1110" y="1027"/>
      <point x="1215" y="1113"/>
      <point x="1215" y="1333" type="curve" smooth="yes"/>
      <point x="1215" y="1798"/>
      <point x="900" y="1806"/>
      <point x="591" y="1806" type="curve"/>
      <point x="334" y="1806" type="line"/>
      <point x="334" y="1506" type="line"/>
      <point x="625" y="1506" type="line" smooth="yes"/>
      <point x="739" y="1506"/>
      <point x="809" y="1441"/>
      <point x="809" y="1334" type="curve" smooth="yes"/>
      <point x="809" y="1201"/>
      <point x="778" y="1126"/>
      <point x="606" y="1126" type="curve" smooth="yes"/>
      <point x="334" y="1126" type="line"/>
      <point x="334" y="834" type="line"/>
      <point x="609" y="834" type="line" smooth="yes"/>
      <point x="773" y="834"/>
      <point x="827" y="763"/>
      <point x="827" y="565" type="curve" smooth="yes"/>
      <point x="827" y="408"/>
      <point x="772" y="319"/>
      <point x="606" y="319" type="curve" smooth="yes"/>
      <point x="334" y="319" type="line"/>
    </contour>
    <component base="uc_main_stem"/>
  </outline>
</glyph>
<glyph name="C" format="1">
  <advance width="1236"/>
  <unicode hex="0043"/>
  <outline>
    <contour>
      <point x="634" y="-39" type="curve" smooth="yes"/>
      <point x="1057" y="-39"/>
      <point x="1176" y="288"/>
      <point x="1184" y="627" type="curve" smooth="yes"/>
      <point x="1184" y="809" type="line"/>
      <point x="735" y="809" type="line"/>
      <point x="735" y="595" type="line" smooth="yes"/>
      <point x="736" y="485"/>
      <point x="738" y="312"/>
      <point x="634" y="312" type="curve" smooth="yes"/>
      <point x="534" y="312"/>
      <point x="528" y="462"/>
      <point x="528" y="531" type="curve" smooth="yes"/>
      <point x="528" y="1303" type="line" smooth="yes"/>
      <point x="528" y="1370"/>
      <point x="535" y="1524"/>
      <point x="634" y="1524" type="curve" smooth="yes"/>
      <point x="745" y="1524"/>
      <point x="732" y="1343"/>
      <point x="732" y="1242" type="curve" smooth="yes"/>
      <point x="732" y="1049" type="line"/>
      <point x="1184" y="1049" type="line"/>
      <point x="1184" y="1242" type="line" smooth="yes"/>
      <point x="1184" y="1613"/>
      <point x="1035" y="1875"/>
      <point x="634" y="1875" type="curve" smooth="yes"/>
      <point x="204" y="1875"/>
      <point x="71" y="1571"/>
      <point x="71" y="1187" type="curve" smooth="yes"/>
      <point x="71" y="646" type="line" smooth="yes"/>
      <point x="71" y="273"/>
      <point x="209" y="-39"/>
    </contour>
  </outline>
</glyph>
<glyph name="D" format="1">
  <advance width="1307"/>
  <unicode hex="0044"/>
  <outline>
    <contour>
      <point x="417" y="0" type="line"/>
      <point x="544" y="0" type="line" smooth="yes"/>
      <point x="1140" y="0"/>
      <point x="1235" y="197"/>
      <point x="1235" y="679" type="curve" smooth="yes"/>
      <point x="1235" y="1246" type="line" smooth="yes"/>
      <point x="1235" y="1669"/>
      <point x="1083" y="1835"/>
      <point x="576" y="1835" type="curve" smooth="yes"/>
      <point x="419" y="1835" type="line"/>
      <point x="419" y="1519" type="line"/>
      <point x="593" y="1519" type="line" smooth="yes"/>
      <point x="743" y="1519"/>
      <point x="759" y="1472"/>
      <point x="759" y="1352" type="curve" smooth="yes"/>
      <point x="759" y="406" type="line" smooth="yes"/>
      <point x="759" y="270"/>
      <point x="728" y="316"/>
      <point x="591" y="314" type="curve" smooth="yes"/>
      <point x="584" y="314"/>
      <point x="453" y="314"/>
      <point x="417" y="313" type="curve"/>
    </contour>
    <component base="uc_main_stem"/>
  </outline>
</glyph>
<glyph name="E" format="1">
  <advance width="880"/>
  <unicode hex="0045"/>
  <outline>
    <contour>
      <point x="290" y="713" type="line"/>
      <point x="747" y="713" type="line"/>
      <point x="747" y="999" type="line"/>
      <point x="290" y="999" type="line"/>
    </contour>
    <contour>
      <point x="290" y="0" type="line"/>
      <point x="846" y="0" type="line"/>
      <point x="846" y="275" type="line"/>
      <point x="290" y="275" type="line"/>
    </contour>
    <contour>
      <point x="290" y="1350" type="line"/>
      <point x="842" y="1350" type="line"/>
      <point x="842" y="1626" type="line"/>
      <point x="290" y="1626" type="line"/>
    </contour>
    <component base="uc_main_stem"/>
  </outline>
</glyph>
<glyph name="F" format="1">
  <advance width="825"/>
  <unicode hex="0046"/>
  <outline>
    <contour>
      <point x="304" y="1350" type="line"/>
      <point x="821" y="1350" type="line"/>
      <point x="821" y="1626" type="line"/>
      <point x="304" y="1626" type="line"/>
    </contour>
    <contour>
      <point x="311" y="713" type="line"/>
      <point x="774" y="713" type="line"/>
      <point x="774" y="999" type="line"/>
      <point x="311" y="999" type="line"/>
    </contour>
    <component base="uc_main_stem" xOffset="7"/>
  </outline>
</glyph>
<glyph name="G" format="1">
  <advance width="1304"/>
  <unicode hex="0047"/>
  <outline>
    <contour>
      <point x="539" y="-39" type="curve" smooth="yes"/>
      <point x="650" y="-39"/>
      <point x="775" y="22"/>
      <point x="843" y="108" type="curve"/>
      <point x="889" y="0" type="line"/>
      <point x="1220" y="0" type="line"/>
      <point x="1220" y="972" type="line"/>
      <point x="559" y="972" type="line"/>
      <point x="559" y="647" type="line"/>
      <point x="763" y="647" type="line"/>
      <point x="763" y="568" type="line" smooth="yes"/>
      <point x="763" y="466"/>
      <point x="751" y="312"/>
      <point x="642" y="312" type="curve" smooth="yes"/>
      <point x="541" y="312"/>
      <point x="528" y="452"/>
      <point x="528" y="553" type="curve" smooth="yes"/>
      <point x="528" y="1294" type="line" smooth="yes"/>
      <point x="528" y="1385"/>
      <point x="535" y="1524"/>
      <point x="637" y="1524" type="curve" smooth="yes"/>
      <point x="746" y="1524"/>
      <point x="769" y="1383"/>
      <point x="769" y="1291" type="curve" smooth="yes"/>
      <point x="769" y="1116" type="line"/>
      <point x="1203" y="1116" type="line"/>
      <point x="1203" y="1263" type="line"/>
      <point x="1204" y="1628"/>
      <point x="1031" y="1875"/>
      <point x="636" y="1875" type="curve" smooth="yes"/>
      <point x="215" y="1875"/>
      <point x="71" y="1590"/>
      <point x="71" y="1191" type="curve" smooth="yes"/>
      <point x="71" y="599" type="line" smooth="yes"/>
      <point x="71" y="268"/>
      <point x="241" y="-39"/>
    </contour>
  </outline>
</glyph>
<glyph name="H" format="1">
  <advance width="1240"/>
  <unicode hex="0048"/>
  <outline>
    <contour>
      <point x="90" y="0" type="line"/>
      <point x="547" y="0" type="line"/>
      <point x="547" y="788" type="line"/>
      <point x="690" y="788" type="line"/>
      <point x="690" y="0" type="line"/>
      <point x="1150" y="0" type="line"/>
      <point x="1150" y="1835" type="line"/>
      <point x="690" y="1835" type="line"/>
      <point x="690" y="1115" type="line"/>
      <point x="547" y="1115" type="line"/>
      <point x="547" y="1835" type="line"/>
      <point x="90" y="1835" type="line"/>
    </contour>
  </outline>
</glyph>
<glyph name="I" format="1">
  <advance width="637"/>
  <unicode hex="0049"/>
  <outline>
    <contour>
      <point x="90" y="0" type="line"/>
      <point x="548" y="0" type="line"/>
      <point x="548" y="1835" type="line"/>
      <point x="90" y="1835" type="line"/>
    </contour>
  </outline>
</glyph>
<glyph name="J" format="1">
  <advance width="746"/>
  <unicode hex="004A"/>
  <outline>
    <contour>
      <point x="-4" y="-49" type="line"/>
      <point x="219" y="-49" type="line" smooth="yes"/>
      <point x="575" y="-49"/>
      <point x="659" y="122"/>
      <point x="659" y="446" type="curve"/>
      <point x="201" y="446" type="line"/>
      <point x="201" y="314"/>
      <point x="143" y="266"/>
      <point x="-4" y="269" type="curve"/>
    </contour>
    <component base="uc_part_stem" xOffset="111"/>
  </outline>
</glyph>
<glyph name="K" format="1">
  <advance width="1266"/>
  <unicode hex="004B"/>
  <outline>
    <contour>
      <point x="333" y="453" type="line"/>
      <point x="569" y="715" type="line"/>
      <point x="803" y="0" type="line"/>
      <point x="1276" y="0" type="line"/>
      <point x="907" y="996" type="line"/>
      <point x="1273" y="1806" type="line"/>
      <point x="822" y="1806" type="line"/>
      <point x="335" y="707" type="line"/>
    </contour>
    <component base="uc_main_stem"/>
  </outline>
</glyph>
<glyph name="L" format="1">
  <advance width="867"/>
  <unicode hex="004C"/>
  <outline>
    <contour>
      <point x="90" y="0" type="line"/>
      <point x="851" y="0" type="line"/>
      <point x="851" y="306" type="line"/>
      <point x="547" y="306" type="line"/>
      <point x="547" y="1835" type="line"/>
      <point x="90" y="1835" type="line"/>
    </contour>
  </outline>
</glyph>
<glyph name="M" format="1">
  <advance width="1532"/>
  <unicode hex="004D"/>
  <outline>
    <contour>
      <point x="90" y="0" type="line"/>
      <point x="418" y="0" type="line"/>
      <point x="429" y="1229" type="line"/>
      <point x="608" y="0" type="line"/>
      <point x="941" y="0" type="line"/>
      <point x="1026" y="560"/>
      <point x="1019" y="657"/>
      <point x="1104" y="1217" type="curve"/>
      <point x="1115" y="0" type="line"/>
      <point x="1442" y="0" type="line"/>
      <point x="1442" y="1835" type="line"/>
      <point x="918" y="1835" type="line"/>
      <point x="974" y="2121"/>
      <point x="706" y="475"/>
      <point x="766" y="760" type="curve"/>
      <point x="635" y="1835" type="line"/>
      <point x="90" y="1835" type="line"/>
    </contour>
  </outline>
</glyph>
<glyph name="N" format="1">
  <advance width="1106"/>
  <unicode hex="004E"/>
  <outline>
    <contour>
      <point x="88" y="0" type="line"/>
      <point x="442" y="0" type="line"/>
      <point x="442" y="767" type="line"/>
      <point x="736" y="0" type="line"/>
      <point x="1018" y="0" type="line"/>
      <point x="1018" y="1626" type="line"/>
      <point x="677" y="1626" type="line"/>
      <point x="677" y="962" type="line"/>
      <point x="381" y="1626" type="line"/>
      <point x="88" y="1626" type="line"/>
    </contour>
  </outline>
</glyph>
<glyph name="O" format="1">
  <advance width="1276"/>
  <unicode hex="004F"/>
  <outline>
    <contour>
      <point x="638" y="277" type="curve" smooth="yes"/>
      <point x="538" y="277"/>
      <point x="531" y="381"/>
      <point x="531" y="454" type="curve" smooth="yes"/>
      <point x="531" y="1343" type="line" smooth="yes"/>
      <point x="531" y="1416"/>
      <point x="538" y="1520"/>
      <point x="638" y="1520" type="curve" smooth="yes"/>
      <point x="738" y="1520"/>
      <point x="745" y="1416"/>
      <point x="745" y="1343" type="curve" smooth="yes"/>
      <point x="745" y="454" type="line" smooth="yes"/>
      <point x="745" y="381"/>
      <point x="738" y="277"/>
    </contour>
    <contour>
      <point x="638" y="-39" type="curve" smooth="yes"/>
      <point x="1068" y="-39"/>
      <point x="1202" y="214"/>
      <point x="1202" y="600" type="curve" smooth="yes"/>
      <point x="1202" y="1197" type="line" smooth="yes"/>
      <point x="1202" y="1583"/>
      <point x="1068" y="1836"/>
      <point x="638" y="1836" type="curve" smooth="yes"/>
      <point x="208" y="1836"/>
      <point x="74" y="1583"/>
      <point x="74" y="1197" type="curve" smooth="yes"/>
      <point x="74" y="600" type="line" smooth="yes"/>
      <point x="74" y="214"/>
      <point x="208" y="-39"/>
    </contour>
  </outline>
</glyph>
<glyph name="P" format="1">
  <advance width="1030"/>
  <unicode hex="0050"/>
  <outline>
    <contour>
      <point x="90" y="0" type="line"/>
      <point x="550" y="0" type="line"/>
      <point x="550" y="772" type="line"/>
      <point x="562" y="772"/>
      <point x="455" y="772"/>
      <point x="466" y="773" type="curve" smooth="yes"/>
      <point x="765" y="783"/>
      <point x="998" y="833"/>
      <point x="998" y="1304" type="curve" smooth="yes"/>
      <point x="998" y="1653"/>
      <point x="862" y="1835"/>
      <point x="531" y="1835" type="curve" smooth="yes"/>
      <point x="90" y="1835" type="line"/>
    </contour>
    <contour>
      <point x="441" y="1089" type="curve" smooth="yes"/>
      <point x="436" y="1089"/>
      <point x="557" y="1089"/>
      <point x="551" y="1089" type="curve"/>
      <point x="551" y="1515" type="line"/>
      <point x="555" y="1515"/>
      <point x="433" y="1515"/>
      <point x="437" y="1515" type="curve" smooth="yes"/>
      <point x="602" y="1511"/>
      <point x="569" y="1412"/>
      <point x="569" y="1315" type="curve" smooth="yes"/>
      <point x="569" y="1167"/>
      <point x="604" y="1095"/>
    </contour>
  </outline>
</glyph>
<glyph name="Q" format="1">
  <advance width="1151"/>
  <unicode hex="0051"/>
  <outline>
    <contour>
      <point x="1012" y="-282" type="curve"/>
      <point x="1012" y="-94" type="line"/>
      <point x="886" y="-33"/>
      <point x="666" y="124"/>
      <point x="644" y="157" type="curve"/>
      <point x="606" y="-20" type="line"/>
      <point x="696" y="-121"/>
      <point x="907" y="-242"/>
    </contour>
    <component base="O"/>
    <component base="O"/>
  </outline>
</glyph>
<glyph name="R" format="1">
  <advance width="1356"/>
  <unicode hex="0052"/>
  <outline>
    <contour>
      <point x="332" y="779" type="line"/>
      <point x="659" y="779" type="line"/>
      <point x="882" y="0" type="line"/>
      <point x="1328" y="0" type="line"/>
      <point x="1066" y="846" type="line"/>
      <point x="1254" y="944"/>
      <point x="1308" y="1089"/>
      <point x="1308" y="1319" type="curve" smooth="yes"/>
      <point x="1308" y="1718"/>
      <point x="1054" y="1806"/>
      <point x="684" y="1806" type="curve" smooth="yes"/>
      <point x="332.0" y="1806.0" type="line"/>
      <point x="332.0" y="1475.0" type="line"/>
      <point x="332.0" y="1475.0"/>
      <point x="687" y="1475"/>
      <point x="687" y="1475" type="curve" smooth="yes"/>
      <point x="815" y="1475"/>
      <point x="878" y="1429"/>
      <point x="878" y="1289" type="curve" smooth="yes"/>
      <point x="878" y="1153"/>
      <point x="833" y="1090"/>
      <point x="676" y="1090" type="curve" smooth="yes"/>
      <point x="332.0" y="1090.0" type="line"/>
    </contour>
    <component base="uc_main_stem"/>
  </outline>
</glyph>
<glyph name="S" format="1">
  <advance width="1099"/>
  <unicode hex="0053"/>
  <outline>
    <contour>
      <point x="578" y="-41" type="curve" smooth="yes"/>
      <point x="838" y="-41"/>
      <point x="1066" y="149"/>
      <point x="1066" y="409" type="curve" smooth="yes"/>
      <point x="1066" y="722"/>
      <point x="932" y="903"/>
      <point x="725" y="1075" type="curve" smooth="yes"/>
      <point x="679" y="1118"/>
      <point x="736" y="1039"/>
      <point x="682" y="1083" type="curve" smooth="yes"/>
      <point x="587" y="1154"/>
      <point x="485" y="1244"/>
      <point x="485" y="1403" type="curve" smooth="yes"/>
      <point x="485" y="1444"/>
      <point x="489" y="1529"/>
      <point x="549" y="1529" type="curve" smooth="yes"/>
      <point x="615" y="1529"/>
      <point x="601" y="1412"/>
      <point x="590" y="1360" type="curve"/>
      <point x="590" y="1320"/>
      <point x="585" y="1294"/>
      <point x="585" y="1261" type="curve"/>
      <point x="1070" y="1319" type="line"/>
      <point x="1070" y="1360"/>
      <point x="1073" y="1365"/>
      <point x="1073" y="1373" type="curve" smooth="yes"/>
      <point x="1093" y="1635"/>
      <point x="861" y="1877"/>
      <point x="592" y="1877" type="curve" smooth="yes"/>
      <point x="256" y="1877"/>
      <point x="35" y="1683"/>
      <point x="35" y="1358" type="curve" smooth="yes"/>
      <point x="35" y="1042"/>
      <point x="211" y="899"/>
      <point x="371" y="774" type="curve" smooth="yes"/>
      <point x="415" y="760" type="line" smooth="yes"/>
      <point x="511" y="686"/>
      <point x="620" y="548"/>
      <point x="620" y="396" type="curve" smooth="yes"/>
      <point x="620" y="356"/>
      <point x="627" y="307"/>
      <point x="572" y="307" type="curve" smooth="yes"/>
      <point x="481" y="307"/>
      <point x="498" y="496"/>
      <point x="507" y="644" type="curve"/>
      <point x="35" y="559" type="line"/>
      <point x="39" y="257"/>
      <point x="192" y="-41"/>
    </contour>
  </outline>
</glyph>
<glyph name="T" format="1">
  <advance width="986"/>
  <unicode hex="0054"/>
  <outline>
    <contour>
      <point x="269" y="0" type="line"/>
      <point x="726" y="0" type="line"/>
      <point x="726" y="1497" type="line"/>
      <point x="950" y="1497" type="line"/>
      <point x="950" y="1835" type="line"/>
      <point x="36" y="1835" type="line"/>
      <point x="36" y="1497" type="line"/>
      <point x="269" y="1497" type="line"/>
    </contour>
  </outline>
</glyph>
<glyph name="U" format="1">
  <advance width="1169"/>
  <unicode hex="0055"/>
  <outline>
    <contour>
      <point x="584" y="-35" type="curve" smooth="yes"/>
      <point x="971" y="-35"/>
      <point x="1092" y="193"/>
      <point x="1092" y="540" type="curve" smooth="yes"/>
      <point x="1092" y="1626" type="line"/>
      <point x="680" y="1626" type="line"/>
      <point x="680" y="409" type="line" smooth="yes"/>
      <point x="680" y="343"/>
      <point x="674" y="249"/>
      <point x="584" y="249" type="curve" smooth="yes"/>
      <point x="494" y="249"/>
      <point x="488" y="343"/>
      <point x="488" y="409" type="curve" smooth="yes"/>
      <point x="488" y="1626" type="line"/>
      <point x="77" y="1626" type="line"/>
      <point x="77" y="540" type="line" smooth="yes"/>
      <point x="77" y="193"/>
      <point x="197" y="-35"/>
    </contour>
  </outline>
</glyph>
<glyph name="V" format="1">
  <advance width="1086"/>
  <unicode hex="0056"/>
  <outline>
    <contour>
      <point x="326" y="0" type="line"/>
      <point x="718" y="0" type="line"/>
      <point x="1074" y="1835" type="line"/>
      <point x="656" y="1835" type="line"/>
      <point x="531" y="942" type="line"/>
      <point x="437" y="1835" type="line"/>
      <point x="12" y="1835" type="line"/>
    </contour>
  </outline>
</glyph>
<glyph name="W" format="1">
  <advance width="1485"/>
  <unicode hex="0057"/>
  <outline>
    <contour>
      <point x="252" y="0" type="line"/>
      <point x="623" y="0" type="line"/>
      <point x="734" y="1028" type="line"/>
      <point x="857" y="0" type="line"/>
      <point x="1228" y="0" type="line"/>
      <point x="1465" y="1835" type="line"/>
      <point x="1079" y="1835" type="line"/>
      <point x="1014" y="776" type="line"/>
      <point x="886" y="1835" type="line"/>
      <point x="586" y="1835" type="line"/>
      <point x="462" y="766" type="line"/>
      <point x="404" y="1835" type="line"/>
      <point x="20" y="1835" type="line"/>
    </contour>
  </outline>
</glyph>
<glyph name="X" format="1">
  <advance width="1132"/>
  <unicode hex="0058"/>
  <outline>
    <contour>
      <point x="20" y="0" type="line"/>
      <point x="446" y="0" type="line"/>
      <point x="562" y="541" type="line"/>
      <point x="679" y="0" type="line"/>
      <point x="1108" y="0" type="line"/>
      <point x="856" y="975" type="line"/>
      <point x="1114" y="1834" type="line"/>
      <point x="696" y="1834" type="line"/>
      <point x="563" y="1378" type="line"/>
      <point x="452" y="1834" type="line"/>
      <point x="17" y="1834" type="line"/>
      <point x="278" y="960" type="line"/>
    </contour>
  </outline>
</glyph>
<glyph name="Y" format="1">
  <advance width="979"/>
  <unicode hex="0059"/>
  <outline>
    <contour>
      <point x="289" y="0" type="line"/>
      <point x="685" y="0" type="line"/>
      <point x="685" y="560" type="line"/>
      <point x="980" y="1626" type="line"/>
      <point x="608" y="1626" type="line"/>
      <point x="503" y="1067" type="line"/>
      <point x="383" y="1626" type="line"/>
      <point x="-1" y="1626" type="line"/>
      <point x="289" y="560" type="line"/>
    </contour>
  </outline>
</glyph>
<glyph name="Z" format="1">
  <advance width="950"/>
  <unicode hex="005A"/>
  <outline>
    <contour>
      <point x="80" y="0" type="line"/>
      <point x="856" y="0" type="line"/>
      <point x="856" y="275" type="line"/>
      <point x="477" y="275" type="line"/>
      <point x="856" y="1385" type="line"/>
      <point x="856" y="1626" type="line"/>
      <point x="126" y="1626" type="line"/>
      <point x="126" y="1350" type="line"/>
      <point x="456" y="1350" type="line"/>
      <point x="80" y="239" type="line"/>
    </contour>
  </outline>
</glyph>
<glyph name="bracketleft" format="1">
  <advance width="904"/>
  <unicode hex="005B"/>
  <outline>
    <contour>
      <point x="159" y="-64" type="line"/>
      <point x="801" y="-64" type="line"/>
      <point x="801" y="128" type="line"/>
      <point x="506" y="128" type="line"/>
      <point x="506" y="1771" type="line"/>
      <point x="801" y="1771" type="line"/>
      <point x="801" y="1963" type="line"/>
      <point x="159" y="1963" type="line"/>
    </contour>
  </outline>
</glyph>
<glyph name="backslash" format="1">
  <advance width="625"/>
  <unicode hex="005C"/>
  <outline>
    <contour>
      <point x="144" y="0" type="line"/>
      <point x="496" y="0" type="line"/>
      <point x="454" y="1897" type="line"/>
      <point x="103" y="1897" type="line"/>
    </contour>
  </outline>
</glyph>
<glyph name="bracketright" format="1">
  <advance width="826"/>
  <unicode hex="005D"/>
  <outline>
    <contour>
      <point x="98" y="-64" type="line"/>
      <point x="690" y="-64" type="line"/>
      <point x="690" y="1890" type="line"/>
      <point x="98" y="1890" type="line"/>
      <point x="98" y="1741" type="line"/>
      <point x="388" y="1741" type="line"/>
      <point x="388" y="85" type="line"/>
      <point x="98" y="85" type="line"/>
    </contour>
  </outline>
</glyph>
<glyph name="asciicircum" format="1">
  <advance width="954"/>
  <unicode hex="005E"/>
  <outline>
    <contour>
      <point x="68" y="821" type="line"/>
      <point x="373" y="821" type="line"/>
      <point x="466" y="1148" type="line"/>
      <point x="561" y="821" type="line"/>
      <point x="868" y="821" type="line"/>
      <point x="606" y="1474" type="line"/>
      <point x="328" y="1474" type="line"/>
    </contour>
  </outline>
</glyph>
<glyph name="underscore" format="1">
  <advance width="792"/>
  <unicode hex="005F"/>
  <outline>
    <contour>
      <point x="-42" y="0" type="line"/>
      <point x="812" y="0" type="line"/>
      <point x="812" y="270" type="line"/>
      <point x="-42" y="270" type="line"/>
    </contour>
  </outline>
</glyph>
<glyph name="grave" format="1">
  <advance width="723"/>
  <unicode hex="0060"/>
  <outline>
    <contour>
      <point x="377" y="1423" type="line"/>
      <point x="647" y="1423" type="line"/>
      <point x="506" y="1885" type="line"/>
      <point x="79" y="1885" type="line"/>
    </contour>
  </outline>
</glyph>
<glyph name="a" format="1">
  <advance width="1045"/>
  <unicode hex="0061"/>
  <outline>
    <contour>
      <point x="340" y="-30" type="curve" smooth="yes"/>
      <point x="477" y="-30"/>
      <point x="571" y="-4"/>
      <point x="602" y="131" type="curve"/>
      <point x="641" y="0" type="line"/>
      <point x="1023" y="0" type="line"/>
      <point x="984" y="168"/>
      <point x="971" y="267"/>
      <point x="971" y="378" type="curve" smooth="yes"/>
      <point x="971" y="1018" type="line" smooth="yes"/>
      <point x="971" y="1236"/>
      <point x="797" y="1383"/>
      <point x="561" y="1383" type="curve" smooth="yes"/>
      <point x="229" y="1383"/>
      <point x="60" y="1204"/>
      <point x="60" y="880" type="curve" smooth="yes"/>
      <point x="60" y="873"/>
      <point x="60" y="867"/>
      <point x="60" y="860" type="curve"/>
      <point x="462" y="860" type="line"/>
      <point x="462" y="984" type="line" smooth="yes"/>
      <point x="462" y="1013"/>
      <point x="462" y="1061"/>
      <point x="511" y="1061" type="curve" smooth="yes"/>
      <point x="555" y="1061"/>
      <point x="555" y="1013"/>
      <point x="555" y="985" type="curve" smooth="yes"/>
      <point x="555" y="807" type="line"/>
      <point x="373" y="732"/>
      <point x="26" y="709"/>
      <point x="26" y="314" type="curve" smooth="yes"/>
      <point x="26" y="168"/>
      <point x="103" y="-30"/>
    </contour>
    <contour>
      <point x="466" y="281" type="curve" smooth="yes"/>
      <point x="420.771844114" y="281.0"/>
      <point x="387" y="325"/>
      <point x="387" y="388" type="curve" smooth="yes"/>
      <point x="387" y="466"/>
      <point x="433" y="536"/>
      <point x="556" y="594" type="curve"/>
      <point x="556" y="317" type="line"/>
      <point x="533" y="293"/>
      <point x="497" y="281"/>
    </contour>
  </outline>
</glyph>
<glyph name="b" format="1">
  <advance width="1055"/>
  <unicode hex="0062"/>
  <outline>
    <contour>
      <point x="724" y="-30" type="curve" smooth="yes"/>
      <point x="892" y="-30"/>
      <point x="988" y="139"/>
      <point x="988" y="120" type="curve" smooth="yes"/>
      <point x="988" y="1188" type="line" smooth="yes"/>
      <point x="988" y="1182"/>
      <point x="886" y="1383"/>
      <point x="714" y="1383" type="curve" smooth="yes"/>
      <point x="623" y="1383"/>
      <point x="549" y="1329"/>
      <point x="503" y="1275" type="curve"/>
      <point x="503" y="1835" type="line"/>
      <point x="84" y="1835" type="line"/>
      <point x="84" y="0" type="line"/>
      <point x="503" y="0" type="line"/>
      <point x="503" y="91" type="line"/>
      <point x="549" y="27"/>
      <point x="626" y="-30"/>
    </contour>
    <contour>
      <point x="554" y="287" type="curve" smooth="yes"/>
      <point x="523" y="287"/>
      <point x="503" y="346"/>
      <point x="503" y="350" type="curve"/>
      <point x="503" y="1005" type="line"/>
      <point x="503" y="1011"/>
      <point x="527" y="1065"/>
      <point x="552" y="1065" type="curve" smooth="yes"/>
      <point x="593" y="1065"/>
      <point x="569" y="1007"/>
      <point x="569" y="1150" type="curve" smooth="yes"/>
      <point x="569" y="220" type="line" smooth="yes"/>
      <point x="569" y="357"/>
      <point x="595" y="287"/>
    </contour>
  </outline>
</glyph>
<glyph name="c" format="1">
  <advance width="1068.0"/>
  <unicode hex="0063"/>
  <outline>
    <contour>
      <point x="531.0" y="-30.0" type="curve" smooth="yes"/>
      <point x="806.0" y="-30.0"/>
      <point x="1004" y="99"/>
      <point x="1004" y="362" type="curve" smooth="yes"/>
      <point x="1004" y="546" type="line"/>
      <point x="600" y="546" type="line"/>
      <point x="600" y="360" type="line" smooth="yes"/>
      <point x="600" y="274"/>
      <point x="567.0" y="262.0"/>
      <point x="531.0" y="262.0" type="curve" smooth="yes"/>
      <point x="498.0" y="262.0"/>
      <point x="468" y="287"/>
      <point x="468" y="369" type="curve" smooth="yes"/>
      <point x="468" y="983" type="line" smooth="yes"/>
      <point x="468" y="1065"/>
      <point x="498.0" y="1090.0"/>
      <point x="531.0" y="1090.0" type="curve" smooth="yes"/>
      <point x="567.0" y="1090.0"/>
      <point x="600" y="1078"/>
      <point x="600" y="992" type="curve" smooth="yes"/>
      <point x="600" y="829" type="line"/>
      <point x="1004" y="829" type="line"/>
      <point x="1004" y="990" type="line" smooth="yes"/>
      <point x="1004" y="1253"/>
      <point x="806.0" y="1382.0"/>
      <point x="531.0" y="1382.0" type="curve" smooth="yes"/>
      <point x="256.0" y="1382.0"/>
      <point x="52" y="1232"/>
      <point x="52" y="970" type="curve" smooth="yes"/>
      <point x="52" y="382" type="line" smooth="yes"/>
      <point x="52" y="120"/>
      <point x="256.0" y="-30.0"/>
    </contour>
  </outline>
</glyph>
<glyph name="e" format="1">
  <advance width="968.0"/>
  <unicode hex="0065"/>
  <outline>
    <contour>
      <point x="258.0" y="761" type="line"/>
      <point x="258.0" y="561" type="line"/>
      <point x="732.0" y="561" type="line"/>
      <point x="732.0" y="761" type="line"/>
    </contour>
    <contour>
      <point x="485.0" y="-27.0" type="curve" smooth="yes"/>
      <point x="733.0" y="-27.0"/>
      <point x="911.0" y="89.0"/>
      <point x="911.0" y="326.0" type="curve" smooth="yes"/>
      <point x="911.0" y="469" type="line"/>
      <point x="547.0" y="469" type="line"/>
      <point x="547.0" y="324.0" type="line" smooth="yes"/>
      <point x="547.0" y="247.0"/>
      <point x="517.0" y="236.0"/>
      <point x="485.0" y="236.0" type="curve" smooth="yes"/>
      <point x="455.0" y="236.0"/>
      <point x="428.0" y="258.0"/>
      <point x="428.0" y="332.0" type="curve" smooth="yes"/>
      <point x="428.0" y="885.0" type="line" smooth="yes"/>
      <point x="428.0" y="959.0"/>
      <point x="455.0" y="981.0"/>
      <point x="485.0" y="981.0" type="curve" smooth="yes"/>
      <point x="517.0" y="981.0"/>
      <point x="547.0" y="970.0"/>
      <point x="547.0" y="893.0" type="curve" smooth="yes"/>
      <point x="547.0" y="561" type="line"/>
      <point x="911.0" y="561" type="line"/>
      <point x="911.0" y="891.0" type="line" smooth="yes"/>
      <point x="911.0" y="1128.0"/>
      <point x="733.0" y="1244.0"/>
      <point x="485.0" y="1244.0" type="curve" smooth="yes"/>
      <point x="237.0" y="1244.0"/>
      <point x="54.0" y="1109.0"/>
      <point x="54.0" y="873.0" type="curve" smooth="yes"/>
      <point x="54.0" y="344.0" type="line" smooth="yes"/>
      <point x="54.0" y="108.0"/>
      <point x="237.0" y="-27.0"/>
    </contour>
  </outline>
</glyph>
<glyph name="f" format="1">
  <advance width="637"/>
  <unicode hex="0066"/>
  <outline>
    <contour>
      <point x="633" y="1339" type="line"/>
      <point x="615" y="1342"/>
      <point x="590" y="1348"/>
      <point x="566" y="1348" type="curve" smooth="yes"/>
      <point x="528" y="1348"/>
      <point x="493" y="1334"/>
      <point x="493" y="1278" type="curve" smooth="yes"/>
      <point x="493" y="1216" type="line"/>
      <point x="633" y="1216" type="line"/>
      <point x="633" y="958" type="line"/>
      <point x="493" y="958" type="line"/>
      <point x="493" y="0" type="line"/>
      <point x="121" y="0" type="line"/>
      <point x="121" y="958" type="line"/>
      <point x="18" y="958" type="line"/>
      <point x="18" y="1216" type="line"/>
      <point x="121" y="1216" type="line"/>
      <point x="121" y="1282" type="line" smooth="yes"/>
      <point x="121" y="1486"/>
      <point x="159" y="1625"/>
      <point x="469" y="1625" type="curve" smooth="yes"/>
      <point x="517" y="1625"/>
      <point x="571" y="1622"/>
      <point x="633" y="1615" type="curve"/>
    </contour>
  </outline>
</glyph>
<glyph name="g" format="1">
  <advance width="1037"/>
  <unicode hex="0067"/>
  <outline>
    <contour>
      <point x="549" y="-312" type="curve" smooth="yes"/>
      <point x="905.470588235" y="-312.0"/>
      <point x="1003" y="-167"/>
      <point x="1003" y="1" type="curve" smooth="yes"/>
      <point x="1003" y="158"/>
      <point x="925" y="241"/>
      <point x="677" y="287" type="curve" smooth="yes"/>
      <point x="412" y="337"/>
      <point x="333" y="342"/>
      <point x="333" y="377" type="curve" smooth="yes"/>
      <point x="333" y="425"/>
      <point x="392" y="456"/>
      <point x="442" y="493" type="curve"/>
      <point x="304" y="460" type="line"/>
      <point x="364" y="425"/>
      <point x="435" y="397"/>
      <point x="536" y="397" type="curve" smooth="yes"/>
      <point x="812" y="397"/>
      <point x="948" y="543"/>
      <point x="948" y="790" type="curve" smooth="yes"/>
      <point x="948" y="977"/>
      <point x="892" y="1026"/>
      <point x="855" y="1076" type="curve"/>
      <point x="843" y="1012" type="line"/>
      <point x="900" y="1051"/>
      <point x="1041" y="1149"/>
      <point x="1077" y="1146" type="curve"/>
      <point x="992" y="1313" type="line"/>
      <point x="945" y="1289" type="line"/>
      <point x="874" y="1250"/>
      <point x="803" y="1177"/>
      <point x="747" y="1110" type="curve"/>
      <point x="813" y="1110" type="line"/>
      <point x="776" y="1204"/>
      <point x="639" y="1246"/>
      <point x="504" y="1246" type="curve" smooth="yes"/>
      <point x="235" y="1246"/>
      <point x="61" y="1114"/>
      <point x="61" y="805" type="curve" smooth="yes"/>
      <point x="61" y="625"/>
      <point x="130" y="541"/>
      <point x="235" y="492" type="curve"/>
      <point x="235" y="588" type="line"/>
      <point x="193" y="536"/>
      <point x="32" y="325"/>
      <point x="32" y="286" type="curve" smooth="yes"/>
      <point x="32" y="222"/>
      <point x="122" y="173"/>
      <point x="277" y="117" type="curve"/>
      <point x="277" y="207" type="line"/>
      <point x="229" y="154"/>
      <point x="30" y="57"/>
      <point x="30" y="-70" type="curve" smooth="yes"/>
      <point x="30" y="-295"/>
      <point x="375" y="-312"/>
    </contour>
    <contour>
      <point x="543" y="-95" type="curve" smooth="yes"/>
      <point x="428" y="-95"/>
      <point x="383" y="-66"/>
      <point x="383" y="-10" type="curve"/>
      <point x="383" y="65"/>
      <point x="475" y="160"/>
      <point x="472" y="159" type="curve"/>
      <point x="358" y="98" type="line"/>
      <point x="540" y="61" type="line" smooth="yes"/>
      <point x="690" y="32"/>
      <point x="695" y="12"/>
      <point x="695" y="-34" type="curve"/>
      <point x="695" y="-79"/>
      <point x="646" y="-95"/>
    </contour>
    <contour>
      <point x="513" y="621" type="curve" smooth="yes"/>
      <point x="445" y="621"/>
      <point x="439" y="691"/>
      <point x="439" y="827" type="curve" smooth="yes"/>
      <point x="439" y="956"/>
      <point x="435" y="1032"/>
      <point x="511" y="1032" type="curve" smooth="yes"/>
      <point x="587" y="1032"/>
      <point x="590" y="977"/>
      <point x="590" y="827" type="curve" smooth="yes"/>
      <point x="590" y="681"/>
      <point x="581" y="621"/>
    </contour>
  </outline>
</glyph>
<glyph name="h" format="1">
  <advance width="1069"/>
  <unicode hex="0068"/>
  <outline>
    <contour>
      <point x="83" y="0" type="line"/>
      <point x="502" y="0" type="line"/>
      <point x="502" y="1011" type="line"/>
      <point x="509" y="1015"/>
      <point x="530" y="1065"/>
      <point x="564" y="1065" type="curve" smooth="yes"/>
      <point x="608" y="1065"/>
      <point x="574" y="976"/>
      <point x="574" y="976" type="curve" smooth="yes"/>
      <point x="574" y="0" type="line"/>
      <point x="993" y="0" type="line"/>
      <point x="993" y="1099" type="line" smooth="yes"/>
      <point x="993" y="1203"/>
      <point x="919" y="1383"/>
      <point x="760" y="1383" type="curve" smooth="yes"/>
      <point x="654" y="1383"/>
      <point x="563" y="1325"/>
      <point x="502" y="1268" type="curve"/>
      <point x="502" y="1835" type="line"/>
      <point x="83" y="1835" type="line"/>
    </contour>
  </outline>
</glyph>
<glyph name="i" format="1">
  <advance width="525"/>
  <unicode hex="0069"/>
  <outline>
    <contour>
      <point x="75" y="1391" type="line"/>
      <point x="449" y="1391" type="line"/>
      <point x="449" y="1626" type="line"/>
      <point x="75" y="1626" type="line"/>
    </contour>
    <component base="lc_xheight_stem"/>
  </outline>
</glyph>
<glyph name="j" format="1">
  <advance width="602"/>
  <unicode hex="006A"/>
  <outline>
    <contour>
      <point x="102" y="1546" type="line"/>
      <point x="518" y="1546" type="line"/>
      <point x="518" y="1834" type="line"/>
      <point x="102" y="1834" type="line"/>
    </contour>
    <contour>
      <point x="172" y="-437" type="curve" smooth="yes"/>
      <point x="404" y="-437"/>
      <point x="518" y="-281"/>
      <point x="518" y="-72" type="curve" smooth="yes"/>
      <point x="518" y="180" type="line"/>
      <point x="102" y="180" type="line"/>
      <point x="102" y="-21" type="line" smooth="yes"/>
      <point x="102" y="-95"/>
      <point x="64" y="-115"/>
      <point x="16" y="-115" type="curve" smooth="yes"/>
      <point x="-5" y="-115"/>
      <point x="-28" y="-111"/>
      <point x="-50" y="-106" type="curve"/>
      <point x="-50" y="-402" type="line"/>
      <point x="20" y="-421"/>
      <point x="92" y="-437"/>
    </contour>
    <component base="lc_xheight_stem" xOffset="19"/>
  </outline>
</glyph>
<glyph name="k" format="1">
  <advance width="1047"/>
  <unicode hex="006B"/>
  <outline>
    <contour>
      <point x="90" y="0" type="line"/>
      <point x="509" y="0" type="line"/>
      <point x="509" y="522" type="line"/>
      <point x="508" y="551" type="line"/>
      <point x="653" y="0" type="line"/>
      <point x="1086" y="0" type="line"/>
      <point x="751" y="758" type="line"/>
      <point x="1087" y="1352" type="line"/>
      <point x="641" y="1352" type="line"/>
      <point x="509" y="950" type="line"/>
      <point x="509" y="1835" type="line"/>
      <point x="90" y="1835" type="line"/>
    </contour>
  </outline>
</glyph>
<glyph name="l" format="1">
  <advance width="529"/>
  <unicode hex="006C"/>
  <outline>
    <contour>
      <point x="76" y="0" type="line"/>
      <point x="453" y="0" type="line"/>
      <point x="453" y="1652" type="line"/>
      <point x="76" y="1652" type="line"/>
    </contour>
  </outline>
</glyph>
<glyph name="n" format="1">
  <advance width="1069"/>
  <unicode hex="006E"/>
  <outline>
    <contour>
      <point x="83" y="0" type="line"/>
      <point x="502" y="0" type="line"/>
      <point x="502" y="1020" type="line"/>
      <point x="503" y="1019"/>
      <point x="521" y="1065"/>
      <point x="550" y="1065" type="curve" smooth="yes"/>
      <point x="600" y="1065"/>
      <point x="574" y="999"/>
      <point x="574" y="1015" type="curve" smooth="yes"/>
      <point x="574" y="0" type="line"/>
      <point x="993" y="0" type="line"/>
      <point x="993" y="1101" type="line" smooth="yes"/>
      <point x="993" y="1205"/>
      <point x="920" y="1382"/>
      <point x="759" y="1382" type="curve" smooth="yes"/>
      <point x="655" y="1382"/>
      <point x="562" y="1327"/>
      <point x="502" y="1269" type="curve"/>
      <point x="502" y="1352" type="line"/>
      <point x="83" y="1352" type="line"/>
    </contour>
  </outline>
</glyph>
<glyph name="o" format="1">
  <advance width="1029"/>
  <unicode hex="006F"/>
  <outline>
    <contour>
      <point x="511" y="291" type="curve" smooth="yes"/>
      <point x="476" y="291"/>
      <point x="485" y="327"/>
      <point x="485" y="233" type="curve" smooth="yes"/>
      <point x="485" y="1135" type="line" smooth="yes"/>
      <point x="485" y="1040"/>
      <point x="488" y="1061"/>
      <point x="511" y="1061" type="curve" smooth="yes"/>
      <point x="537" y="1061"/>
      <point x="548" y="1044"/>
      <point x="548" y="1135" type="curve" smooth="yes"/>
      <point x="548" y="233" type="line" smooth="yes"/>
      <point x="548" y="325"/>
      <point x="549" y="291"/>
    </contour>
    <contour>
      <point x="511" y="-30" type="curve" smooth="yes"/>
      <point x="685" y="-30"/>
      <point x="963" y="48"/>
      <point x="963" y="238" type="curve" smooth="yes"/>
      <point x="963" y="1010" type="line" smooth="yes"/>
      <point x="963" y="1273"/>
      <point x="786" y="1382"/>
      <point x="511" y="1382" type="curve" smooth="yes"/>
      <point x="236" y="1382"/>
      <point x="66" y="1272"/>
      <point x="66" y="1010" type="curve" smooth="yes"/>
      <point x="66" y="238" type="line" smooth="yes"/>
      <point x="66" y="50"/>
      <point x="338" y="-30"/>
    </contour>
  </outline>
</glyph>
<glyph name="q" format="1">
  <advance width="1026"/>
  <unicode hex="0071"/>
  <outline>
    <contour>
      <point x="525" y="-365" type="line"/>
      <point x="944" y="-365" type="line"/>
      <point x="944" y="1352" type="line"/>
      <point x="525" y="1352" type="line"/>
      <point x="525" y="1262" type="line"/>
      <point x="485" y="1326"/>
      <point x="420" y="1383"/>
      <point x="333" y="1383" type="curve" smooth="yes"/>
      <point x="164" y="1383"/>
      <point x="71" y="1215"/>
      <point x="71" y="1234" type="curve" smooth="yes"/>
      <point x="71" y="122" type="line" smooth="yes"/>
      <point x="71" y="150"/>
      <point x="164" y="-30"/>
      <point x="328" y="-30" type="curve" smooth="yes"/>
      <point x="413" y="-30"/>
      <point x="482" y="25"/>
      <point x="525" y="78" type="curve"/>
    </contour>
    <contour>
      <point x="491" y="287" type="curve" smooth="yes"/>
      <point x="462" y="287"/>
      <point x="488" y="343"/>
      <point x="488" y="200" type="curve" smooth="yes"/>
      <point x="488" y="1147" type="line" smooth="yes"/>
      <point x="488" y="1004"/>
      <point x="460" y="1065"/>
      <point x="489" y="1065" type="curve" smooth="yes"/>
      <point x="514" y="1065"/>
      <point x="528" y="1016"/>
      <point x="525" y="1016" type="curve"/>
      <point x="525" y="344" type="line"/>
      <point x="527" y="338"/>
      <point x="510" y="287"/>
    </contour>
  </outline>
</glyph>
<glyph name="r" format="1">
  <advance width="752"/>
  <unicode hex="0072"/>
  <outline>
    <contour>
      <point x="261" y="191" type="line"/>
      <point x="351.086244464" y="628.838521481"/>
      <point x="475.890336464" y="895.902765892"/>
      <point x="706.308189697" y="912.207599832" type="curve" smooth="yes"/>
      <point x="713.760840204" y="912.734964475"/>
      <point x="721.323977351" y="913.0"/>
      <point x="729" y="913" type="curve"/>
      <point x="729" y="1221" type="line"/>
      <point x="711" y="1228"/>
      <point x="694" y="1231"/>
      <point x="678" y="1231" type="curve" smooth="yes"/>
      <point x="469" y="1231"/>
      <point x="327" y="705"/>
      <point x="261" y="277" type="curve"/>
    </contour>
    <component base="lc_xheight_stem" xOffset="1"/>
  </outline>
</glyph>
<glyph name="s" format="1">
  <advance width="865"/>
  <unicode hex="0073"/>
  <outline>
    <contour>
      <point x="410" y="1246" type="curve" smooth="yes"/>
      <point x="212" y="1246"/>
      <point x="36" y="1095"/>
      <point x="36" y="889" type="curve"/>
      <point x="35" y="756"/>
      <point x="153" y="629"/>
      <point x="260" y="534" type="curve" smooth="yes"/>
      <point x="305" y="494" type="line" smooth="yes"/>
      <point x="384" y="424"/>
      <point x="491" y="347"/>
      <point x="492" y="297" type="curve" smooth="yes"/>
      <point x="493" y="259"/>
      <point x="469" y="234"/>
      <point x="440" y="234" type="curve" smooth="yes"/>
      <point x="366" y="234"/>
      <point x="324" y="342"/>
      <point x="293" y="418" type="curve"/>
      <point x="18" y="327" type="line"/>
      <point x="81" y="96"/>
      <point x="227" y="-12"/>
      <point x="417" y="-26" type="curve" smooth="yes"/>
      <point x="623" y="-41"/>
      <point x="845" y="85"/>
      <point x="845" y="317" type="curve" smooth="yes"/>
      <point x="845" y="477"/>
      <point x="722" y="579"/>
      <point x="614" y="676" type="curve" smooth="yes"/>
      <point x="576" y="710" type="line" smooth="yes"/>
      <point x="480" y="796"/>
      <point x="363" y="861"/>
      <point x="373" y="923" type="curve" smooth="yes"/>
      <point x="375" y="937"/>
      <point x="385" y="973"/>
      <point x="432" y="969" type="curve" smooth="yes"/>
      <point x="493" y="964"/>
      <point x="532" y="873"/>
      <point x="556" y="806" type="curve"/>
      <point x="815" y="929" type="line"/>
      <point x="760" y="1118"/>
      <point x="608" y="1246"/>
    </contour>
  </outline>
</glyph>
<glyph name="t" format="1">
  <advance width="664"/>
  <unicode hex="0074"/>
  <outline>
    <contour>
      <point x="414" y="-13" type="curve" smooth="yes"/>
      <point x="485" y="-13"/>
      <point x="573" y="-14"/>
      <point x="639" y="7" type="curve"/>
      <point x="639" y="304" type="line"/>
      <point x="607" y="300"/>
      <point x="578" y="300"/>
      <point x="546" y="300" type="curve" smooth="yes"/>
      <point x="493" y="300"/>
      <point x="469" y="321"/>
      <point x="469" y="361" type="curve" smooth="yes"/>
      <point x="469" y="958" type="line"/>
      <point x="603" y="958" type="line"/>
      <point x="603" y="1217" type="line"/>
      <point x="469" y="1217" type="line"/>
      <point x="469" y="1605" type="line"/>
      <point x="92" y="1605" type="line"/>
      <point x="92" y="1217" type="line"/>
      <point x="2" y="1217" type="line"/>
      <point x="2" y="958" type="line"/>
      <point x="92" y="958" type="line"/>
      <point x="92" y="469" type="line" smooth="yes"/>
      <point x="92" y="234"/>
      <point x="122" y="-13"/>
    </contour>
  </outline>
</glyph>
<glyph name="u" format="1">
  <advance width="1056"/>
  <unicode hex="0075"/>
  <outline>
    <contour>
      <point x="310" y="-30" type="curve" smooth="yes"/>
      <point x="413" y="-30"/>
      <point x="507" y="45"/>
      <point x="568" y="113" type="curve"/>
      <point x="568" y="0" type="line"/>
      <point x="988" y="0" type="line"/>
      <point x="988" y="1352" type="line"/>
      <point x="568" y="1352" type="line"/>
      <point x="568" y="340" type="line"/>
      <point x="565" y="336"/>
      <point x="541" y="287"/>
      <point x="505" y="287" type="curve" smooth="yes"/>
      <point x="469" y="287"/>
      <point x="494" y="373"/>
      <point x="494" y="371" type="curve" smooth="yes"/>
      <point x="494" y="1352" type="line"/>
      <point x="76" y="1352" type="line"/>
      <point x="76" y="251" type="line" smooth="yes"/>
      <point x="76" y="147"/>
      <point x="147" y="-30"/>
    </contour>
  </outline>
</glyph>
<glyph name="v" format="1">
  <advance width="956"/>
  <unicode hex="0076"/>
  <outline>
    <contour>
      <point x="275" y="0" type="line"/>
      <point x="689" y="0" type="line"/>
      <point x="951" y="1352" type="line"/>
      <point x="559" y="1352" type="line"/>
      <point x="487" y="551" type="line"/>
      <point x="396" y="1352" type="line"/>
      <point x="5" y="1352" type="line"/>
    </contour>
  </outline>
</glyph>
<glyph name="w" format="1">
  <advance width="1189"/>
  <unicode hex="0077"/>
  <outline>
    <contour>
      <point x="187" y="0" type="line"/>
      <point x="500" y="0" type="line"/>
      <point x="598" y="608" type="line"/>
      <point x="680" y="0" type="line"/>
      <point x="999" y="0" type="line"/>
      <point x="1172" y="1217" type="line"/>
      <point x="886" y="1217" type="line"/>
      <point x="795" y="557" type="line"/>
      <point x="741" y="1217" type="line"/>
      <point x="475" y="1217" type="line"/>
      <point x="403" y="578" type="line"/>
      <point x="330" y="1217" type="line"/>
      <point x="18" y="1217" type="line"/>
    </contour>
  </outline>
</glyph>
<glyph name="x" format="1">
  <advance width="883"/>
  <unicode hex="0078"/>
  <outline>
    <contour>
      <point x="520" y="0" type="line"/>
      <point x="901" y="0" type="line"/>
      <point x="377" y="1216" type="line"/>
      <point x="-1" y="1216" type="line"/>
    </contour>
    <contour>
      <point x="-18" y="0" type="line"/>
      <point x="283" y="0" type="line"/>
      <point x="434" y="433" type="line"/>
      <point x="613" y="544" type="line"/>
      <point x="858" y="1216" type="line"/>
      <point x="588" y="1216" type="line"/>
      <point x="424" y="759" type="line"/>
      <point x="251" y="714" type="line"/>
    </contour>
  </outline>
</glyph>
<glyph name="y" format="1">
  <advance width="914"/>
  <unicode hex="0079"/>
  <outline>
    <contour>
      <point x="91" y="-316" type="line"/>
      <point x="152" y="-316" type="line"/>
      <point x="370" y="-319"/>
      <point x="577" y="-280"/>
      <point x="630" y="-14" type="curve"/>
      <point x="908" y="1352" type="line"/>
      <point x="530" y="1352" type="line"/>
      <point x="468" y="744" type="line"/>
      <point x="385" y="1352" type="line"/>
      <point x="10" y="1352" type="line"/>
      <point x="53" y="1147"/>
      <point x="189" y="783"/>
      <point x="246" y="297" type="curve"/>
      <point x="250" y="255"/>
      <point x="253" y="223"/>
      <point x="253" y="189" type="curve" smooth="yes"/>
      <point x="253" y="29"/>
      <point x="214" y="-35"/>
      <point x="91" y="-35" type="curve"/>
    </contour>
  </outline>
</glyph>
<glyph name="z" format="1">
  <advance width="778"/>
  <unicode hex="007A"/>
  <outline>
    <contour>
      <point x="55" y="0" type="line"/>
      <point x="731" y="0" type="line"/>
      <point x="731" y="271" type="line"/>
      <point x="442" y="271" type="line"/>
      <point x="729" y="985" type="line"/>
      <point x="729" y="1217" type="line"/>
      <point x="103" y="1217" type="line"/>
      <point x="103" y="947" type="line"/>
      <point x="334" y="947" type="line"/>
      <point x="55" y="238" type="line"/>
    </contour>
  </outline>
</glyph>
<glyph name="braceleft" format="1">
  <advance width="868"/>
  <unicode hex="007B"/>
  <outline>
    <contour>
      <point x="757" y="-67" type="curve"/>
      <point x="757" y="203" type="line"/>
      <point x="553" y="201"/>
      <point x="581" y="400"/>
      <point x="565" y="544" type="curve" smooth="yes"/>
      <point x="554" y="703"/>
      <point x="528" y="866"/>
      <point x="385" y="966" type="curve"/>
      <point x="538" y="1072"/>
      <point x="568" y="1351"/>
      <point x="568" y="1498" type="curve" smooth="yes"/>
      <point x="568" y="1665"/>
      <point x="570" y="1694"/>
      <point x="757" y="1692" type="curve"/>
      <point x="757" y="1962" type="line"/>
      <point x="384" y="1962"/>
      <point x="215" y="1969"/>
      <point x="215" y="1524" type="curve" smooth="yes"/>
      <point x="215" y="1436"/>
      <point x="259" y="1111"/>
      <point x="85" y="1113" type="curve"/>
      <point x="85" y="782" type="line"/>
      <point x="258" y="785"/>
      <point x="215" y="638"/>
      <point x="215" y="498" type="curve" smooth="yes"/>
      <point x="215" y="125"/>
      <point x="326" y="-67"/>
    </contour>
  </outline>
</glyph>
<glyph name="bar" format="1">
  <advance width="435"/>
  <unicode hex="007C"/>
  <outline>
    <contour>
      <point x="127" y="-131" type="line"/>
      <point x="395" y="-131" type="line"/>
      <point x="395" y="2071" type="line"/>
      <point x="127" y="2071" type="line"/>
    </contour>
  </outline>
</glyph>
<glyph name="braceright" format="1">
  <advance width="864"/>
  <unicode hex="007D"/>
  <outline>
    <contour>
      <point x="90" y="-67" type="line"/>
      <point x="522" y="-67"/>
      <point x="633" y="124"/>
      <point x="633" y="498" type="curve" smooth="yes"/>
      <point x="633" y="637"/>
      <point x="591" y="785"/>
      <point x="762" y="782" type="curve"/>
      <point x="762" y="1113" type="line"/>
      <point x="589" y="1111"/>
      <point x="633" y="1480"/>
      <point x="633" y="1581" type="curve" smooth="yes"/>
      <point x="633" y="1980"/>
      <point x="463" y="1962"/>
      <point x="90" y="1962" type="curve"/>
      <point x="90" y="1692" type="line"/>
      <point x="277" y="1694"/>
      <point x="279" y="1680"/>
      <point x="279" y="1556" type="curve" smooth="yes"/>
      <point x="279" y="1390"/>
      <point x="312" y="1064"/>
      <point x="462" y="948" type="curve"/>
      <point x="307" y="846"/>
      <point x="290" y="671"/>
      <point x="280" y="507" type="curve" smooth="yes"/>
      <point x="269" y="377"/>
      <point x="280" y="201"/>
      <point x="90" y="203" type="curve"/>
    </contour>
  </outline>
</glyph>
<glyph name="asciitilde" format="1">
  <advance width="1122"/>
  <unicode hex="007E"/>
  <outline>
    <contour>
      <point x="679" y="767" type="curve" smooth="yes"/>
      <point x="840" y="767"/>
      <point x="942" y="901"/>
      <point x="939" y="1125" type="curve"/>
      <point x="730" y="1125" type="line"/>
      <point x="733" y="1113"/>
      <point x="739" y="1056"/>
      <point x="705" y="1056" type="curve" smooth="yes"/>
      <point x="639" y="1056"/>
      <point x="537" y="1147"/>
      <point x="416" y="1147" type="curve" smooth="yes"/>
      <point x="249" y="1147"/>
      <point x="155" y="1002"/>
      <point x="157" y="791" type="curve"/>
      <point x="368" y="791" type="line"/>
      <point x="365" y="802"/>
      <point x="358" y="859"/>
      <point x="390" y="859" type="curve" smooth="yes"/>
      <point x="440" y="859"/>
      <point x="569" y="767"/>
    </contour>
  </outline>
</glyph>
<glyph name="exclamdown" format="1">
  <advance width="564"/>
  <unicode hex="00A1"/>
  <outline>
    <contour>
      <point x="79" y="-563" type="line"/>
      <point x="488" y="-563" type="line"/>
      <point x="373" y="777" type="line"/>
      <point x="230" y="777" type="line"/>
    </contour>
    <contour>
      <point x="113" y="894" type="line"/>
      <point x="497" y="894" type="line"/>
      <point x="497" y="1273" type="line"/>
      <point x="113" y="1273" type="line"/>
    </contour>
  </outline>
</glyph>
<glyph name="cent" format="1">
  <advance width="1055"/>
  <unicode hex="00A2"/>
  <outline>
    <contour>
      <point x="481" y="-417" type="line"/>
      <point x="582" y="-417" type="line"/>
      <point x="582" y="-59" type="line"/>
      <point x="762" y="-36"/>
      <point x="973" y="84"/>
      <point x="969" y="286" type="curve" smooth="yes"/>
      <point x="969" y="284"/>
      <point x="969" y="465"/>
      <point x="969" y="463" type="curve"/>
      <point x="557" y="463" type="line"/>
      <point x="558" y="352"/>
      <point x="560" y="336"/>
      <point x="560" y="319" type="curve" smooth="yes"/>
      <point x="563" y="257"/>
      <point x="545" y="277"/>
      <point x="527" y="277" type="curve" smooth="yes"/>
      <point x="510" y="277"/>
      <point x="511" y="312"/>
      <point x="511" y="235" type="curve" smooth="yes"/>
      <point x="511" y="940" type="line"/>
      <point x="509" y="861"/>
      <point x="522" y="883"/>
      <point x="526" y="883" type="curve" smooth="yes"/>
      <point x="552" y="883"/>
      <point x="562" y="878"/>
      <point x="558" y="799" type="curve"/>
      <point x="557" y="698" type="line"/>
      <point x="969" y="698" type="line"/>
      <point x="969" y="696"/>
      <point x="969" y="775"/>
      <point x="969" y="773" type="curve" smooth="yes"/>
      <point x="975" y="1045"/>
      <point x="844" y="1204"/>
      <point x="582" y="1225" type="curve"/>
      <point x="582" y="1579" type="line"/>
      <point x="481" y="1579" type="line"/>
      <point x="481" y="1224" type="line"/>
      <point x="249" y="1210"/>
      <point x="92" y="1093"/>
      <point x="92" y="839" type="curve" smooth="yes"/>
      <point x="92" y="225" type="line" smooth="yes"/>
      <point x="92" y="44"/>
      <point x="329" y="-43"/>
      <point x="481" y="-59" type="curve"/>
    </contour>
  </outline>
</glyph>
<glyph name="sterling" format="1">
  <advance width="1269"/>
  <unicode hex="00A3"/>
  <outline>
    <contour>
      <point x="97" y="0" type="line"/>
      <point x="1137" y="0" type="line"/>
      <point x="1137" y="358" type="line"/>
      <point x="673" y="358" type="line"/>
      <point x="673" y="706" type="line"/>
      <point x="899" y="706" type="line"/>
      <point x="899" y="1028" type="line"/>
      <point x="673" y="1028" type="line"/>
      <point x="673" y="1222" type="line" smooth="yes"/>
      <point x="673" y="1334"/>
      <point x="684" y="1527"/>
      <point x="702" y="1523" type="curve" smooth="yes"/>
      <point x="733" y="1519"/>
      <point x="733" y="1337"/>
      <point x="733" y="1288" type="curve"/>
      <point x="1151" y="1288" type="line"/>
      <point x="1151" y="1620"/>
      <point x="1100" y="1873"/>
      <point x="699" y="1873" type="curve" smooth="yes"/>
      <point x="279" y="1873"/>
      <point x="215" y="1562"/>
      <point x="215" y="1207" type="curve" smooth="yes"/>
      <point x="215" y="1031" type="line"/>
      <point x="97" y="1031" type="line"/>
      <point x="97" y="706" type="line"/>
      <point x="215" y="706" type="line"/>
      <point x="215" y="302" type="line"/>
      <point x="97" y="239" type="line"/>
    </contour>
  </outline>
</glyph>
<glyph name="currency" format="1">
  <advance width="958"/>
  <unicode hex="00A4"/>
  <outline>
    <contour>
      <point x="184" y="574" type="line"/>
      <point x="266" y="636" type="line"/>
      <point x="319" y="599"/>
      <point x="387" y="577"/>
      <point x="479" y="577" type="curve" smooth="yes"/>
      <point x="568" y="577"/>
      <point x="635" y="598"/>
      <point x="687" y="633" type="curve"/>
      <point x="765" y="574" type="line"/>
      <point x="860" y="675" type="line"/>
      <point x="781" y="733" type="line"/>
      <point x="805" y="790"/>
      <point x="814" y="849"/>
      <point x="814" y="911" type="curve" smooth="yes"/>
      <point x="814" y="972"/>
      <point x="804" y="1031"/>
      <point x="779" y="1086" type="curve"/>
      <point x="860" y="1148" type="line"/>
      <point x="765" y="1250" type="line"/>
      <point x="685" y="1188" type="line"/>
      <point x="633" y="1222"/>
      <point x="567" y="1243"/>
      <point x="479" y="1243" type="curve" smooth="yes"/>
      <point x="388" y="1243"/>
      <point x="319" y="1220"/>
      <point x="267" y="1184" type="curve"/>
      <point x="184" y="1250" type="line"/>
      <point x="89" y="1148" type="line"/>
      <point x="172" y="1084" type="line"/>
      <point x="150" y="1027"/>
      <point x="143" y="969"/>
      <point x="143" y="911" type="curve" smooth="yes"/>
      <point x="143" y="852"/>
      <point x="149" y="794"/>
      <point x="169" y="738" type="curve"/>
      <point x="89" y="675" type="line"/>
    </contour>
    <contour>
      <point x="479" y="760" type="curve"/>
      <point x="400" y="758"/>
      <point x="351" y="832"/>
      <point x="351" y="911" type="curve" smooth="yes"/>
      <point x="351" y="987"/>
      <point x="385" y="1061"/>
      <point x="479" y="1058" type="curve"/>
      <point x="573" y="1061"/>
      <point x="607" y="985"/>
      <point x="607" y="910" type="curve" smooth="yes"/>
      <point x="607" y="834"/>
      <point x="572" y="758"/>
    </contour>
  </outline>
</glyph>
<glyph name="yen" format="1">
  <advance width="1177"/>
  <unicode hex="00A5"/>
  <outline>
    <contour>
      <point x="402" y="0" type="line"/>
      <point x="748" y="0" type="line"/>
      <point x="748" y="274" type="line"/>
      <point x="937" y="274" type="line"/>
      <point x="937" y="520" type="line"/>
      <point x="748" y="520" type="line"/>
      <point x="748" y="576" type="line"/>
      <point x="937" y="576" type="line"/>
      <point x="937" y="819" type="line"/>
      <point x="801" y="819" type="line"/>
      <point x="1082" y="1897" type="line"/>
      <point x="729" y="1897" type="line"/>
      <point x="783" y="2093"/>
      <point x="521" y="857"/>
      <point x="575" y="1053" type="curve"/>
      <point x="419" y="1897" type="line"/>
      <point x="69" y="1897" type="line"/>
      <point x="210" y="1374"/>
      <point x="201" y="1340"/>
      <point x="342" y="819" type="curve"/>
      <point x="214" y="819" type="line"/>
      <point x="214" y="576" type="line"/>
      <point x="402" y="576" type="line"/>
      <point x="402" y="520" type="line"/>
      <point x="214" y="520" type="line"/>
      <point x="214" y="274" type="line"/>
      <point x="402" y="274" type="line"/>
    </contour>
  </outline>
</glyph>
<glyph name="brokenbar" format="1">
  <advance width="458"/>
  <unicode hex="00A6"/>
  <outline>
    <contour>
      <point x="81" y="-15" type="line"/>
      <point x="360" y="-15" type="line"/>
      <point x="360" y="700" type="line"/>
      <point x="81" y="700" type="line"/>
    </contour>
    <contour>
      <point x="81" y="905" type="line"/>
      <point x="360" y="905" type="line"/>
      <point x="360" y="1620" type="line"/>
      <point x="81" y="1620" type="line"/>
    </contour>
  </outline>
</glyph>
<glyph name="section" format="1">
  <advance width="1113"/>
  <unicode hex="00A7"/>
  <outline>
    <contour>
      <point x="546" y="-14" type="curve" smooth="yes"/>
      <point x="792" y="-14"/>
      <point x="990" y="107"/>
      <point x="990" y="373" type="curve"/>
      <point x="991" y="488"/>
      <point x="912" y="593"/>
      <point x="822" y="664" type="curve"/>
      <point x="931" y="737"/>
      <point x="975" y="850"/>
      <point x="975" y="971" type="curve"/>
      <point x="976" y="1113"/>
      <point x="890" y="1223"/>
      <point x="772" y="1307" type="curve" smooth="yes"/>
      <point x="717" y="1348"/>
      <point x="702" y="1349"/>
      <point x="645" y="1384" type="curve" smooth="yes"/>
      <point x="584" y="1412"/>
      <point x="450" y="1423"/>
      <point x="450" y="1527" type="curve" smooth="yes"/>
      <point x="450" y="1590"/>
      <point x="487" y="1621"/>
      <point x="551" y="1621" type="curve" smooth="yes"/>
      <point x="643" y="1621"/>
      <point x="703" y="1512"/>
      <point x="739" y="1443" type="curve"/>
      <point x="998" y="1530" type="line"/>
      <point x="945" y="1756"/>
      <point x="793" y="1922"/>
      <point x="548" y="1922" type="curve" smooth="yes"/>
      <point x="303" y="1922"/>
      <point x="99" y="1798"/>
      <point x="99" y="1533" type="curve" smooth="yes"/>
      <point x="99" y="1410"/>
      <point x="195" y="1333"/>
      <point x="291" y="1282" type="curve"/>
      <point x="168" y="1211"/>
      <point x="115" y="1085"/>
      <point x="115" y="956" type="curve" smooth="yes"/>
      <point x="115" y="821"/>
      <point x="167" y="750"/>
      <point x="246" y="705" type="curve" smooth="yes"/>
      <point x="293" y="674"/>
      <point x="305" y="679"/>
      <point x="356" y="652" type="curve" smooth="yes"/>
      <point x="499" y="589"/>
      <point x="639" y="548"/>
      <point x="639" y="374" type="curve" smooth="yes"/>
      <point x="639" y="316"/>
      <point x="599" y="287"/>
      <point x="543" y="287" type="curve" smooth="yes"/>
      <point x="457" y="287"/>
      <point x="404" y="390"/>
      <point x="379" y="457" type="curve"/>
      <point x="111" y="369" type="line"/>
      <point x="167" y="152"/>
      <point x="300" y="-14"/>
    </contour>
    <contour>
      <point x="542" y="883" type="curve"/>
      <point x="502" y="911"/>
      <point x="513" y="882"/>
      <point x="470" y="916" type="curve" smooth="yes"/>
      <point x="463" y="918"/>
      <point x="466" y="930"/>
      <point x="466" y="951" type="curve" smooth="yes"/>
      <point x="466" y="991"/>
      <point x="498" y="1036"/>
      <point x="529" y="1071" type="curve"/>
      <point x="561" y="1047" type="line" smooth="yes"/>
      <point x="586" y="1026"/>
      <point x="623" y="991"/>
      <point x="623" y="973" type="curve" smooth="yes"/>
      <point x="623" y="929"/>
      <point x="579" y="905"/>
    </contour>
  </outline>
</glyph>
<glyph name="dieresis" format="1">
  <advance width="985"/>
  <unicode hex="00A8"/>
  <outline>
    <contour>
      <point x="117" y="1539" type="line"/>
      <point x="473" y="1539" type="line"/>
      <point x="473" y="1903" type="line"/>
      <point x="117" y="1903" type="line"/>
    </contour>
    <contour>
      <point x="601" y="1539" type="line"/>
      <point x="957" y="1539" type="line"/>
      <point x="957" y="1903" type="line"/>
      <point x="601" y="1903" type="line"/>
    </contour>
  </outline>
</glyph>
<glyph name="copyright" format="1">
  <advance width="1725"/>
  <unicode hex="00A9"/>
  <outline>
    <contour>
      <point x="847" y="218" type="curve" smooth="yes"/>
      <point x="1067" y="218"/>
      <point x="1189" y="342"/>
      <point x="1189" y="662" type="curve"/>
      <point x="925" y="662" type="line"/>
      <point x="926" y="616"/>
      <point x="939" y="444"/>
      <point x="848" y="444" type="curve" smooth="yes"/>
      <point x="801" y="444"/>
      <point x="745" y="453"/>
      <point x="745" y="758" type="curve" smooth="yes"/>
      <point x="745" y="998"/>
      <point x="796" y="1052"/>
      <point x="861" y="1052" type="curve" smooth="yes"/>
      <point x="933" y="1052"/>
      <point x="923" y="891"/>
      <point x="922" y="861" type="curve"/>
      <point x="1192" y="861" type="line"/>
      <point x="1192" y="1145"/>
      <point x="1090" y="1272"/>
      <point x="857" y="1272" type="curve" smooth="yes"/>
      <point x="508" y="1272"/>
      <point x="505" y="997"/>
      <point x="505" y="738" type="curve" smooth="yes"/>
      <point x="505" y="496"/>
      <point x="513" y="218"/>
    </contour>
    <contour>
      <point x="844" y="205" type="curve" smooth="yes"/>
      <point x="569" y="205"/>
      <point x="340" y="460"/>
      <point x="340" y="746" type="curve" smooth="yes"/>
      <point x="340" y="1032"/>
      <point x="569" y="1287"/>
      <point x="844" y="1287" type="curve" smooth="yes"/>
      <point x="1120" y="1287"/>
      <point x="1347" y="1031"/>
      <point x="1347" y="746" type="curve" smooth="yes"/>
      <point x="1347" y="462"/>
      <point x="1120" y="205"/>
    </contour>
    <contour>
      <point x="844" y="-21" type="curve" smooth="yes"/>
      <point x="1242" y="-21"/>
      <point x="1600" y="326"/>
      <point x="1600" y="752" type="curve" smooth="yes"/>
      <point x="1600" y="1180"/>
      <point x="1244" y="1525"/>
      <point x="844" y="1525" type="curve" smooth="yes"/>
      <point x="446" y="1525"/>
      <point x="90" y="1180"/>
      <point x="90" y="752" type="curve" smooth="yes"/>
      <point x="90" y="323"/>
      <point x="446" y="-21"/>
    </contour>
  </outline>
</glyph>
<glyph name="guillemotleft" format="1">
  <advance width="1133"/>
  <unicode hex="00AB"/>
  <outline>
    <contour>
      <point x="554" y="38" type="line"/>
      <point x="554" y="410" type="line"/>
      <point x="307" y="641" type="line"/>
      <point x="554" y="870" type="line"/>
      <point x="554" y="1242" type="line"/>
      <point x="79" y="704" type="line"/>
      <point x="79" y="576" type="line"/>
    </contour>
    <contour>
      <point x="1062" y="38" type="line"/>
      <point x="1062" y="410" type="line"/>
      <point x="814" y="641" type="line"/>
      <point x="1062" y="870" type="line"/>
      <point x="1062" y="1242" type="line"/>
      <point x="587" y="704" type="line"/>
      <point x="587" y="576" type="line"/>
    </contour>
  </outline>
</glyph>
<glyph name="logicalnot" format="1">
  <advance width="905"/>
  <unicode hex="00AC"/>
  <outline>
    <contour>
      <point x="543" y="260" type="line"/>
      <point x="746" y="260" type="line"/>
      <point x="746" y="726" type="line"/>
      <point x="152" y="726" type="line"/>
      <point x="152" y="455" type="line"/>
      <point x="543" y="455" type="line"/>
    </contour>
  </outline>
</glyph>
<glyph name="uni00AD" format="1">
  <advance width="868"/>
  <unicode hex="00AD"/>
  <outline>
    <contour>
      <point x="153" y="426" type="line"/>
      <point x="738" y="426" type="line"/>
      <point x="738" y="743" type="line"/>
      <point x="153" y="743" type="line"/>
    </contour>
  </outline>
</glyph>
<glyph name="macron" format="1">
  <advance width="309"/>
  <unicode hex="00AF"/>
  <outline>
    <contour>
      <point x="-109" y="1490" type="line"/>
      <point x="427" y="1490" type="line"/>
      <point x="427" y="1717" type="line"/>
      <point x="-109" y="1717" type="line"/>
    </contour>
  </outline>
</glyph>
<glyph name="degree" format="1">
  <advance width="1296"/>
  <unicode hex="00B0"/>
  <outline>
    <contour>
      <point x="638" y="1210" type="curve" smooth="yes"/>
      <point x="517" y="1210"/>
      <point x="441" y="1311"/>
      <point x="441" y="1439" type="curve" smooth="yes"/>
      <point x="441" y="1569"/>
      <point x="517" y="1664"/>
      <point x="638" y="1664" type="curve" smooth="yes"/>
      <point x="762" y="1664"/>
      <point x="835" y="1567"/>
      <point x="835" y="1438" type="curve" smooth="yes"/>
      <point x="835" y="1310"/>
      <point x="761" y="1210"/>
    </contour>
    <contour>
      <point x="638" y="953" type="curve" smooth="yes"/>
      <point x="929" y="953"/>
      <point x="1123" y="1132"/>
      <point x="1123" y="1439" type="curve" smooth="yes"/>
      <point x="1123" y="1747"/>
      <point x="926" y="1922"/>
      <point x="638" y="1922" type="curve" smooth="yes"/>
      <point x="351" y="1922"/>
      <point x="156" y="1747"/>
      <point x="156" y="1439" type="curve" smooth="yes"/>
      <point x="156" y="1133"/>
      <point x="350" y="953"/>
    </contour>
  </outline>
</glyph>
<glyph name="plusminus" format="1">
  <advance width="980"/>
  <unicode hex="00B1"/>
  <outline>
    <contour>
      <point x="344" y="391" type="line"/>
      <point x="614" y="391" type="line"/>
      <point x="614" y="586" type="line"/>
      <point x="807" y="586" type="line"/>
      <point x="807" y="857" type="line"/>
      <point x="614" y="857" type="line"/>
      <point x="614" y="1051" type="line"/>
      <point x="344" y="1051" type="line"/>
      <point x="344" y="857" type="line"/>
      <point x="151" y="857" type="line"/>
      <point x="151" y="586" type="line"/>
      <point x="344" y="586" type="line"/>
    </contour>
    <contour>
      <point x="151" y="0" type="line"/>
      <point x="807" y="0" type="line"/>
      <point x="807" y="270" type="line"/>
      <point x="151" y="270" type="line"/>
    </contour>
  </outline>
</glyph>
<glyph name="uni00B2" format="1">
  <advance width="666"/>
  <unicode hex="00B2"/>
  <outline>
    <contour>
      <point x="57" y="582" type="line"/>
      <point x="602" y="582" type="line"/>
      <point x="602" y="762" type="line"/>
      <point x="324" y="762" type="line"/>
      <point x="381" y="837"/>
      <point x="376" y="783"/>
      <point x="474" y="918" type="curve" smooth="yes"/>
      <point x="547" y="1015"/>
      <point x="596" y="1099"/>
      <point x="596" y="1166" type="curve" smooth="yes"/>
      <point x="596" y="1327"/>
      <point x="486" y="1419"/>
      <point x="321" y="1419" type="curve" smooth="yes"/>
      <point x="154" y="1419"/>
      <point x="56" y="1318"/>
      <point x="56" y="1169" type="curve"/>
      <point x="315" y="1169" type="line"/>
      <point x="315" y="1164"/>
      <point x="296" y="1239"/>
      <point x="320" y="1239" type="curve" smooth="yes"/>
      <point x="361" y="1239"/>
      <point x="338" y="1166"/>
      <point x="338" y="1167" type="curve" smooth="yes"/>
      <point x="338" y="1128"/>
      <point x="322" y="1081"/>
      <point x="277" y="1011" type="curve"/>
      <point x="153" y="812"/>
      <point x="98" y="805"/>
      <point x="57" y="751" type="curve"/>
    </contour>
  </outline>
</glyph>
<glyph name="uni00B3" format="1">
  <advance width="855"/>
  <unicode hex="00B3"/>
  <outline>
    <contour>
      <point x="421" y="675" type="curve" smooth="yes"/>
      <point x="588" y="675"/>
      <point x="695" y="764"/>
      <point x="695" y="925" type="curve" smooth="yes"/>
      <point x="695" y="1023"/>
      <point x="659" y="1056"/>
      <point x="575" y="1083" type="curve"/>
      <point x="660" y="1114"/>
      <point x="695" y="1161"/>
      <point x="695" y="1255" type="curve" smooth="yes"/>
      <point x="695" y="1428"/>
      <point x="585" y="1512"/>
      <point x="416" y="1512" type="curve" smooth="yes"/>
      <point x="247" y="1512"/>
      <point x="150" y="1409"/>
      <point x="150" y="1262" type="curve"/>
      <point x="413" y="1262" type="line"/>
      <point x="413" y="1255"/>
      <point x="395" y="1333"/>
      <point x="416" y="1333" type="curve" smooth="yes"/>
      <point x="454" y="1333"/>
      <point x="431" y="1262"/>
      <point x="431" y="1259" type="curve" smooth="yes"/>
      <point x="431" y="1159"/>
      <point x="405" y="1166"/>
      <point x="315" y="1180" type="curve"/>
      <point x="315" y="989" type="line"/>
      <point x="409" y="998"/>
      <point x="431" y="1026"/>
      <point x="431" y="924" type="curve" smooth="yes"/>
      <point x="431" y="932"/>
      <point x="455" y="856"/>
      <point x="420" y="856" type="curve" smooth="yes"/>
      <point x="395" y="856"/>
      <point x="413" y="930"/>
      <point x="413" y="926" type="curve"/>
      <point x="150" y="926" type="line"/>
      <point x="150" y="777"/>
      <point x="248" y="675"/>
    </contour>
  </outline>
</glyph>
<glyph name="acute" format="1">
  <advance width="723"/>
  <unicode hex="00B4"/>
  <outline>
    <contour>
      <point x="120" y="1423" type="line"/>
      <point x="390" y="1423" type="line"/>
      <point x="688" y="1885" type="line"/>
      <point x="262" y="1885" type="line"/>
    </contour>
  </outline>
</glyph>
<glyph name="paragraph" format="1">
  <advance width="937"/>
  <unicode hex="00B6"/>
  <outline>
    <contour>
      <point x="356" y="0" type="line"/>
      <point x="601" y="0" type="line"/>
      <point x="601" y="803" type="line"/>
      <point x="664" y="803" type="line"/>
      <point x="664" y="0" type="line"/>
      <point x="893" y="0" type="line"/>
      <point x="893" y="1474" type="line"/>
      <point x="428" y="1474" type="line" smooth="yes"/>
      <point x="223" y="1474"/>
      <point x="21" y="1404"/>
      <point x="21" y="1137" type="curve" smooth="yes"/>
      <point x="21" y="928"/>
      <point x="175" y="809"/>
      <point x="356" y="803" type="curve"/>
    </contour>
  </outline>
</glyph>
<glyph name="periodcentered" format="1">
  <advance width="553"/>
  <unicode hex="00B7"/>
  <outline>
    <contour>
      <point x="85" y="668" type="line"/>
      <point x="469" y="668" type="line"/>
      <point x="469" y="1043" type="line"/>
      <point x="85" y="1043" type="line"/>
    </contour>
  </outline>
</glyph>
<glyph name="cedilla" format="1">
  <advance width="645"/>
  <unicode hex="00B8"/>
  <outline>
    <contour>
      <point x="141" y="-634" type="line"/>
      <point x="269" y="-634"/>
      <point x="676" y="-655"/>
      <point x="676" y="-399" type="curve" smooth="yes"/>
      <point x="676" y="-256"/>
      <point x="506" y="-171"/>
      <point x="421" y="-135" type="curve"/>
      <point x="421" y="0" type="line"/>
      <point x="203" y="0" type="line"/>
      <point x="203" y="-289" type="line"/>
      <point x="238" y="-295"/>
      <point x="395" y="-328"/>
      <point x="395" y="-398" type="curve" smooth="yes"/>
      <point x="395" y="-458"/>
      <point x="137" y="-429"/>
      <point x="141" y="-429" type="curve"/>
    </contour>
  </outline>
</glyph>
<glyph name="uni00B9" format="1">
  <advance width="580"/>
  <unicode hex="00B9"/>
  <outline>
    <contour>
      <point x="178" y="674" type="line"/>
      <point x="439" y="674" type="line"/>
      <point x="439" y="1522" type="line"/>
      <point x="354" y="1522" type="line"/>
      <point x="279" y="1442"/>
      <point x="194" y="1381"/>
      <point x="77" y="1318" type="curve"/>
      <point x="77" y="1153" type="line"/>
      <point x="57" y="1149"/>
      <point x="204" y="1132"/>
      <point x="178" y="1114" type="curve"/>
    </contour>
  </outline>
</glyph>
<glyph name="uni00B9" format="1">
  <advance width="522"/>
  <unicode hex="00B9"/>
  <outline>
    <contour>
      <point x="160" y="607" type="line"/>
      <point x="395" y="607" type="line"/>
      <point x="395" y="1370" type="line"/>
      <point x="319" y="1370" type="line"/>
      <point x="251" y="1298"/>
      <point x="174" y="1243"/>
      <point x="69" y="1186" type="curve"/>
      <point x="69" y="1038" type="line"/>
      <point x="51" y="1034"/>
      <point x="183" y="1019"/>
      <point x="160" y="1003" type="curve"/>
    </contour>
  </outline>
</glyph>
<glyph name="ordmasculine" format="1">
  <advance width="1075"/>
  <unicode hex="00BA"/>
  <outline>
    <contour>
      <point x="531" y="654" type="curve" smooth="yes"/>
      <point x="396" y="654"/>
      <point x="415" y="471"/>
      <point x="415" y="458" type="curve" smooth="yes"/>
      <point x="415" y="136" type="line" smooth="yes"/>
      <point x="415" y="127"/>
      <point x="393" y="-62"/>
      <point x="531" y="-62" type="curve" smooth="yes"/>
      <point x="671" y="-62"/>
      <point x="640" y="122"/>
      <point x="640" y="136" type="curve" smooth="yes"/>
      <point x="640" y="458" type="line" smooth="yes"/>
      <point x="640" y="473"/>
      <point x="669" y="654"/>
    </contour>
    <contour>
      <point x="538" y="954" type="curve" smooth="yes"/>
      <point x="818" y="954"/>
      <point x="960" y="772"/>
      <point x="960" y="519" type="curve" smooth="yes"/>
      <point x="960" y="77" type="line" smooth="yes"/>
      <point x="960" y="-173"/>
      <point x="819" y="-360"/>
      <point x="538" y="-360" type="curve" smooth="yes"/>
      <point x="232" y="-360"/>
      <point x="115" y="-193"/>
      <point x="115" y="77" type="curve" smooth="yes"/>
      <point x="115" y="519" type="line" smooth="yes"/>
      <point x="115" y="795"/>
      <point x="232" y="954"/>
    </contour>
  </outline>
</glyph>
<glyph name="guillemotright" format="1">
  <advance width="1134"/>
  <unicode hex="00BB"/>
  <outline>
    <contour>
      <point x="65" y="38" type="line"/>
      <point x="539" y="576" type="line"/>
      <point x="539" y="704" type="line"/>
      <point x="65" y="1242" type="line"/>
      <point x="65" y="870" type="line"/>
      <point x="312" y="641" type="line"/>
      <point x="65" y="410" type="line"/>
    </contour>
    <contour>
      <point x="573" y="38" type="line"/>
      <point x="1047" y="576" type="line"/>
      <point x="1047" y="704" type="line"/>
      <point x="573" y="1242" type="line"/>
      <point x="573" y="870" type="line"/>
      <point x="820" y="641" type="line"/>
      <point x="573" y="410" type="line"/>
    </contour>
  </outline>
</glyph>
<glyph name="onequarter" format="1">
  <advance width="1781"/>
  <unicode hex="00BC"/>
  <outline>
    <contour>
      <point x="1261" y="-21" type="line"/>
      <point x="1521" y="-21" type="line"/>
      <point x="1521" y="230" type="line"/>
      <point x="1649" y="230" type="line"/>
      <point x="1649" y="413" type="line"/>
      <point x="1521" y="413" type="line"/>
      <point x="1521" y="920" type="line"/>
      <point x="1332" y="920" type="line"/>
      <point x="959" y="401" type="line"/>
      <point x="959" y="230" type="line"/>
      <point x="1261" y="230" type="line"/>
    </contour>
    <contour>
      <point x="201" y="674" type="line"/>
      <point x="462" y="674" type="line"/>
      <point x="462" y="1522" type="line"/>
      <point x="376" y="1522" type="line"/>
      <point x="301" y="1442"/>
      <point x="216" y="1381"/>
      <point x="99" y="1318" type="curve"/>
      <point x="99" y="1153" type="line"/>
      <point x="80" y="1149"/>
      <point x="227" y="1132"/>
      <point x="201" y="1114" type="curve"/>
    </contour>
    <contour>
      <point x="457" y="0" type="line"/>
      <point x="652" y="0" type="line"/>
      <point x="1241" y="1885" type="line"/>
      <point x="1045" y="1885" type="line"/>
    </contour>
    <contour>
      <point x="1228" y="413" type="line"/>
      <point x="1261" y="397" type="line"/>
      <point x="1261" y="413" type="line"/>
    </contour>
  </outline>
</glyph>
<glyph name="threequarters" format="1">
  <advance width="1897"/>
  <unicode hex="00BE"/>
  <outline>
    <contour>
      <point x="441" y="675" type="curve" smooth="yes"/>
      <point x="608" y="675"/>
      <point x="715" y="764"/>
      <point x="715" y="925" type="curve" smooth="yes"/>
      <point x="715" y="1023"/>
      <point x="679" y="1056"/>
      <point x="595" y="1083" type="curve"/>
      <point x="680" y="1114"/>
      <point x="715" y="1161"/>
      <point x="715" y="1255" type="curve" smooth="yes"/>
      <point x="715" y="1428"/>
      <point x="605" y="1512"/>
      <point x="436" y="1512" type="curve" smooth="yes"/>
      <point x="267" y="1512"/>
      <point x="170" y="1409"/>
      <point x="170" y="1262" type="curve"/>
      <point x="432" y="1262" type="line"/>
      <point x="432" y="1255"/>
      <point x="414" y="1333"/>
      <point x="436" y="1333" type="curve" smooth="yes"/>
      <point x="474" y="1333"/>
      <point x="451" y="1262"/>
      <point x="451" y="1259" type="curve" smooth="yes"/>
      <point x="451" y="1159"/>
      <point x="425" y="1166"/>
      <point x="335" y="1180" type="curve"/>
      <point x="335" y="989" type="line"/>
      <point x="429" y="998"/>
      <point x="451" y="1026"/>
      <point x="451" y="924" type="curve" smooth="yes"/>
      <point x="451" y="932"/>
      <point x="475" y="856"/>
      <point x="440" y="856" type="curve" smooth="yes"/>
      <point x="415" y="856"/>
      <point x="432" y="930"/>
      <point x="432" y="926" type="curve"/>
      <point x="170" y="926" type="line"/>
      <point x="170" y="777"/>
      <point x="268" y="675"/>
    </contour>
    <contour>
      <point x="1281" y="-21" type="line"/>
      <point x="1541" y="-21" type="line"/>
      <point x="1541" y="230" type="line"/>
      <point x="1669" y="230" type="line"/>
      <point x="1669" y="413" type="line"/>
      <point x="1541" y="413" type="line"/>
      <point x="1541" y="920" type="line"/>
      <point x="1352" y="920" type="line"/>
      <point x="979" y="401" type="line"/>
      <point x="979" y="230" type="line"/>
      <point x="1281" y="230" type="line"/>
    </contour>
    <contour>
      <point x="561" y="0" type="line"/>
      <point x="756" y="0" type="line"/>
      <point x="1345" y="1885" type="line"/>
      <point x="1149" y="1885" type="line"/>
    </contour>
    <contour>
      <point x="1248" y="413" type="line"/>
      <point x="1281" y="413" type="line"/>
      <point x="1281" y="397" type="line"/>
    </contour>
  </outline>
</glyph>
<glyph name="AE" format="1">
  <advance width="1710"/>
  <unicode hex="00C6"/>
  <outline>
    <contour>
      <point x="58" y="0" type="line"/>
      <point x="544" y="0" type="line"/>
      <point x="676" y="357" type="line"/>
      <point x="913" y="357" type="line"/>
      <point x="913" y="0" type="line"/>
      <point x="1691" y="0" type="line"/>
      <point x="1691" y="306" type="line"/>
      <point x="1331" y="306" type="line"/>
      <point x="1331" y="792" type="line"/>
      <point x="1585" y="792" type="line"/>
      <point x="1585" y="1110" type="line"/>
      <point x="1331" y="1110" type="line"/>
      <point x="1331" y="1528" type="line"/>
      <point x="1691" y="1528" type="line"/>
      <point x="1691" y="1835" type="line"/>
      <point x="891" y="1835" type="line"/>
    </contour>
    <contour>
      <point x="765" y="635" type="line"/>
      <point x="913" y="1016" type="line"/>
      <point x="913" y="635" type="line"/>
    </contour>
  </outline>
</glyph>
<glyph name="AE" format="1">
  <advance width="1539"/>
  <unicode hex="00C6"/>
  <outline>
    <contour>
      <point x="52" y="0" type="line"/>
      <point x="490" y="0" type="line"/>
      <point x="608" y="321" type="line"/>
      <point x="822" y="321" type="line"/>
      <point x="822" y="0" type="line"/>
      <point x="1522" y="0" type="line"/>
      <point x="1522" y="275" type="line"/>
      <point x="1198" y="275" type="line"/>
      <point x="1198" y="713" type="line"/>
      <point x="1426" y="713" type="line"/>
      <point x="1426" y="999" type="line"/>
      <point x="1198" y="999" type="line"/>
      <point x="1198" y="1375" type="line"/>
      <point x="1522" y="1375" type="line"/>
      <point x="1522" y="1652" type="line"/>
      <point x="802" y="1652" type="line"/>
    </contour>
    <contour>
      <point x="688" y="572" type="line"/>
      <point x="822" y="914" type="line"/>
      <point x="822" y="572" type="line"/>
    </contour>
  </outline>
</glyph>
<glyph name="Eth" format="1">
  <advance width="1051"/>
  <unicode hex="00D0"/>
  <outline>
    <contour>
      <point x="392" y="282" type="line"/>
      <point x="536" y="284"/>
      <point x="576" y="235"/>
      <point x="576" y="365" type="curve" smooth="yes"/>
      <point x="576" y="1318" type="line" smooth="yes"/>
      <point x="576" y="1404"/>
      <point x="499" y="1366"/>
      <point x="386" y="1368" type="curve"/>
      <point x="464" y="1368" type="line"/>
      <point x="464" y="946" type="line"/>
      <point x="546" y="946" type="line"/>
      <point x="546" y="746" type="line"/>
      <point x="464" y="746" type="line"/>
      <point x="464" y="282" type="line"/>
    </contour>
    <contour>
      <point x="53" y="0" type="line"/>
      <point x="382" y="0" type="line" smooth="yes"/>
      <point x="918" y="0"/>
      <point x="987" y="177"/>
      <point x="987" y="611" type="curve" smooth="yes"/>
      <point x="987" y="1099" type="line" smooth="yes"/>
      <point x="987" y="1516"/>
      <point x="879" y="1652"/>
      <point x="387" y="1652" type="curve" smooth="yes"/>
      <point x="53" y="1652" type="line"/>
      <point x="53" y="946" type="line"/>
      <point x="-11" y="946" type="line"/>
      <point x="-11" y="746" type="line"/>
      <point x="53" y="746" type="line"/>
    </contour>
  </outline>
</glyph>
<glyph name="Eth" format="1">
  <advance width="1168"/>
  <unicode hex="00D0"/>
  <outline>
    <contour>
      <point x="516" y="313" type="line"/>
      <point x="516" y="829" type="line"/>
      <point x="607" y="829" type="line"/>
      <point x="607" y="1051" type="line"/>
      <point x="516" y="1051" type="line"/>
      <point x="516" y="1520" type="line"/>
      <point x="429" y="1520" type="line" smooth="yes"/>
      <point x="555" y="1518"/>
      <point x="640" y="1559"/>
      <point x="640" y="1464" type="curve" smooth="yes"/>
      <point x="640" y="406" type="line" smooth="yes"/>
      <point x="640" y="262"/>
      <point x="595" y="315"/>
      <point x="435" y="313" type="curve" smooth="yes"/>
    </contour>
    <contour>
      <point x="59" y="0" type="line"/>
      <point x="425" y="0" type="line" smooth="yes"/>
      <point x="1020" y="0"/>
      <point x="1097" y="197"/>
      <point x="1097" y="679" type="curve" smooth="yes"/>
      <point x="1097" y="1221" type="line" smooth="yes"/>
      <point x="1097" y="1684"/>
      <point x="977" y="1835"/>
      <point x="430" y="1835" type="curve" smooth="yes"/>
      <point x="59" y="1835" type="line"/>
      <point x="59" y="1051" type="line"/>
      <point x="-12" y="1051" type="line"/>
      <point x="-12" y="829" type="line"/>
      <point x="59" y="829" type="line"/>
    </contour>
  </outline>
</glyph>
<glyph name="multiply" format="1">
  <advance width="807"/>
  <unicode hex="00D7"/>
  <outline>
    <contour>
      <point x="229" y="280" type="line"/>
      <point x="404" y="456" type="line"/>
      <point x="580" y="280" type="line"/>
      <point x="743" y="445" type="line"/>
      <point x="668" y="517"/>
      <point x="651" y="535"/>
      <point x="568" y="619" type="curve"/>
      <point x="743" y="795" type="line"/>
      <point x="580" y="961" type="line"/>
      <point x="404" y="784" type="line"/>
      <point x="229" y="961" type="line"/>
      <point x="64" y="795" type="line"/>
      <point x="239" y="619" type="line"/>
      <point x="64" y="445" type="line"/>
    </contour>
  </outline>
</glyph>
<glyph name="Thorn" format="1">
  <advance width="1003"/>
  <unicode hex="00DE"/>
  <outline>
    <contour>
      <point x="75" y="0" type="line"/>
      <point x="553" y="0" type="line"/>
      <point x="553" y="546" type="line"/>
      <point x="562" y="546"/>
      <point x="453" y="547"/>
      <point x="462" y="547" type="curve" smooth="yes"/>
      <point x="755" y="560"/>
      <point x="984" y="612"/>
      <point x="984" y="1078" type="curve" smooth="yes"/>
      <point x="984" y="1427"/>
      <point x="848" y="1609"/>
      <point x="517" y="1609" type="curve" smooth="yes"/>
      <point x="560" y="1609" type="line"/>
      <point x="560" y="1835" type="line"/>
      <point x="75" y="1835" type="line"/>
    </contour>
    <contour>
      <point x="561" y="863" type="line"/>
      <point x="564" y="863"/>
      <point x="442" y="863"/>
      <point x="445" y="863" type="curve" smooth="yes"/>
      <point x="588" y="867"/>
      <point x="554" y="939"/>
      <point x="554" y="1090" type="curve" smooth="yes"/>
      <point x="554" y="1185"/>
      <point x="588" y="1284"/>
      <point x="449" y="1289" type="curve" smooth="yes"/>
      <point x="444" y="1290"/>
      <point x="566" y="1290"/>
      <point x="561" y="1290" type="curve"/>
    </contour>
  </outline>
</glyph>
<glyph name="germandbls" format="1">
  <advance width="1255"/>
  <unicode hex="00DF"/>
  <outline>
    <contour>
      <point x="591" y="-39" type="line"/>
      <point x="967" y="-39"/>
      <point x="1193" y="105"/>
      <point x="1193" y="513" type="curve" smooth="yes"/>
      <point x="1193" y="727"/>
      <point x="1066" y="909"/>
      <point x="817" y="981" type="curve"/>
      <point x="1027" y="1060"/>
      <point x="1089" y="1194"/>
      <point x="1089" y="1358" type="curve" smooth="yes"/>
      <point x="1089" y="1672"/>
      <point x="949" y="1873"/>
      <point x="584" y="1873" type="curve" smooth="yes"/>
      <point x="204" y="1873"/>
      <point x="82" y="1614"/>
      <point x="82" y="1367" type="curve" smooth="yes"/>
      <point x="82" y="0" type="line"/>
      <point x="542" y="0" type="line"/>
      <point x="542" y="1375" type="line" smooth="yes"/>
      <point x="542" y="1432"/>
      <point x="500" y="1562"/>
      <point x="617" y="1562" type="curve" smooth="yes"/>
      <point x="719" y="1562"/>
      <point x="683" y="1424"/>
      <point x="683" y="1360" type="curve" smooth="yes"/>
      <point x="683" y="1269"/>
      <point x="659" y="1120"/>
      <point x="575" y="1097" type="curve" smooth="yes"/>
      <point x="567" y="1096"/>
      <point x="605" y="1095"/>
      <point x="596" y="1095" type="curve"/>
      <point x="596" y="782" type="line"/>
      <point x="610" y="782"/>
      <point x="578" y="782"/>
      <point x="591" y="780" type="curve" smooth="yes"/>
      <point x="674" y="761"/>
      <point x="747" y="693"/>
      <point x="747" y="571" type="curve" smooth="yes"/>
      <point x="747" y="337"/>
      <point x="720" y="270"/>
      <point x="591" y="270" type="curve"/>
    </contour>
  </outline>
</glyph>
<glyph name="ae" format="1">
  <advance width="1503"/>
  <unicode hex="00E6"/>
  <outline>
    <contour>
      <point x="426" y="-30" type="curve" smooth="yes"/>
      <point x="552" y="-30"/>
      <point x="683" y="39"/>
      <point x="749" y="117" type="curve"/>
      <point x="782" y="33"/>
      <point x="936" y="-30"/>
      <point x="1042" y="-30" type="curve" smooth="yes"/>
      <point x="1251" y="-13"/>
      <point x="1457" y="103"/>
      <point x="1448" y="336" type="curve" smooth="yes"/>
      <point x="1447" y="538" type="line"/>
      <point x="1028" y="538" type="line"/>
      <point x="1028" y="507"/>
      <point x="1032" y="460"/>
      <point x="1032" y="401" type="curve"/>
      <point x="1035" y="398"/>
      <point x="1049" y="307"/>
      <point x="998" y="307" type="curve" smooth="yes"/>
      <point x="954" y="307"/>
      <point x="977" y="371"/>
      <point x="977" y="302" type="curve" smooth="yes"/>
      <point x="977" y="670" type="line"/>
      <point x="1170" y="704"/>
      <point x="1466" y="738"/>
      <point x="1466" y="1016" type="curve" smooth="yes"/>
      <point x="1466" y="1160"/>
      <point x="1286" y="1383"/>
      <point x="1018" y="1383" type="curve" smooth="yes"/>
      <point x="919" y="1383"/>
      <point x="813" y="1339"/>
      <point x="755" y="1304" type="curve"/>
      <point x="698" y="1354"/>
      <point x="590" y="1385"/>
      <point x="523" y="1385" type="curve" smooth="yes"/>
      <point x="223" y="1385"/>
      <point x="55" y="1183"/>
      <point x="62" y="860" type="curve"/>
      <point x="465" y="860" type="line"/>
      <point x="465" y="889"/>
      <point x="460" y="928"/>
      <point x="460" y="968" type="curve" smooth="yes"/>
      <point x="453" y="968"/>
      <point x="434" y="1046"/>
      <point x="497" y="1046" type="curve" smooth="yes"/>
      <point x="580" y="1046"/>
      <point x="558" y="898"/>
      <point x="557" y="938" type="curve"/>
      <point x="557" y="777" type="line"/>
      <point x="359" y="743"/>
      <point x="58" y="708"/>
      <point x="58" y="314" type="curve" smooth="yes"/>
      <point x="58" y="78"/>
      <point x="231" y="-30"/>
    </contour>
    <contour>
      <point x="517" y="281" type="curve" smooth="yes"/>
      <point x="446" y="281"/>
      <point x="428" y="360"/>
      <point x="428" y="392" type="curve" smooth="yes"/>
      <point x="428" y="435"/>
      <point x="427" y="533"/>
      <point x="585" y="586" type="curve"/>
      <point x="585" y="586"/>
      <point x="593" y="417"/>
      <point x="593" y="391" type="curve" smooth="yes"/>
      <point x="593" y="295"/>
      <point x="569" y="281"/>
    </contour>
    <contour>
      <point x="976" y="848" type="curve"/>
      <point x="976" y="1077" type="line" smooth="yes"/>
      <point x="976" y="1032"/>
      <point x="1020" y="1058"/>
      <point x="1015" y="1058" type="curve" smooth="yes"/>
      <point x="1100" y="1058"/>
      <point x="1129" y="1012"/>
      <point x="1129" y="967" type="curve" smooth="yes"/>
      <point x="1129" y="829"/>
      <point x="854" y="824"/>
    </contour>
  </outline>
</glyph>
<glyph name="eth" format="1">
  <advance width="1037"/>
  <unicode hex="00F0"/>
  <outline>
    <contour>
      <point x="514" y="-30" type="curve" smooth="yes"/>
      <point x="711" y="-30"/>
      <point x="947" y="93"/>
      <point x="947" y="267" type="curve" smooth="yes"/>
      <point x="947" y="1475" type="line"/>
      <point x="947" y="1475"/>
      <point x="941" y="1513"/>
      <point x="922" y="1568" type="curve"/>
      <point x="1054" y="1651" type="line"/>
      <point x="959" y="1811" type="line"/>
      <point x="831" y="1724" type="line"/>
      <point x="738" y="1813"/>
      <point x="578" y="1881"/>
      <point x="313" y="1875" type="curve"/>
      <point x="238" y="1547" type="line"/>
      <point x="364" y="1552"/>
      <point x="435" y="1537"/>
      <point x="474" y="1526" type="curve"/>
      <point x="307" y="1425" type="line"/>
      <point x="402" y="1265" type="line"/>
      <point x="552" y="1361" type="line"/>
      <point x="554" y="1313"/>
      <point x="547" y="1255"/>
      <point x="539" y="1189" type="curve"/>
      <point x="486" y="1233"/>
      <point x="426" y="1253"/>
      <point x="370" y="1253" type="curve" smooth="yes"/>
      <point x="261" y="1253"/>
      <point x="88" y="1194"/>
      <point x="88" y="1048" type="curve"/>
      <point x="88" y="257" type="line" smooth="yes"/>
      <point x="88" y="76"/>
      <point x="314" y="-30"/>
    </contour>
    <contour>
      <point x="514" y="298" type="curve" smooth="yes"/>
      <point x="483" y="298"/>
      <point x="505" y="340"/>
      <point x="505" y="256" type="curve" smooth="yes"/>
      <point x="505" y="1010" type="line"/>
      <point x="504" y="938"/>
      <point x="524" y="927"/>
      <point x="524" y="927" type="curve" smooth="yes"/>
      <point x="543" y="927"/>
      <point x="548" y="901"/>
      <point x="534" y="849" type="curve"/>
      <point x="529" y="916"/>
      <point x="527" y="202"/>
      <point x="527" y="247" type="curve" smooth="yes"/>
      <point x="527" y="359"/>
      <point x="547" y="298"/>
    </contour>
  </outline>
</glyph>
<glyph name="divide" format="1">
  <advance width="706"/>
  <unicode hex="00F7"/>
  <outline>
    <contour>
      <point x="188" y="237" type="line"/>
      <point x="520" y="237" type="line"/>
      <point x="520" y="572" type="line"/>
      <point x="188" y="572" type="line"/>
    </contour>
    <contour>
      <point x="-7" y="586" type="line"/>
      <point x="717" y="586" type="line"/>
      <point x="717" y="857" type="line"/>
      <point x="-7" y="857" type="line"/>
    </contour>
    <contour>
      <point x="188" y="895" type="line"/>
      <point x="520" y="895" type="line"/>
      <point x="520" y="1229" type="line"/>
      <point x="188" y="1229" type="line"/>
    </contour>
  </outline>
</glyph>
<glyph name="oslash" format="1">
  <advance width="991"/>
  <unicode hex="00F8"/>
  <outline>
    <contour>
      <point x="140" y="-142" type="line"/>
      <point x="778" y="1381" type="line"/>
      <point x="857" y="1346" type="line"/>
      <point x="219" y="-177" type="line"/>
    </contour>
    <component base="o"/>
  </outline>
</glyph>
<glyph name="thorn" format="1">
  <advance width="934"/>
  <unicode hex="00FE"/>
  <outline>
    <contour>
      <point x="81" y="-328" type="line"/>
      <point x="458" y="-328" type="line"/>
      <point x="458" y="82" type="line"/>
      <point x="494" y="24"/>
      <point x="553" y="-27"/>
      <point x="631" y="-27" type="curve" smooth="yes"/>
      <point x="782" y="-27"/>
      <point x="866" y="125"/>
      <point x="866" y="108" type="curve" smooth="yes"/>
      <point x="866" y="1108" type="line" smooth="yes"/>
      <point x="866" y="1084"/>
      <point x="782" y="1245"/>
      <point x="634" y="1245" type="curve" smooth="yes"/>
      <point x="558" y="1245"/>
      <point x="496" y="1197"/>
      <point x="458" y="1148" type="curve"/>
      <point x="458" y="1652" type="line"/>
      <point x="81" y="1652" type="line"/>
    </contour>
    <contour>
      <point x="489" y="962" type="curve" smooth="yes"/>
      <point x="472" y="962"/>
      <point x="455" y="913"/>
      <point x="458" y="908" type="curve"/>
      <point x="458" y="303" type="line"/>
      <point x="455" y="299"/>
      <point x="468" y="247"/>
      <point x="490" y="247" type="curve" smooth="yes"/>
      <point x="516" y="247"/>
      <point x="491" y="309"/>
      <point x="491" y="186" type="curve" smooth="yes"/>
      <point x="491" y="1039" type="line" smooth="yes"/>
      <point x="491" y="910"/>
      <point x="514" y="962"/>
    </contour>
  </outline>
</glyph>
<glyph name="Hbar" format="1">
  <advance width="1092"/>
  <unicode hex="0126"/>
  <outline>
    <contour>
      <point x="70" y="0" type="line"/>
      <point x="482" y="0" type="line"/>
      <point x="482" y="709" type="line"/>
      <point x="610" y="709" type="line"/>
      <point x="610" y="0" type="line"/>
      <point x="1024" y="0" type="line"/>
      <point x="1024" y="1203" type="line"/>
      <point x="1138" y="1203" type="line"/>
      <point x="1138" y="1315" type="line"/>
      <point x="1024" y="1315" type="line"/>
      <point x="1024" y="1652" type="line"/>
      <point x="610" y="1652" type="line"/>
      <point x="610" y="1315" type="line"/>
      <point x="482" y="1315" type="line"/>
      <point x="482" y="1652" type="line"/>
      <point x="70" y="1652" type="line"/>
      <point x="70" y="1315" type="line"/>
      <point x="-45" y="1315" type="line"/>
      <point x="-45" y="1203" type="line"/>
      <point x="70" y="1203" type="line"/>
    </contour>
    <contour>
      <point x="482" y="1004" type="line"/>
      <point x="482" y="1203" type="line"/>
      <point x="610" y="1203" type="line"/>
      <point x="610" y="1004" type="line"/>
    </contour>
  </outline>
</glyph>
<glyph name="Hbar" format="1">
  <advance width="1214"/>
  <unicode hex="0126"/>
  <outline>
    <contour>
      <point x="78" y="0" type="line"/>
      <point x="535" y="0" type="line"/>
      <point x="535" y="788" type="line"/>
      <point x="678" y="788" type="line"/>
      <point x="678" y="0" type="line"/>
      <point x="1138" y="0" type="line"/>
      <point x="1138" y="1337" type="line"/>
      <point x="1265" y="1337" type="line"/>
      <point x="1265" y="1461" type="line"/>
      <point x="1138" y="1461" type="line"/>
      <point x="1138" y="1835" type="line"/>
      <point x="678" y="1835" type="line"/>
      <point x="678" y="1461" type="line"/>
      <point x="535" y="1461" type="line"/>
      <point x="535" y="1835" type="line"/>
      <point x="78" y="1835" type="line"/>
      <point x="78" y="1461" type="line"/>
      <point x="-50" y="1461" type="line"/>
      <point x="-50" y="1337" type="line"/>
      <point x="78" y="1337" type="line"/>
    </contour>
    <contour>
      <point x="535" y="1115" type="line"/>
      <point x="535" y="1337" type="line"/>
      <point x="678" y="1337" type="line"/>
      <point x="678" y="1115" type="line"/>
    </contour>
  </outline>
</glyph>
<glyph name="hbar" format="1">
  <advance width="1014"/>
  <unicode hex="0127"/>
  <outline>
    <contour>
      <point x="75" y="0" type="line"/>
      <point x="494" y="0" type="line"/>
      <point x="494" y="1011" type="line"/>
      <point x="497" y="1022"/>
      <point x="520" y="1076"/>
      <point x="554" y="1076" type="curve" smooth="yes"/>
      <point x="611" y="1076"/>
      <point x="567" y="979"/>
      <point x="567" y="976" type="curve" smooth="yes"/>
      <point x="567" y="0" type="line"/>
      <point x="985" y="0" type="line"/>
      <point x="985" y="1099" type="line" smooth="yes"/>
      <point x="985" y="1203"/>
      <point x="915" y="1383"/>
      <point x="755" y="1383" type="curve" smooth="yes"/>
      <point x="650" y="1383"/>
      <point x="555" y="1325"/>
      <point x="494" y="1268" type="curve"/>
      <point x="494" y="1485" type="line"/>
      <point x="826" y="1485" type="line"/>
      <point x="826" y="1707" type="line"/>
      <point x="494" y="1707" type="line"/>
      <point x="494" y="1835" type="line"/>
      <point x="75" y="1835" type="line"/>
      <point x="75" y="1707" type="line"/>
      <point x="-14" y="1707" type="line"/>
      <point x="-14" y="1485" type="line"/>
      <point x="75" y="1485" type="line"/>
    </contour>
  </outline>
</glyph>
<glyph name="dotlessi" format="1">
  <advance width="588"/>
  <unicode hex="0131"/>
  <outline>
    <contour>
      <point x="120" y="0" type="line"/>
      <point x="540" y="0" type="line"/>
      <point x="540" y="1352" type="line"/>
      <point x="120" y="1352" type="line"/>
    </contour>
  </outline>
</glyph>
<glyph name="kgreenlandic" format="1">
  <advance width="962"/>
  <unicode hex="0138"/>
  <outline>
    <contour>
      <point x="81" y="0" type="line"/>
      <point x="458" y="0" type="line"/>
      <point x="458" y="408" type="line"/>
      <point x="447" y="406" type="line"/>
      <point x="562" y="0" type="line"/>
      <point x="937" y="0" type="line"/>
      <point x="704" y="680" type="line"/>
      <point x="938" y="1217" type="line"/>
      <point x="577" y="1217" type="line"/>
      <point x="458" y="905" type="line"/>
      <point x="458" y="1217" type="line"/>
      <point x="81" y="1217" type="line"/>
    </contour>
  </outline>
</glyph>
<glyph name="Lslash" format="1">
  <advance width="744"/>
  <unicode hex="0141"/>
  <outline>
    <contour>
      <point x="656" y="997" type="line"/>
      <point x="656" y="1205" type="line"/>
      <point x="2" y="876" type="line"/>
      <point x="2" y="668" type="line"/>
    </contour>
    <component base="L"/>
  </outline>
</glyph>
<glyph name="Lslash" format="1">
  <advance width="867"/>
  <unicode hex="0141"/>
  <outline>
    <contour>
      <point x="59" y="0" type="line"/>
      <point x="820" y="0" type="line"/>
      <point x="820" y="306" type="line"/>
      <point x="516" y="306" type="line"/>
      <point x="516" y="1071" type="line"/>
      <point x="776" y="1170" type="line"/>
      <point x="776" y="1383" type="line"/>
      <point x="516" y="1284" type="line"/>
      <point x="516" y="1835" type="line"/>
      <point x="59" y="1835" type="line"/>
      <point x="59" y="1112" type="line"/>
      <point x="3" y="1091" type="line"/>
      <point x="3" y="878" type="line"/>
      <point x="59" y="899" type="line"/>
    </contour>
  </outline>
</glyph>
<glyph name="lslash" format="1">
  <advance width="605"/>
  <unicode hex="0142"/>
  <outline>
    <contour>
      <point x="139" y="0" type="line"/>
      <point x="516" y="0" type="line"/>
      <point x="516" y="989" type="line"/>
      <point x="703" y="1053" type="line"/>
      <point x="703" y="1245" type="line"/>
      <point x="516" y="1181" type="line"/>
      <point x="516" y="1652" type="line"/>
      <point x="139" y="1652" type="line"/>
      <point x="139" y="1043" type="line"/>
      <point x="-40" y="982" type="line"/>
      <point x="-40" y="790" type="line"/>
      <point x="139" y="851" type="line"/>
    </contour>
  </outline>
</glyph>
<glyph name="OE" format="1">
  <advance width="1580"/>
  <unicode hex="0152"/>
  <outline>
    <contour>
      <point x="635" y="0" type="curve" smooth="yes"/>
      <point x="1560" y="0" type="line"/>
      <point x="1560" y="306" type="line"/>
      <point x="1200" y="306" type="line"/>
      <point x="1200" y="792" type="line"/>
      <point x="1454" y="792" type="line"/>
      <point x="1454" y="1110" type="line"/>
      <point x="1200" y="1110" type="line"/>
      <point x="1200" y="1528" type="line"/>
      <point x="1560" y="1528" type="line"/>
      <point x="1560" y="1833" type="line"/>
      <point x="635" y="1833" type="line" smooth="yes"/>
      <point x="204" y="1832"/>
      <point x="70" y="1529"/>
      <point x="70" y="1162" type="curve" smooth="yes"/>
      <point x="70" y="657" type="line" smooth="yes"/>
      <point x="70" y="269"/>
      <point x="213" y="0"/>
    </contour>
    <contour>
      <point x="635" y="311" type="line"/>
      <point x="533" y="310"/>
      <point x="528" y="459"/>
      <point x="528" y="541" type="curve" smooth="yes"/>
      <point x="528" y="1278" type="line" smooth="yes"/>
      <point x="528" y="1357"/>
      <point x="534" y="1510"/>
      <point x="635" y="1510" type="curve" smooth="yes"/>
      <point x="743" y="1510" type="line"/>
      <point x="743" y="311" type="line"/>
    </contour>
  </outline>
</glyph>
<glyph name="oe" format="1">
  <advance width="1333"/>
  <unicode hex="0153"/>
  <outline>
    <contour>
      <point x="439" y="-28" type="curve" smooth="yes"/>
      <point x="297" y="-28"/>
      <point x="65" y="45"/>
      <point x="65" y="214" type="curve" smooth="yes"/>
      <point x="65" y="909" type="line" smooth="yes"/>
      <point x="65" y="1145"/>
      <point x="217" y="1244"/>
      <point x="465" y="1244" type="curve" smooth="yes"/>
      <point x="546" y="1244"/>
      <point x="621" y="1225"/>
      <point x="683" y="1189" type="curve"/>
      <point x="745" y="1216"/>
      <point x="819" y="1244"/>
      <point x="914" y="1244" type="curve" smooth="yes"/>
      <point x="1174" y="1244"/>
      <point x="1288" y="1081"/>
      <point x="1288" y="861" type="curve"/>
      <point x="1288" y="880"/>
      <point x="1288" y="541"/>
      <point x="1289" y="560" type="curve"/>
      <point x="876" y="560" type="line"/>
      <point x="876" y="272" type="line" smooth="yes"/>
      <point x="876" y="345"/>
      <point x="856" y="276"/>
      <point x="888" y="276" type="curve" smooth="yes"/>
      <point x="936" y="276"/>
      <point x="919" y="351"/>
      <point x="916" y="359" type="curve"/>
      <point x="916" y="409"/>
      <point x="912" y="458"/>
      <point x="912" y="484" type="curve"/>
      <point x="1290" y="484" type="line"/>
      <point x="1290" y="487"/>
      <point x="1291" y="299"/>
      <point x="1291" y="302" type="curve"/>
      <point x="1298" y="90"/>
      <point x="1084" y="-28"/>
      <point x="900" y="-28" type="curve" smooth="yes"/>
      <point x="831" y="-28"/>
      <point x="754" y="2"/>
      <point x="683" y="40" type="curve"/>
      <point x="604" y="-4"/>
      <point x="515" y="-28"/>
    </contour>
    <contour>
      <point x="465" y="932" type="curve" smooth="yes"/>
      <point x="444" y="932"/>
      <point x="442" y="914"/>
      <point x="442" y="1000" type="curve" smooth="yes"/>
      <point x="442" y="223" type="line" smooth="yes"/>
      <point x="442" y="309"/>
      <point x="433" y="276"/>
      <point x="465" y="276" type="curve" smooth="yes"/>
      <point x="494" y="276"/>
      <point x="498" y="299"/>
      <point x="500" y="214" type="curve"/>
      <point x="500" y="1000" type="line" smooth="yes"/>
      <point x="500" y="918"/>
      <point x="489" y="932"/>
    </contour>
    <contour>
      <point x="885" y="932" type="curve"/>
      <point x="886" y="932"/>
      <point x="876" y="917"/>
      <point x="876" y="961" type="curve" smooth="yes"/>
      <point x="876" y="965"/>
      <point x="876" y="756"/>
      <point x="876" y="760" type="curve"/>
      <point x="914" y="760" type="line"/>
      <point x="914" y="756"/>
      <point x="914" y="965"/>
      <point x="914" y="961" type="curve" smooth="yes"/>
      <point x="914" y="949"/>
      <point x="896" y="932"/>
    </contour>
  </outline>
</glyph>
<glyph name="uni0237" format="1">
  <advance width="743"/>
  <unicode hex="0237"/>
  <outline>
    <contour>
      <point x="323" y="-307" type="curve" smooth="yes"/>
      <point x="555" y="-307"/>
      <point x="669" y="-151"/>
      <point x="669" y="58" type="curve" smooth="yes"/>
      <point x="669" y="1352" type="line"/>
      <point x="252" y="1352" type="line"/>
      <point x="252" y="87" type="line" smooth="yes"/>
      <point x="252" y="39"/>
      <point x="232" y="10"/>
      <point x="203" y="10" type="curve" smooth="yes"/>
      <point x="165" y="10"/>
      <point x="131" y="21"/>
      <point x="101" y="32" type="curve"/>
      <point x="101" y="-272" type="line"/>
      <point x="171" y="-291"/>
      <point x="242" y="-307"/>
    </contour>
  </outline>
</glyph>
<glyph name="circumflex" format="1">
  <advance width="974"/>
  <unicode hex="02C6"/>
  <outline>
    <contour>
      <point x="113" y="1386" type="line"/>
      <point x="458" y="1386" type="line"/>
      <point x="497" y="1546" type="line"/>
      <point x="539" y="1386" type="line"/>
      <point x="887" y="1386" type="line"/>
      <point x="657" y="1836" type="line"/>
      <point x="334" y="1836" type="line"/>
    </contour>
  </outline>
</glyph>
<glyph name="caron" format="1">
  <advance width="965"/>
  <unicode hex="02C7"/>
  <outline>
    <contour>
      <point x="280" y="1412" type="line"/>
      <point x="673" y="1412" type="line"/>
      <point x="878" y="1844" type="line"/>
      <point x="544" y="1844" type="line"/>
      <point x="478" y="1659" type="line"/>
      <point x="415" y="1844" type="line"/>
      <point x="83" y="1844" type="line"/>
    </contour>
  </outline>
</glyph>
<glyph name="breve" format="1">
  <advance width="723"/>
  <unicode hex="02D8"/>
  <outline>
    <contour>
      <point x="339" y="1493" type="curve" smooth="yes"/>
      <point x="502" y="1493"/>
      <point x="586" y="1615"/>
      <point x="582" y="1732" type="curve"/>
      <point x="383" y="1732" type="line"/>
      <point x="392" y="1722"/>
      <point x="396" y="1619"/>
      <point x="339" y="1619" type="curve" smooth="yes"/>
      <point x="282" y="1619"/>
      <point x="286" y="1722"/>
      <point x="295" y="1732" type="curve"/>
      <point x="96" y="1732" type="line"/>
      <point x="92" y="1615"/>
      <point x="176" y="1493"/>
    </contour>
  </outline>
</glyph>
<glyph name="dotaccent" format="1">
  <advance width="653"/>
  <unicode hex="02D9"/>
  <outline>
    <contour>
      <point x="161" y="1551" type="line"/>
      <point x="545" y="1551" type="line"/>
      <point x="545" y="1930" type="line"/>
      <point x="161" y="1930" type="line"/>
    </contour>
  </outline>
</glyph>
<glyph name="ring" format="1">
  <advance width="810"/>
  <unicode hex="02DA"/>
  <outline>
    <contour>
      <point x="396" y="1648" type="curve" smooth="yes"/>
      <point x="357" y="1648"/>
      <point x="342" y="1713"/>
      <point x="342" y="1755" type="curve" smooth="yes"/>
      <point x="342" y="1795"/>
      <point x="358" y="1858"/>
      <point x="396" y="1858" type="curve" smooth="yes"/>
      <point x="433" y="1858"/>
      <point x="446" y="1789"/>
      <point x="446" y="1752" type="curve" smooth="yes"/>
      <point x="446" y="1713"/>
      <point x="433" y="1648"/>
    </contour>
    <contour>
      <point x="396" y="1505" type="curve" smooth="yes"/>
      <point x="536" y="1505"/>
      <point x="664" y="1585"/>
      <point x="664" y="1753" type="curve" smooth="yes"/>
      <point x="664" y="1920"/>
      <point x="535" y="2001"/>
      <point x="396" y="2001" type="curve" smooth="yes"/>
      <point x="256" y="2001"/>
      <point x="128" y="1921"/>
      <point x="128" y="1753" type="curve" smooth="yes"/>
      <point x="128" y="1585"/>
      <point x="256" y="1505"/>
    </contour>
  </outline>
</glyph>
<glyph name="ogonek" format="1">
  <advance width="619"/>
  <unicode hex="02DB"/>
  <outline>
    <contour>
      <point x="477" y="-588" type="curve"/>
      <point x="508" y="-389" type="line"/>
      <point x="451" y="-389"/>
      <point x="312" y="-390"/>
      <point x="312" y="-255" type="curve" smooth="yes"/>
      <point x="312" y="-157"/>
      <point x="345" y="-74"/>
      <point x="358" y="23" type="curve"/>
      <point x="175" y="23" type="line"/>
      <point x="81" y="-76"/>
      <point x="26" y="-216"/>
      <point x="26" y="-328" type="curve" smooth="yes"/>
      <point x="26" y="-587"/>
      <point x="323" y="-594"/>
    </contour>
  </outline>
</glyph>
<glyph name="tilde" format="1">
  <advance width="867"/>
  <unicode hex="02DC"/>
  <outline>
    <contour>
      <point x="644" y="1299" type="curve" smooth="yes"/>
      <point x="758" y="1299"/>
      <point x="774" y="1474"/>
      <point x="773" y="1610" type="curve"/>
      <point x="618" y="1610" type="line"/>
      <point x="621" y="1599"/>
      <point x="630" y="1577"/>
      <point x="598" y="1577" type="curve" smooth="yes"/>
      <point x="538" y="1577"/>
      <point x="429" y="1622"/>
      <point x="282" y="1622" type="curve" smooth="yes"/>
      <point x="141" y="1622"/>
      <point x="115" y="1488"/>
      <point x="116" y="1309" type="curve"/>
      <point x="287" y="1309" type="line"/>
      <point x="284" y="1324"/>
      <point x="273" y="1363"/>
      <point x="327" y="1363" type="curve" smooth="yes"/>
      <point x="429" y="1363"/>
      <point x="544" y="1299"/>
    </contour>
  </outline>
</glyph>
<glyph name="hungarumlaut" format="1">
  <advance width="1129"/>
  <unicode hex="02DD"/>
  <outline>
    <contour>
      <point x="119" y="1404" type="line"/>
      <point x="269" y="1902" type="line"/>
      <point x="606" y="1902" type="line"/>
      <point x="388" y="1404" type="line"/>
    </contour>
    <contour>
      <point x="472" y="1404" type="line"/>
      <point x="744" y="1404" type="line"/>
      <point x="963" y="1902" type="line"/>
      <point x="623" y="1902" type="line"/>
    </contour>
  </outline>
</glyph>
<glyph name="uni030F" format="1">
  <advance width="1124"/>
  <unicode hex="030F"/>
  <outline>
    <contour>
      <point x="351" y="1404" type="line"/>
      <point x="623" y="1404" type="line"/>
      <point x="473" y="1902" type="line"/>
      <point x="133" y="1902" type="line"/>
    </contour>
    <contour>
      <point x="708" y="1404" type="line"/>
      <point x="977" y="1404" type="line"/>
      <point x="826" y="1902" type="line"/>
      <point x="489" y="1902" type="line"/>
    </contour>
  </outline>
</glyph>
<glyph name="uni0311" format="1">
  <advance width="724"/>
  <unicode hex="0311"/>
  <outline>
    <contour>
      <point x="97" y="1493" type="curve"/>
      <point x="296" y="1493" type="line"/>
      <point x="287" y="1503"/>
      <point x="283" y="1606"/>
      <point x="340" y="1606" type="curve" smooth="yes"/>
      <point x="397" y="1606"/>
      <point x="393" y="1503"/>
      <point x="384" y="1493" type="curve"/>
      <point x="583" y="1493" type="line"/>
      <point x="587" y="1611"/>
      <point x="503" y="1732"/>
      <point x="340" y="1732" type="curve" smooth="yes"/>
      <point x="177" y="1732"/>
      <point x="93" y="1611"/>
    </contour>
  </outline>
</glyph>
<glyph name="uni0326" format="1">
  <advance width="508"/>
  <unicode hex="0326"/>
  <outline>
    <contour>
      <point x="130" y="-690" type="line"/>
      <point x="149" y="-693"/>
      <point x="170" y="-697"/>
      <point x="189" y="-697" type="curve" smooth="yes"/>
      <point x="487" y="-708"/>
      <point x="436" y="-447"/>
      <point x="436" y="-74" type="curve"/>
      <point x="52" y="-74" type="line"/>
      <point x="52" y="-453" type="line"/>
      <point x="154" y="-453" type="line"/>
      <point x="153" y="-553"/>
      <point x="148" y="-490"/>
      <point x="84" y="-476" type="curve"/>
    </contour>
  </outline>
</glyph>
<glyph name="afii10043" format="1">
  <advance width="1727"/>
  <unicode hex="0429"/>
  <outline>
    <contour>
      <point x="1367" y="144" type="line"/>
      <point x="1367" y="-368" type="line"/>
      <point x="1619" y="-368" type="line"/>
      <point x="1727" y="-96" type="line"/>
      <point x="1727" y="144" type="line"/>
    </contour>
    <contour>
      <point x="284" y="0" type="line"/>
      <point x="1327" y="0" type="line"/>
      <point x="1375" y="275" type="line"/>
      <point x="284" y="275" type="line"/>
    </contour>
    <component base="uc_main_stem" xScale="0.93127961922" xOffset="564.566350843"/>
    <component base="uc_main_stem" xScale="0.93127961922" xOffset="1112.56635084"/>
    <component base="uc_main_stem" xScale="0.93127961922" xOffset="12.5663508432"/>
  </outline>
</glyph>
<glyph name="afii10044" format="1">
  <advance width="1244"/>
  <unicode hex="042A"/>
  <outline>
    <contour>
      <point x="0" y="1351" type="line"/>
      <point x="425" y="1351" type="line"/>
      <point x="425" y="1626" type="line"/>
      <point x="0" y="1626" type="line"/>
    </contour>
    <contour>
      <point x="437" y="2" type="line"/>
      <point x="672" y="2" type="line" smooth="yes"/>
      <point x="941" y="2"/>
      <point x="1196" y="56"/>
      <point x="1196" y="480" type="curve" smooth="yes"/>
      <point x="1196" y="794"/>
      <point x="1019" y="956"/>
      <point x="721" y="956" type="curve" smooth="yes"/>
      <point x="437" y="956" type="line"/>
      <point x="437" y="673" type="line"/>
      <point x="671" y="673" type="line" smooth="yes"/>
      <point x="790" y="673"/>
      <point x="812" y="576"/>
      <point x="816" y="489" type="curve" smooth="yes"/>
      <point x="822" y="356"/>
      <point x="790" y="269"/>
      <point x="675" y="269" type="curve" smooth="yes"/>
      <point x="437" y="269" type="line"/>
    </contour>
    <component base="uc_main_stem" xOffset="128"/>
  </outline>
</glyph>
<glyph name="afii10045" format="1">
  <advance width="1663"/>
  <unicode hex="042B"/>
  <outline>
    <contour>
      <point x="316.0" y="2.0" type="line"/>
      <point x="551" y="2" type="line" smooth="yes"/>
      <point x="820" y="2"/>
      <point x="1075" y="56"/>
      <point x="1075" y="480" type="curve" smooth="yes"/>
      <point x="1075" y="794"/>
      <point x="898" y="956"/>
      <point x="600" y="956" type="curve" smooth="yes"/>
      <point x="316.0" y="956.0" type="line"/>
      <point x="316.0" y="673.0" type="line"/>
      <point x="550" y="673" type="line" smooth="yes"/>
      <point x="669" y="673"/>
      <point x="691" y="576"/>
      <point x="695" y="489" type="curve" smooth="yes"/>
      <point x="701" y="356"/>
      <point x="669" y="269"/>
      <point x="554" y="269" type="curve" smooth="yes"/>
      <point x="316.0" y="269.0" type="line"/>
    </contour>
    <component base="uc_main_stem" xOffset="7"/>
    <component base="uc_main_stem" xOffset="1082"/>
  </outline>
</glyph>
<glyph name="afii10046" format="1">
  <advance width="1123"/>
  <unicode hex="042C"/>
  <outline>
    <contour>
      <point x="316" y="2" type="line"/>
      <point x="551" y="2" type="line" smooth="yes"/>
      <point x="820" y="2"/>
      <point x="1075" y="56"/>
      <point x="1075" y="480" type="curve" smooth="yes"/>
      <point x="1075" y="794"/>
      <point x="898" y="956"/>
      <point x="600" y="956" type="curve" smooth="yes"/>
      <point x="316" y="956" type="line"/>
      <point x="316" y="673" type="line"/>
      <point x="550" y="673" type="line" smooth="yes"/>
      <point x="669" y="673"/>
      <point x="691" y="576"/>
      <point x="695" y="489" type="curve" smooth="yes"/>
      <point x="701" y="356"/>
      <point x="669" y="269"/>
      <point x="554" y="269" type="curve" smooth="yes"/>
      <point x="316" y="269" type="line"/>
    </contour>
    <component base="uc_main_stem" xOffset="7"/>
  </outline>
</glyph>
<glyph name="afii10049" format="1">
  <advance width="1200"/>
  <unicode hex="042F"/>
  <outline>
    <contour>
      <point x="919.0" y="1626.0" type="line"/>
      <point x="644" y="1626" type="line" smooth="yes"/>
      <point x="375" y="1626"/>
      <point x="60" y="1572"/>
      <point x="60" y="1148" type="curve" smooth="yes"/>
      <point x="60" y="834"/>
      <point x="273" y="672"/>
      <point x="571" y="672" type="curve" smooth="yes"/>
      <point x="919.0" y="672.0" type="line"/>
      <point x="919" y="963" type="line"/>
      <point x="640" y="963" type="line" smooth="yes"/>
      <point x="485" y="963"/>
      <point x="441" y="1038"/>
      <point x="441" y="1144" type="curve" smooth="yes"/>
      <point x="441" y="1293"/>
      <point x="507" y="1346"/>
      <point x="636" y="1346" type="curve" smooth="yes"/>
      <point x="919" y="1346" type="line"/>
    </contour>
    <contour>
      <point x="474" y="0" type="line"/>
      <point x="662" y="794" type="line"/>
      <point x="318" y="898" type="line"/>
      <point x="78" y="0" type="line"/>
    </contour>
    <component base="uc_main_stem" xOffset="619"/>
  </outline>
</glyph>
<glyph name="afii10081" format="1">
  <advance width="1043"/>
  <unicode hex="043F"/>
  <outline>
    <contour>
      <point x="259" y="968" type="line"/>
      <point x="841" y="968" type="line"/>
      <point x="841" y="1216" type="line"/>
      <point x="259" y="1216" type="line"/>
    </contour>
    <component base="lc_xheight_stem" xOffset="518"/>
    <component base="lc_xheight_stem" xOffset="-1"/>
  </outline>
</glyph>
<glyph name="afii10090" format="1">
  <advance width="1500.78960522"/>
  <unicode hex="0448"/>
  <outline>
    <contour>
      <point x="255" y="0" type="line"/>
      <point x="1246" y="0" type="line"/>
      <point x="1246" y="248" type="line"/>
      <point x="255" y="248" type="line"/>
    </contour>
    <component base="lc_xheight_stem" xScale="0.972805356835" xOffset="988"/>
    <component base="lc_xheight_stem" xScale="0.972805356835" xOffset="495"/>
    <component base="lc_xheight_stem" xScale="0.972805356835" xOffset="1"/>
  </outline>
</glyph>
<glyph name="endash" format="1">
  <advance width="411"/>
  <unicode hex="2013"/>
  <outline>
    <contour>
      <point x="-46" y="455" type="line"/>
      <point x="446" y="455" type="line"/>
      <point x="446" y="726" type="line"/>
      <point x="-46" y="726" type="line"/>
    </contour>
  </outline>
</glyph>
<glyph name="emdash" format="1">
  <advance width="666"/>
  <unicode hex="2014"/>
  <outline>
    <contour>
      <point x="-46" y="455" type="line"/>
      <point x="702" y="455" type="line"/>
      <point x="702" y="726" type="line"/>
      <point x="-46" y="726" type="line"/>
    </contour>
  </outline>
</glyph>
<glyph name="quoteleft" format="1">
  <advance width="632"/>
  <unicode hex="2018"/>
  <outline>
    <contour>
      <point x="135" y="1268" type="curve"/>
      <point x="482" y="1268" type="line"/>
      <point x="482" y="1617" type="line"/>
      <point x="354" y="1617" type="line"/>
      <point x="357" y="1702"/>
      <point x="470" y="1670"/>
      <point x="507" y="1654" type="curve"/>
      <point x="400" y="1873" type="line"/>
      <point x="44" y="1881"/>
      <point x="135" y="1418"/>
    </contour>
  </outline>
</glyph>
<glyph name="quoteright" format="1">
  <advance width="636"/>
  <unicode hex="2019"/>
  <outline>
    <contour>
      <point x="221" y="1279" type="line"/>
      <point x="577" y="1271"/>
      <point x="485" y="1733"/>
      <point x="485" y="1884" type="curve"/>
      <point x="140" y="1884" type="line"/>
      <point x="140" y="1535" type="line"/>
      <point x="268" y="1535" type="line"/>
      <point x="263" y="1446"/>
      <point x="152" y="1482"/>
      <point x="112" y="1498" type="curve"/>
    </contour>
  </outline>
</glyph>
<glyph name="quotesinglbase" format="1">
  <advance width="636"/>
  <unicode hex="201A"/>
  <outline>
    <contour>
      <point x="221" y="-256" type="line"/>
      <point x="577" y="-264"/>
      <point x="485" y="198"/>
      <point x="485" y="349" type="curve"/>
      <point x="140" y="349" type="line"/>
      <point x="140" y="0" type="line"/>
      <point x="268" y="0" type="line"/>
      <point x="263" y="-88"/>
      <point x="152" y="-53"/>
      <point x="112" y="-37" type="curve"/>
    </contour>
  </outline>
</glyph>
<glyph name="quotedblleft" format="1">
  <advance width="1078"/>
  <unicode hex="201C"/>
  <outline>
    <contour>
      <point x="140" y="1268" type="curve"/>
      <point x="486" y="1268" type="line"/>
      <point x="486" y="1617" type="line"/>
      <point x="358" y="1617" type="line"/>
      <point x="364" y="1704"/>
      <point x="472" y="1670"/>
      <point x="513" y="1654" type="curve"/>
      <point x="405" y="1873" type="line"/>
      <point x="48" y="1881"/>
      <point x="140" y="1420"/>
    </contour>
    <contour>
      <point x="565" y="1268" type="curve"/>
      <point x="911" y="1268" type="line"/>
      <point x="911" y="1617" type="line"/>
      <point x="783" y="1617" type="line"/>
      <point x="789" y="1702"/>
      <point x="896" y="1670"/>
      <point x="937" y="1654" type="curve"/>
      <point x="830" y="1873" type="line"/>
      <point x="473" y="1881"/>
      <point x="565" y="1420"/>
    </contour>
  </outline>
</glyph>
<glyph name="quotedblright" format="1">
  <advance width="1083"/>
  <unicode hex="201D"/>
  <outline>
    <contour>
      <point x="227" y="1279" type="line"/>
      <point x="582" y="1271"/>
      <point x="491" y="1733"/>
      <point x="491" y="1884" type="curve"/>
      <point x="145" y="1884" type="line"/>
      <point x="145" y="1535" type="line"/>
      <point x="273" y="1535" type="line"/>
      <point x="270" y="1446"/>
      <point x="155" y="1482"/>
      <point x="118" y="1498" type="curve"/>
    </contour>
    <contour>
      <point x="650" y="1279" type="line"/>
      <point x="1007" y="1271"/>
      <point x="916" y="1732"/>
      <point x="916" y="1884" type="curve"/>
      <point x="570" y="1884" type="line"/>
      <point x="570" y="1535" type="line"/>
      <point x="698" y="1535" type="line"/>
      <point x="692" y="1446"/>
      <point x="582" y="1482"/>
      <point x="541" y="1498" type="curve"/>
    </contour>
  </outline>
</glyph>
<glyph name="quotedblbase" format="1">
  <advance width="1083"/>
  <unicode hex="201E"/>
  <outline>
    <contour>
      <point x="227" y="-256" type="line"/>
      <point x="582" y="-264"/>
      <point x="491" y="198"/>
      <point x="491" y="349" type="curve"/>
      <point x="145" y="349" type="line"/>
      <point x="145" y="0" type="line"/>
      <point x="273" y="0" type="line"/>
      <point x="270" y="-88"/>
      <point x="155" y="-53"/>
      <point x="118" y="-37" type="curve"/>
    </contour>
    <contour>
      <point x="650" y="-256" type="line"/>
      <point x="1007" y="-264"/>
      <point x="916" y="197"/>
      <point x="916" y="349" type="curve"/>
      <point x="570" y="349" type="line"/>
      <point x="570" y="0" type="line"/>
      <point x="698" y="0" type="line"/>
      <point x="692" y="-88"/>
      <point x="582" y="-53"/>
      <point x="541" y="-37" type="curve"/>
    </contour>
  </outline>
</glyph>
<glyph name="dagger" format="1">
  <advance width="889"/>
  <unicode hex="2020"/>
  <outline>
    <contour>
      <point x="283" y="0" type="line"/>
      <point x="600" y="0" type="line"/>
      <point x="600" y="904" type="line"/>
      <point x="777" y="904" type="line"/>
      <point x="777" y="1236" type="line"/>
      <point x="600" y="1236" type="line"/>
      <point x="600" y="1570" type="line"/>
      <point x="283" y="1570" type="line"/>
      <point x="283" y="1236" type="line"/>
      <point x="106" y="1236" type="line"/>
      <point x="106" y="904" type="line"/>
      <point x="283" y="904" type="line"/>
    </contour>
  </outline>
</glyph>
<glyph name="daggerdbl" format="1">
  <advance width="889"/>
  <unicode hex="2021"/>
  <outline>
    <contour>
      <point x="283" y="0" type="line"/>
      <point x="600" y="0" type="line"/>
      <point x="600" y="448" type="line"/>
      <point x="777" y="448" type="line"/>
      <point x="777" y="662" type="line"/>
      <point x="600" y="662" type="line"/>
      <point x="600" y="999" type="line"/>
      <point x="777" y="999" type="line"/>
      <point x="777" y="1230" type="line"/>
      <point x="600" y="1230" type="line"/>
      <point x="600" y="1570" type="line"/>
      <point x="283" y="1570" type="line"/>
      <point x="283" y="1230" type="line"/>
      <point x="99" y="1230" type="line"/>
      <point x="99" y="999" type="line"/>
      <point x="283" y="999" type="line"/>
      <point x="283" y="662" type="line"/>
      <point x="99" y="662" type="line"/>
      <point x="99" y="448" type="line"/>
      <point x="283" y="448" type="line"/>
    </contour>
  </outline>
</glyph>
<glyph name="bullet" format="1">
  <advance width="1059"/>
  <unicode hex="2022"/>
  <outline>
    <contour>
      <point x="526" y="202" type="curve" smooth="yes"/>
      <point x="724" y="202"/>
      <point x="940" y="342"/>
      <point x="940" y="626" type="curve" smooth="yes"/>
      <point x="940" y="913"/>
      <point x="725" y="1057"/>
      <point x="526" y="1057" type="curve" smooth="yes"/>
      <point x="329" y="1057"/>
      <point x="115" y="918"/>
      <point x="115" y="626" type="curve" smooth="yes"/>
      <point x="115" y="341"/>
      <point x="328" y="202"/>
    </contour>
  </outline>
</glyph>
<glyph name="guilsinglleft" format="1">
  <advance width="578"/>
  <unicode hex="2039"/>
  <outline>
    <contour>
      <point x="499" y="34" type="line"/>
      <point x="499" y="369" type="line"/>
      <point x="276" y="577" type="line"/>
      <point x="499" y="783" type="line"/>
      <point x="499" y="1118" type="line"/>
      <point x="71" y="634" type="line"/>
      <point x="71" y="518" type="line"/>
    </contour>
  </outline>
</glyph>
<glyph name="guilsinglright" format="1">
  <advance width="617"/>
  <unicode hex="203A"/>
  <outline>
    <contour>
      <point x="79" y="38" type="line"/>
      <point x="554" y="576" type="line"/>
      <point x="554" y="704" type="line"/>
      <point x="79" y="1242" type="line"/>
      <point x="79" y="870" type="line"/>
      <point x="327" y="641" type="line"/>
      <point x="79" y="410" type="line"/>
    </contour>
  </outline>
</glyph>
<glyph name="fraction" format="1">
  <advance width="603"/>
  <unicode hex="2044"/>
  <outline>
    <contour>
      <point x="55" y="0" type="line"/>
      <point x="273" y="0" type="line"/>
      <point x="405" y="1836" type="line"/>
      <point x="182" y="1836" type="line"/>
    </contour>
  </outline>
</glyph>
<glyph name="uni2074" format="1">
  <advance width="869"/>
  <unicode hex="2074"/>
  <outline>
    <contour>
      <point x="387" y="580" type="line"/>
      <point x="646" y="580" type="line"/>
      <point x="646" y="831" type="line"/>
      <point x="775" y="831" type="line"/>
      <point x="775" y="1014" type="line"/>
      <point x="646" y="1014" type="line"/>
      <point x="646" y="1522" type="line"/>
      <point x="458" y="1522" type="line"/>
      <point x="85" y="1003" type="line"/>
      <point x="85" y="831" type="line"/>
      <point x="387" y="831" type="line"/>
    </contour>
    <contour>
      <point x="354" y="1014" type="line"/>
      <point x="387" y="1014" type="line"/>
      <point x="387" y="998" type="line"/>
    </contour>
  </outline>
</glyph>
<glyph name="Euro" format="1">
  <advance width="971"/>
  <unicode hex="20AC"/>
  <outline>
    <contour>
      <point x="648" y="657" type="line"/>
      <point x="648" y="771" type="line"/>
      <point x="188" y="771" type="line"/>
      <point x="188" y="865" type="line"/>
      <point x="648" y="865" type="line"/>
      <point x="648" y="979" type="line"/>
      <point x="-20" y="979" type="line"/>
      <point x="-20" y="865" type="line"/>
      <point x="124" y="865" type="line"/>
      <point x="124" y="771" type="line"/>
      <point x="-20" y="771" type="line"/>
      <point x="-20" y="657" type="line"/>
    </contour>
    <component base="C"/>
  </outline>
</glyph>
<glyph name="Euro" format="1">
  <advance width="1015"/>
  <unicode hex="20AC"/>
  <outline>
    <contour>
      <point x="486" y="-27" type="curve" smooth="yes"/>
      <point x="865" y="-27"/>
      <point x="932" y="299"/>
      <point x="933" y="598" type="curve" smooth="yes"/>
      <point x="933" y="573" type="line"/>
      <point x="597" y="573" type="line"/>
      <point x="597" y="616" type="line" smooth="yes"/>
      <point x="597" y="559"/>
      <point x="614" y="298"/>
      <point x="493" y="298" type="curve" smooth="yes"/>
      <point x="379" y="298"/>
      <point x="394" y="455"/>
      <point x="386" y="528" type="curve" smooth="yes"/>
      <point x="386" y="434" type="line"/>
      <point x="550" y="434" type="line"/>
      <point x="550" y="677" type="line"/>
      <point x="381" y="677" type="line"/>
      <point x="381" y="802" type="line"/>
      <point x="550" y="802" type="line"/>
      <point x="550" y="1047" type="line"/>
      <point x="381" y="1047" type="line"/>
      <point x="381" y="946" type="line" smooth="yes"/>
      <point x="383" y="1031"/>
      <point x="349" y="1194"/>
      <point x="483" y="1194" type="curve" smooth="yes"/>
      <point x="587" y="1194"/>
      <point x="583" y="989"/>
      <point x="584" y="943" type="curve" smooth="yes"/>
      <point x="584" y="979" type="line"/>
      <point x="926" y="979" type="line"/>
      <point x="926" y="957" type="line" smooth="yes"/>
      <point x="920" y="1252"/>
      <point x="831" y="1512"/>
      <point x="476" y="1512" type="curve" smooth="yes"/>
      <point x="135" y="1512"/>
      <point x="62" y="1252"/>
      <point x="42" y="962" type="curve" smooth="yes"/>
      <point x="42" y="1047" type="line"/>
      <point x="-8" y="1047" type="line"/>
      <point x="-8" y="802" type="line"/>
      <point x="38" y="802" type="line"/>
      <point x="38" y="677" type="line"/>
      <point x="-8" y="677" type="line"/>
      <point x="-8" y="434" type="line"/>
      <point x="39" y="434" type="line"/>
      <point x="39" y="509" type="line" smooth="yes"/>
      <point x="56" y="210"/>
      <point x="144" y="-27"/>
    </contour>
  </outline>
</glyph>
<glyph name="trademark" format="1">
  <advance width="2601"/>
  <unicode hex="2122"/>
  <outline>
    <contour>
      <point x="804" y="686" type="line"/>
      <point x="994" y="686" type="line"/>
      <point x="994" y="1171" type="line"/>
      <point x="1103" y="686" type="line"/>
      <point x="1231" y="686" type="line"/>
      <point x="1339" y="1167" type="line"/>
      <point x="1339" y="686" type="line"/>
      <point x="1531" y="686" type="line"/>
      <point x="1531" y="1552" type="line"/>
      <point x="1248" y="1552" type="line"/>
      <point x="1166" y="1137" type="line"/>
      <point x="1081" y="1552" type="line"/>
      <point x="804" y="1552" type="line"/>
    </contour>
    <contour>
      <point x="378" y="686" type="line"/>
      <point x="580" y="686" type="line"/>
      <point x="580" y="1364" type="line"/>
      <point x="744" y="1364" type="line"/>
      <point x="744" y="1552" type="line"/>
      <point x="215" y="1552" type="line"/>
      <point x="215" y="1364" type="line"/>
      <point x="378" y="1364" type="line"/>
    </contour>
  </outline>
</glyph>
<glyph name="product" format="1">
  <advance width="1272"/>
  <unicode hex="220F"/>
  <outline>
    <contour>
      <point x="139" y="0" type="line"/>
      <point x="427" y="0" type="line"/>
      <point x="427" y="1600" type="line"/>
      <point x="843" y="1600" type="line"/>
      <point x="843" y="0" type="line"/>
      <point x="1131" y="0" type="line"/>
      <point x="1131" y="1826" type="line"/>
      <point x="139" y="1826" type="line"/>
    </contour>
  </outline>
</glyph>
<glyph name="minus" format="1">
  <advance width="980"/>
  <unicode hex="2212"/>
  <outline>
    <contour>
      <point x="151" y="562" type="line"/>
      <point x="807" y="562" type="line"/>
      <point x="807" y="832" type="line"/>
      <point x="151" y="832" type="line"/>
    </contour>
  </outline>
</glyph>
<glyph name="uniFB00" format="1">
  <advance width="1389"/>
  <unicode hex="FB00"/>
  <outline>
    <contour>
      <point x="125" y="0" type="line"/>
      <point x="544" y="0" type="line"/>
      <point x="544" y="1065" type="line"/>
      <point x="798" y="1065" type="line"/>
      <point x="798" y="0" type="line"/>
      <point x="1217" y="0" type="line"/>
      <point x="1217" y="1065" type="line"/>
      <point x="1367" y="1065" type="line"/>
      <point x="1367" y="1352" type="line"/>
      <point x="1217" y="1352" type="line"/>
      <point x="1217" y="1361" type="line" smooth="yes"/>
      <point x="1217" y="1453"/>
      <point x="1255" y="1448"/>
      <point x="1279" y="1448" type="curve" smooth="yes"/>
      <point x="1300" y="1448"/>
      <point x="1378" y="1441"/>
      <point x="1373" y="1442" type="curve"/>
      <point x="1373" y="1757" type="line"/>
      <point x="1389" y="1753"/>
      <point x="1240" y="1771"/>
      <point x="1121" y="1771" type="curve" smooth="yes"/>
      <point x="871" y="1771"/>
      <point x="808" y="1586"/>
      <point x="799" y="1337" type="curve" smooth="yes"/>
      <point x="799" y="1323"/>
      <point x="798" y="1366"/>
      <point x="798" y="1352" type="curve"/>
      <point x="544" y="1352" type="line"/>
      <point x="544" y="1361" type="line" smooth="yes"/>
      <point x="544" y="1453"/>
      <point x="583" y="1448"/>
      <point x="606" y="1448" type="curve" smooth="yes"/>
      <point x="628" y="1448"/>
      <point x="706" y="1441"/>
      <point x="700" y="1442" type="curve"/>
      <point x="700" y="1757" type="line"/>
      <point x="717" y="1753"/>
      <point x="567" y="1771"/>
      <point x="449" y="1771" type="curve" smooth="yes"/>
      <point x="198" y="1771"/>
      <point x="135" y="1586"/>
      <point x="127" y="1337" type="curve" smooth="yes"/>
      <point x="127" y="1323"/>
      <point x="125" y="1366"/>
      <point x="125" y="1352" type="curve"/>
      <point x="89" y="1352" type="line"/>
      <point x="89" y="1065" type="line"/>
      <point x="125" y="1065" type="line"/>
    </contour>
  </outline>
</glyph>
<glyph name="uniFB01" format="1">
  <advance width="1311"/>
  <unicode hex="FB01"/>
  <outline>
    <contour>
      <point x="125" y="0" type="line"/>
      <point x="544" y="0" type="line"/>
      <point x="544" y="1065" type="line"/>
      <point x="807" y="1065" type="line"/>
      <point x="807" y="0" type="line"/>
      <point x="1226" y="0" type="line"/>
      <point x="1226" y="1352" type="line"/>
      <point x="544" y="1352" type="line"/>
      <point x="544" y="1361" type="line" smooth="yes"/>
      <point x="544" y="1453"/>
      <point x="583" y="1448"/>
      <point x="606" y="1448" type="curve" smooth="yes"/>
      <point x="628" y="1448"/>
      <point x="706" y="1441"/>
      <point x="700" y="1442" type="curve"/>
      <point x="700" y="1757" type="line"/>
      <point x="717" y="1753"/>
      <point x="567" y="1771"/>
      <point x="449" y="1771" type="curve" smooth="yes"/>
      <point x="198" y="1771"/>
      <point x="135" y="1586"/>
      <point x="127" y="1337" type="curve" smooth="yes"/>
      <point x="127" y="1323"/>
      <point x="125" y="1366"/>
      <point x="125" y="1352" type="curve"/>
      <point x="89" y="1352" type="line"/>
      <point x="89" y="1065" type="line"/>
      <point x="125" y="1065" type="line"/>
    </contour>
    <contour>
      <point x="807" y="1396" type="line"/>
      <point x="1226" y="1396" type="line"/>
      <point x="1226" y="1770" type="line"/>
      <point x="807" y="1770" type="line"/>
    </contour>
  </outline>
</glyph>
<glyph name="uniFB02" format="1">
  <advance width="1280"/>
  <unicode hex="FB02"/>
  <outline>
    <contour>
      <point x="125" y="0" type="line"/>
      <point x="544" y="0" type="line"/>
      <point x="544" y="1065" type="line"/>
      <point x="695" y="1065" type="line"/>
      <point x="695" y="1352" type="line"/>
      <point x="544" y="1352" type="line"/>
      <point x="544" y="1361" type="line" smooth="yes"/>
      <point x="544" y="1424"/>
      <point x="556" y="1446"/>
      <point x="574" y="1446" type="curve" smooth="yes"/>
      <point x="606" y="1446"/>
      <point x="703" y="1446"/>
      <point x="786" y="1443" type="curve"/>
      <point x="786" y="0" type="line"/>
      <point x="1206" y="0" type="line"/>
      <point x="1206" y="1756" type="line"/>
      <point x="804" y="1773"/>
      <point x="575" y="1771"/>
      <point x="448" y="1771" type="curve" smooth="yes"/>
      <point x="148" y="1771"/>
      <point x="135" y="1506"/>
      <point x="127" y="1319" type="curve" smooth="yes"/>
      <point x="127" y="1305"/>
      <point x="125" y="1366"/>
      <point x="125" y="1352" type="curve"/>
      <point x="89" y="1352" type="line"/>
      <point x="89" y="1065" type="line"/>
      <point x="125" y="1065" type="line"/>
    </contour>
  </outline>
</glyph>
<glyph name="uniFB04" format="1">
  <advance width="2011"/>
  <unicode hex="FB04"/>
  <outline>
    <contour>
      <point x="125" y="0" type="line"/>
      <point x="544" y="0" type="line"/>
      <point x="544" y="1065" type="line"/>
      <point x="857" y="1065" type="line"/>
      <point x="857" y="0" type="line"/>
      <point x="1276" y="0" type="line"/>
      <point x="1276" y="1065" type="line"/>
      <point x="1401" y="1065" type="line"/>
      <point x="1401" y="1352" type="line"/>
      <point x="1276" y="1352" type="line"/>
      <point x="1276" y="1361" type="line" smooth="yes"/>
      <point x="1276" y="1424"/>
      <point x="1314" y="1446"/>
      <point x="1392" y="1446" type="curve" smooth="yes"/>
      <point x="1408" y="1446"/>
      <point x="1447" y="1446"/>
      <point x="1518" y="1444" type="curve"/>
      <point x="1518" y="0" type="line"/>
      <point x="1937" y="0" type="line"/>
      <point x="1937" y="1740" type="line"/>
      <point x="1536" y="1773"/>
      <point x="1324" y="1771"/>
      <point x="1209" y="1771" type="curve" smooth="yes"/>
      <point x="885" y="1771"/>
      <point x="867" y="1506"/>
      <point x="858" y="1319" type="curve" smooth="yes"/>
      <point x="858" y="1305"/>
      <point x="857" y="1366"/>
      <point x="857" y="1352" type="curve"/>
      <point x="544" y="1352" type="line"/>
      <point x="544" y="1361" type="line" smooth="yes"/>
      <point x="544" y="1453"/>
      <point x="583" y="1448"/>
      <point x="606" y="1448" type="curve" smooth="yes"/>
      <point x="628" y="1448"/>
      <point x="706" y="1441"/>
      <point x="700" y="1442" type="curve"/>
      <point x="700" y="1757" type="line"/>
      <point x="717" y="1753"/>
      <point x="567" y="1771"/>
      <point x="449" y="1771" type="curve" smooth="yes"/>
      <point x="198" y="1771"/>
      <point x="135" y="1586"/>
      <point x="127" y="1337" type="curve" smooth="yes"/>
      <point x="127" y="1323"/>
      <point x="125" y="1366"/>
      <point x="125" y="1352" type="curve"/>
      <point x="89" y="1352" type="line"/>
      <point x="89" y="1065" type="line"/>
      <point x="125" y="1065" type="line"/>
    </contour>
  </outline>
</glyph>
<glyph name="foundryicon" format="1">
  <advance width="1559"/>
  <outline>
    <contour>
      <point x="361" y="249" type="line"/>
      <point x="774" y="544" type="line"/>
      <point x="1196" y="249" type="line"/>
      <point x="1043" y="737" type="line"/>
      <point x="1458" y="1051" type="line"/>
      <point x="943" y="1051" type="line"/>
      <point x="774" y="1539" type="line"/>
      <point x="614" y="1051" type="line"/>
      <point x="99" y="1041" type="line"/>
      <point x="512" y="737" type="line"/>
    </contour>
  </outline>
</glyph>
<glyph name="lc_ascender_stem" format="1">
  <advance width="500"/>
  <outline>
    <contour>
      <point x="499" y="1806" type="line"/>
      <point x="83" y="1806" type="line"/>
      <point x="83.0" y="0.0" type="line"/>
      <point x="499.0" y="0.0" type="line"/>
    </contour>
  </outline>
</glyph>
<glyph name="lc_left_curve" format="1">
  <advance width="1136"/>
  <outline>
    <contour>
      <point x="677" y="-20" type="curve" smooth="yes"/>
      <point x="781" y="-20"/>
      <point x="904" y="9"/>
      <point x="1042" y="233" type="curve"/>
      <point x="1042" y="373" type="line"/>
      <point x="971" y="305"/>
      <point x="919" y="278"/>
      <point x="884" y="278" type="curve" smooth="yes"/>
      <point x="845" y="278"/>
      <point x="819" y="312"/>
      <point x="819" y="358" type="curve" smooth="yes"/>
      <point x="819" y="1000" type="line" smooth="yes"/>
      <point x="819" y="1060"/>
      <point x="845" y="1090"/>
      <point x="884" y="1090" type="curve" smooth="yes"/>
      <point x="919" y="1090"/>
      <point x="971" y="1063"/>
      <point x="1042" y="995" type="curve"/>
      <point x="1042" y="1159" type="line"/>
      <point x="916" y="1345"/>
      <point x="803" y="1382"/>
      <point x="687" y="1382" type="curve" smooth="yes"/>
      <point x="526" y="1382"/>
      <point x="403" y="1244"/>
      <point x="403" y="1021" type="curve" smooth="yes"/>
      <point x="403" y="341" type="line" smooth="yes"/>
      <point x="403" y="118"/>
      <point x="516" y="-20"/>
    </contour>
  </outline>
</glyph>
<glyph name="lc_right_curve" format="1">
  <advance width="1136"/>
  <outline>
    <contour>
      <point x="762" y="-20" type="curve" smooth="yes"/>
      <point x="923" y="-20"/>
      <point x="1036" y="108"/>
      <point x="1036" y="341" type="curve" smooth="yes"/>
      <point x="1036" y="1031" type="line" smooth="yes"/>
      <point x="1036" y="1264"/>
      <point x="923" y="1382"/>
      <point x="762" y="1382" type="curve" smooth="yes"/>
      <point x="658" y="1382"/>
      <point x="502" y="1353"/>
      <point x="364" y="1129" type="curve"/>
      <point x="364.0" y="1095.5"/>
      <point x="364" y="964"/>
      <point x="364" y="964" type="curve"/>
      <point x="435" y="1032"/>
      <point x="495" y="1089"/>
      <point x="540" y="1089" type="curve" smooth="yes"/>
      <point x="590" y="1089"/>
      <point x="620" y="1056"/>
      <point x="620" y="1010" type="curve" smooth="yes"/>
      <point x="620" y="342" type="line" smooth="yes"/>
      <point x="620" y="296"/>
      <point x="590" y="262"/>
      <point x="540" y="262" type="curve" smooth="yes"/>
      <point x="496" y="262"/>
      <point x="435" y="289"/>
      <point x="364" y="357" type="curve"/>
      <point x="364" y="233" type="line"/>
      <point x="502" y="9"/>
      <point x="658" y="-20"/>
    </contour>
  </outline>
</glyph>
<glyph name="lc_xheight_curve_stem" format="1">
  <advance width="1069"/>
  <outline>
    <contour>
      <point x="404" y="976" type="line"/>
      <point x="475" y="1044"/>
      <point x="527" y="1090"/>
      <point x="562" y="1090" type="curve" smooth="yes"/>
      <point x="601" y="1090"/>
      <point x="619" y="1057"/>
      <point x="619" y="1010" type="curve" smooth="yes"/>
      <point x="619" y="0" type="line"/>
      <point x="1035" y="0" type="line"/>
      <point x="1035" y="1061" type="line" smooth="yes"/>
      <point x="1035" y="1254"/>
      <point x="942" y="1382"/>
      <point x="781" y="1382" type="curve" smooth="yes"/>
      <point x="677" y="1382"/>
      <point x="542" y="1365"/>
      <point x="404" y="1141" type="curve"/>
    </contour>
  </outline>
</glyph>
<glyph name="lc_xheight_stem" format="1">
  <advance width="1069"/>
  <outline>
    <contour>
      <point x="83" y="0" type="line"/>
      <point x="499" y="0" type="line"/>
      <point x="499" y="1352" type="line"/>
      <point x="83" y="1352" type="line"/>
    </contour>
  </outline>
</glyph>
<glyph name="tt" format="1">
  <advance width="1343"/>
  <outline>
    <contour>
      <point x="448" y="-14" type="curve" smooth="yes"/>
      <point x="526" y="-14"/>
      <point x="625" y="-15"/>
      <point x="698" y="8" type="curve"/>
      <point x="698" y="338" type="line"/>
      <point x="663" y="334"/>
      <point x="630" y="333"/>
      <point x="595" y="333" type="curve" smooth="yes"/>
      <point x="536" y="333"/>
      <point x="508" y="356"/>
      <point x="508" y="401" type="curve" smooth="yes"/>
      <point x="508" y="1065" type="line"/>
      <point x="742" y="1065" type="line"/>
      <point x="742" y="521" type="line" smooth="yes"/>
      <point x="742" y="260"/>
      <point x="776" y="-14"/>
      <point x="1100" y="-14" type="curve" smooth="yes"/>
      <point x="1178" y="-14"/>
      <point x="1277" y="-15"/>
      <point x="1350" y="8" type="curve"/>
      <point x="1350" y="338" type="line"/>
      <point x="1315" y="334"/>
      <point x="1282" y="333"/>
      <point x="1247" y="333" type="curve" smooth="yes"/>
      <point x="1188" y="333"/>
      <point x="1160" y="356"/>
      <point x="1160" y="401" type="curve" smooth="yes"/>
      <point x="1160" y="1065" type="line"/>
      <point x="1310" y="1065" type="line"/>
      <point x="1310" y="1352" type="line"/>
      <point x="1160" y="1352" type="line"/>
      <point x="1160" y="1783" type="line"/>
      <point x="742" y="1783" type="line"/>
      <point x="742" y="1352" type="line"/>
      <point x="508" y="1352" type="line"/>
      <point x="508" y="1783" type="line"/>
      <point x="90" y="1783" type="line"/>
      <point x="90" y="1352" type="line"/>
      <point x="23" y="1352" type="line"/>
      <point x="23" y="1065" type="line"/>
      <point x="90" y="1065" type="line"/>
      <point x="90" y="521" type="line" smooth="yes"/>
      <point x="90" y="260"/>
      <point x="124" y="-14"/>
    </contour>
  </outline>
</glyph>
<glyph name="uc_main_stem" format="1">
  <advance width="0"/>
  <outline>
    <contour>
      <point x="90.0" y="0.0" type="line"/>
      <point x="548.0" y="0.0" type="line"/>
      <point x="548.0" y="1835.0" type="line"/>
      <point x="90.0" y="1835.0" type="line"/>
    </contour>
  </outline>
</glyph>
